<svg width="100" height="100" viewBox="0 0 100 100" fill="none" xmlns="http://www.w3.org/2000/svg">
<path d="M100 76.48H0V76.53H100V76.48Z" fill="#EBEBEB"/>
<path d="M89.98 79.698H83.356V79.748H89.98V79.698Z" fill="#EBEBEB"/>
<path d="M66.2439 80.2419H64.5059V80.2919H66.2439V80.2419Z" fill="#EBEBEB"/>
<path d="M83.1559 77.842H79.3179V77.892H83.1559V77.842Z" fill="#EBEBEB"/>
<path d="M19.1302 78.178H10.4922V78.228H19.1302V78.178Z" fill="#EBEBEB"/>
<path d="M22.1781 78.178H20.9121V78.228H22.1781V78.178Z" fill="#EBEBEB"/>
<path d="M45.0299 79.022H26.2939V79.072H45.0299V79.022Z" fill="#EBEBEB"/>
<path d="M47.4001 67.56H8.78209C8.47956 67.5595 8.1896 67.4389 7.97587 67.2248C7.76213 67.0107 7.64209 66.7205 7.64209 66.418V12.132C7.64472 11.8312 7.76593 11.5436 7.97938 11.3316C8.19283 11.1197 8.48128 11.0005 8.78209 11H47.4001C47.703 11 47.9934 11.1203 48.2076 11.3345C48.4218 11.5487 48.5421 11.8391 48.5421 12.142V66.418C48.5421 66.7209 48.4218 67.0114 48.2076 67.2255C47.9934 67.4397 47.703 67.56 47.4001 67.56ZM8.78209 11.04C8.49282 11.0405 8.21558 11.1558 8.01122 11.3605C7.80686 11.5653 7.69209 11.8427 7.69209 12.132V66.418C7.69209 66.7073 7.80686 66.9847 8.01122 67.1895C8.21558 67.3942 8.49282 67.5095 8.78209 67.51H47.4001C47.6895 67.5095 47.967 67.3943 48.1717 67.1896C48.3763 66.9849 48.4916 66.7075 48.4921 66.418V12.132C48.4916 11.8425 48.3763 11.5651 48.1717 11.3604C47.967 11.1557 47.6895 11.0405 47.4001 11.04H8.78209Z" fill="#EBEBEB"/>
<path d="M90.6619 67.56H52.0419C51.7392 67.5595 51.449 67.439 51.235 67.2249C51.0209 67.0109 50.9004 66.7207 50.8999 66.418V12.132C50.9031 11.831 51.0247 11.5434 51.2385 11.3315C51.4522 11.1196 51.7409 11.0005 52.0419 11H90.6619C90.9624 11.001 91.2503 11.1204 91.4633 11.3323C91.6763 11.5442 91.7973 11.8316 91.7999 12.132V66.418C91.7999 66.7202 91.6801 67.0101 91.4668 67.2241C91.2535 67.4382 90.9641 67.5589 90.6619 67.56ZM52.0419 11.04C51.7524 11.0405 51.475 11.1557 51.2703 11.3604C51.0656 11.5651 50.9504 11.8425 50.9499 12.132V66.418C50.9504 66.7075 51.0656 66.9849 51.2703 67.1896C51.475 67.3943 51.7524 67.5095 52.0419 67.51H90.6619C90.9514 67.5095 91.2288 67.3943 91.4335 67.1896C91.6382 66.9849 91.7534 66.7075 91.7539 66.418V12.132C91.7534 11.8425 91.6382 11.5651 91.4335 11.3604C91.2288 11.1557 90.9514 11.0405 90.6619 11.04H52.0419Z" fill="#EBEBEB"/>
<path d="M89.0839 23.436H40.6279V70.144H89.0839V23.436Z" fill="#E0E0E0"/>
<path d="M89.0838 24.2841H41.4058V69.3281H89.0838V24.2841Z" fill="#F5F5F5"/>
<path d="M41.7578 58.42V44.87H43.1638V43.08L46.3318 41.6V39.768H46.8598V44.87H47.3878V58.42H48.0918V51.38H49.6758V47.686H50.2038V58.42H51.4338V54.372H52.3138V53.316H54.2498V49.622H55.3058V47.158H56.5378V43.462H57.0658V47.158H58.2978V49.622H59.3518V53.316H61.2878V54.372H62.1678V58.42H63.2238V53.316H65.1598V42.056H65.6878V40.824H69.9098V42.056H70.7898V50.15H74.3098V51.028H75.5398V51.556H74.3098V54.724H78.0038V44.166H78.7078V42.056H80.4678V33.962H80.9958V42.056H82.2278V44.166H89.0838V69.328H41.4058V58.42H41.7578Z" fill="#E6E6E6"/>
<path d="M85.4199 44.718H84.9219V45.216H85.4199V44.718Z" fill="#F0F0F0"/>
<path d="M85.4199 45.554H84.9219V46.052H85.4199V45.554Z" fill="#F0F0F0"/>
<path d="M85.4199 48.8979H84.9219V49.3959H85.4199V48.8979Z" fill="#F0F0F0"/>
<path d="M85.4199 49.7321H84.9219V50.2301H85.4199V49.7321Z" fill="#F0F0F0"/>
<path d="M85.4199 50.568H84.9219V51.066H85.4199V50.568Z" fill="#F0F0F0"/>
<path d="M85.4199 53.076H84.9219V53.574H85.4199V53.076Z" fill="#F0F0F0"/>
<path d="M85.4199 53.912H84.9219V54.41H85.4199V53.912Z" fill="#F0F0F0"/>
<path d="M84.6279 48.062H84.1299V48.56H84.6279V48.062Z" fill="#F0F0F0"/>
<path d="M84.6279 48.8979H84.1299V49.3959H84.6279V48.8979Z" fill="#F0F0F0"/>
<path d="M84.6279 49.7321H84.1299V50.2301H84.6279V49.7321Z" fill="#F0F0F0"/>
<path d="M84.6279 50.568H84.1299V51.066H84.6279V50.568Z" fill="#F0F0F0"/>
<path d="M84.6279 51.4041H84.1299V51.9021H84.6279V51.4041Z" fill="#F0F0F0"/>
<path d="M84.6279 53.076H84.1299V53.574H84.6279V53.076Z" fill="#F0F0F0"/>
<path d="M84.6279 53.912H84.1299V54.41H84.6279V53.912Z" fill="#F0F0F0"/>
<path d="M83.8359 44.718H83.3379V45.216H83.8359V44.718Z" fill="#F0F0F0"/>
<path d="M83.8359 45.554H83.3379V46.052H83.8359V45.554Z" fill="#F0F0F0"/>
<path d="M83.8359 46.39H83.3379V46.888H83.8359V46.39Z" fill="#F0F0F0"/>
<path d="M83.8359 47.226H83.3379V47.724H83.8359V47.226Z" fill="#F0F0F0"/>
<path d="M83.8359 48.062H83.3379V48.56H83.8359V48.062Z" fill="#F0F0F0"/>
<path d="M83.8359 48.8979H83.3379V49.3959H83.8359V48.8979Z" fill="#F0F0F0"/>
<path d="M83.8359 49.7321H83.3379V50.2301H83.8359V49.7321Z" fill="#F0F0F0"/>
<path d="M83.8359 50.568H83.3379V51.066H83.8359V50.568Z" fill="#F0F0F0"/>
<path d="M83.8359 51.4041H83.3379V51.9021H83.8359V51.4041Z" fill="#F0F0F0"/>
<path d="M83.8359 52.24H83.3379V52.738H83.8359V52.24Z" fill="#F0F0F0"/>
<path d="M83.8359 53.912H83.3379V54.41H83.8359V53.912Z" fill="#F0F0F0"/>
<path d="M83.0439 44.718H82.5459V45.216H83.0439V44.718Z" fill="#F0F0F0"/>
<path d="M83.0439 45.554H82.5459V46.052H83.0439V45.554Z" fill="#F0F0F0"/>
<path d="M83.0439 46.39H82.5459V46.888H83.0439V46.39Z" fill="#F0F0F0"/>
<path d="M83.0439 47.226H82.5459V47.724H83.0439V47.226Z" fill="#F0F0F0"/>
<path d="M83.0439 48.062H82.5459V48.56H83.0439V48.062Z" fill="#F0F0F0"/>
<path d="M83.0439 48.8979H82.5459V49.3959H83.0439V48.8979Z" fill="#F0F0F0"/>
<path d="M83.0439 49.7321H82.5459V50.2301H83.0439V49.7321Z" fill="#F0F0F0"/>
<path d="M83.0439 57.256H82.5459V57.754H83.0439V57.256Z" fill="#F0F0F0"/>
<path d="M82.2519 44.718H81.7539V45.216H82.2519V44.718Z" fill="#F0F0F0"/>
<path d="M82.2519 45.554H81.7539V46.052H82.2519V45.554Z" fill="#F0F0F0"/>
<path d="M82.2519 46.39H81.7539V46.888H82.2519V46.39Z" fill="#F0F0F0"/>
<path d="M82.2519 47.226H81.7539V47.724H82.2519V47.226Z" fill="#F0F0F0"/>
<path d="M82.2519 48.062H81.7539V48.56H82.2519V48.062Z" fill="#F0F0F0"/>
<path d="M82.2519 48.8979H81.7539V49.3959H82.2519V48.8979Z" fill="#F0F0F0"/>
<path d="M82.2519 49.7321H81.7539V50.2301H82.2519V49.7321Z" fill="#F0F0F0"/>
<path d="M82.2519 50.568H81.7539V51.066H82.2519V50.568Z" fill="#F0F0F0"/>
<path d="M82.2519 55.584H81.7539V56.082H82.2519V55.584Z" fill="#F0F0F0"/>
<path d="M82.2519 56.42H81.7539V56.918H82.2519V56.42Z" fill="#F0F0F0"/>
<path d="M82.2519 57.256H81.7539V57.754H82.2519V57.256Z" fill="#F0F0F0"/>
<path d="M82.2519 58.09H81.7539V58.588H82.2519V58.09Z" fill="#F0F0F0"/>
<path d="M82.2519 61.434H81.7539V61.932H82.2519V61.434Z" fill="#F0F0F0"/>
<path d="M81.4599 44.718H80.9619V45.216H81.4599V44.718Z" fill="#F0F0F0"/>
<path d="M81.4599 45.554H80.9619V46.052H81.4599V45.554Z" fill="#F0F0F0"/>
<path d="M81.4599 46.39H80.9619V46.888H81.4599V46.39Z" fill="#F0F0F0"/>
<path d="M81.4599 47.226H80.9619V47.724H81.4599V47.226Z" fill="#F0F0F0"/>
<path d="M81.4599 48.062H80.9619V48.56H81.4599V48.062Z" fill="#F0F0F0"/>
<path d="M81.4599 48.8979H80.9619V49.3959H81.4599V48.8979Z" fill="#F0F0F0"/>
<path d="M81.4599 49.7321H80.9619V50.2301H81.4599V49.7321Z" fill="#F0F0F0"/>
<path d="M81.4599 50.568H80.9619V51.066H81.4599V50.568Z" fill="#F0F0F0"/>
<path d="M81.4599 51.4041H80.9619V51.9021H81.4599V51.4041Z" fill="#F0F0F0"/>
<path d="M81.4599 52.24H80.9619V52.738H81.4599V52.24Z" fill="#F0F0F0"/>
<path d="M81.4599 54.748H80.9619V55.2461H81.4599V54.748Z" fill="#F0F0F0"/>
<path d="M81.4599 55.584H80.9619V56.082H81.4599V55.584Z" fill="#F0F0F0"/>
<path d="M81.4599 56.42H80.9619V56.918H81.4599V56.42Z" fill="#F0F0F0"/>
<path d="M81.4599 57.256H80.9619V57.754H81.4599V57.256Z" fill="#F0F0F0"/>
<path d="M81.4599 58.09H80.9619V58.588H81.4599V58.09Z" fill="#F0F0F0"/>
<path d="M81.4599 61.434H80.9619V61.932H81.4599V61.434Z" fill="#F0F0F0"/>
<path d="M80.6679 44.718H80.1699V45.216H80.6679V44.718Z" fill="#F0F0F0"/>
<path d="M80.6679 45.554H80.1699V46.052H80.6679V45.554Z" fill="#F0F0F0"/>
<path d="M80.6679 46.39H80.1699V46.888H80.6679V46.39Z" fill="#F0F0F0"/>
<path d="M80.6679 47.226H80.1699V47.724H80.6679V47.226Z" fill="#F0F0F0"/>
<path d="M80.6679 48.062H80.1699V48.56H80.6679V48.062Z" fill="#F0F0F0"/>
<path d="M80.6679 48.8979H80.1699V49.3959H80.6679V48.8979Z" fill="#F0F0F0"/>
<path d="M80.6679 49.7321H80.1699V50.2301H80.6679V49.7321Z" fill="#F0F0F0"/>
<path d="M80.6679 50.568H80.1699V51.066H80.6679V50.568Z" fill="#F0F0F0"/>
<path d="M80.6679 51.4041H80.1699V51.9021H80.6679V51.4041Z" fill="#F0F0F0"/>
<path d="M80.6679 52.24H80.1699V52.738H80.6679V52.24Z" fill="#F0F0F0"/>
<path d="M80.6679 53.076H80.1699V53.574H80.6679V53.076Z" fill="#F0F0F0"/>
<path d="M80.6679 53.912H80.1699V54.41H80.6679V53.912Z" fill="#F0F0F0"/>
<path d="M80.6679 54.748H80.1699V55.2461H80.6679V54.748Z" fill="#F0F0F0"/>
<path d="M80.6679 55.584H80.1699V56.082H80.6679V55.584Z" fill="#F0F0F0"/>
<path d="M80.6679 56.42H80.1699V56.918H80.6679V56.42Z" fill="#F0F0F0"/>
<path d="M80.6679 57.256H80.1699V57.754H80.6679V57.256Z" fill="#F0F0F0"/>
<path d="M80.6679 58.09H80.1699V58.588H80.6679V58.09Z" fill="#F0F0F0"/>
<path d="M80.6679 58.926H80.1699V59.424H80.6679V58.926Z" fill="#F0F0F0"/>
<path d="M79.8759 44.718H79.3779V45.216H79.8759V44.718Z" fill="#F0F0F0"/>
<path d="M79.8759 45.554H79.3779V46.052H79.8759V45.554Z" fill="#F0F0F0"/>
<path d="M79.8759 46.39H79.3779V46.888H79.8759V46.39Z" fill="#F0F0F0"/>
<path d="M79.8759 47.226H79.3779V47.724H79.8759V47.226Z" fill="#F0F0F0"/>
<path d="M79.8759 48.062H79.3779V48.56H79.8759V48.062Z" fill="#F0F0F0"/>
<path d="M79.8759 48.8979H79.3779V49.3959H79.8759V48.8979Z" fill="#F0F0F0"/>
<path d="M79.8759 49.7321H79.3779V50.2301H79.8759V49.7321Z" fill="#F0F0F0"/>
<path d="M79.8759 50.568H79.3779V51.066H79.8759V50.568Z" fill="#F0F0F0"/>
<path d="M79.8759 51.4041H79.3779V51.9021H79.8759V51.4041Z" fill="#F0F0F0"/>
<path d="M79.8759 52.24H79.3779V52.738H79.8759V52.24Z" fill="#F0F0F0"/>
<path d="M79.8759 54.748H79.3779V55.2461H79.8759V54.748Z" fill="#F0F0F0"/>
<path d="M79.8759 55.584H79.3779V56.082H79.8759V55.584Z" fill="#F0F0F0"/>
<path d="M79.8759 56.42H79.3779V56.918H79.8759V56.42Z" fill="#F0F0F0"/>
<path d="M79.8759 57.256H79.3779V57.754H79.8759V57.256Z" fill="#F0F0F0"/>
<path d="M79.0859 44.718H78.5879V45.216H79.0859V44.718Z" fill="#F0F0F0"/>
<path d="M79.0859 45.554H78.5879V46.052H79.0859V45.554Z" fill="#F0F0F0"/>
<path d="M79.0859 46.39H78.5879V46.888H79.0859V46.39Z" fill="#F0F0F0"/>
<path d="M79.0859 47.226H78.5879V47.724H79.0859V47.226Z" fill="#F0F0F0"/>
<path d="M79.0859 48.062H78.5879V48.56H79.0859V48.062Z" fill="#F0F0F0"/>
<path d="M79.0859 48.8979H78.5879V49.3959H79.0859V48.8979Z" fill="#F0F0F0"/>
<path d="M79.0859 49.7321H78.5879V50.2301H79.0859V49.7321Z" fill="#F0F0F0"/>
<path d="M79.0859 50.568H78.5879V51.066H79.0859V50.568Z" fill="#F0F0F0"/>
<path d="M79.0859 51.4041H78.5879V51.9021H79.0859V51.4041Z" fill="#F0F0F0"/>
<path d="M79.0859 52.24H78.5879V52.738H79.0859V52.24Z" fill="#F0F0F0"/>
<path d="M79.0859 54.748H78.5879V55.2461H79.0859V54.748Z" fill="#F0F0F0"/>
<path d="M79.0859 55.584H78.5879V56.082H79.0859V55.584Z" fill="#F0F0F0"/>
<path d="M79.0859 56.42H78.5879V56.918H79.0859V56.42Z" fill="#F0F0F0"/>
<path d="M70.1699 42.548H69.6719V43.046H70.1699V42.548Z" fill="#F0F0F0"/>
<path d="M70.1699 43.384H69.6719V43.882H70.1699V43.384Z" fill="#F0F0F0"/>
<path d="M70.1699 44.22H69.6719V44.718H70.1699V44.22Z" fill="#F0F0F0"/>
<path d="M70.1699 45.056H69.6719V45.554H70.1699V45.056Z" fill="#F0F0F0"/>
<path d="M70.1699 45.892H69.6719V46.39H70.1699V45.892Z" fill="#F0F0F0"/>
<path d="M70.1699 46.728H69.6719V47.226H70.1699V46.728Z" fill="#F0F0F0"/>
<path d="M70.1699 47.562H69.6719V48.06H70.1699V47.562Z" fill="#F0F0F0"/>
<path d="M70.1699 48.3979H69.6719V48.8959H70.1699V48.3979Z" fill="#F0F0F0"/>
<path d="M70.1699 50.906H69.6719V51.404H70.1699V50.906Z" fill="#F0F0F0"/>
<path d="M70.1699 51.7419H69.6719V52.2399H70.1699V51.7419Z" fill="#F0F0F0"/>
<path d="M69.3779 42.548H68.8799V43.046H69.3779V42.548Z" fill="#F0F0F0"/>
<path d="M69.3779 43.384H68.8799V43.882H69.3779V43.384Z" fill="#F0F0F0"/>
<path d="M69.3779 44.22H68.8799V44.718H69.3779V44.22Z" fill="#F0F0F0"/>
<path d="M69.3779 45.056H68.8799V45.554H69.3779V45.056Z" fill="#F0F0F0"/>
<path d="M69.3779 45.892H68.8799V46.39H69.3779V45.892Z" fill="#F0F0F0"/>
<path d="M69.3779 46.728H68.8799V47.226H69.3779V46.728Z" fill="#F0F0F0"/>
<path d="M69.3779 47.562H68.8799V48.06H69.3779V47.562Z" fill="#F0F0F0"/>
<path d="M69.3779 48.3979H68.8799V48.8959H69.3779V48.3979Z" fill="#F0F0F0"/>
<path d="M69.3779 51.7419H68.8799V52.2399H69.3779V51.7419Z" fill="#F0F0F0"/>
<path d="M68.5859 42.548H68.0879V43.046H68.5859V42.548Z" fill="#F0F0F0"/>
<path d="M68.5859 43.384H68.0879V43.882H68.5859V43.384Z" fill="#F0F0F0"/>
<path d="M68.5859 44.22H68.0879V44.718H68.5859V44.22Z" fill="#F0F0F0"/>
<path d="M68.5859 45.056H68.0879V45.554H68.5859V45.056Z" fill="#F0F0F0"/>
<path d="M68.5859 45.892H68.0879V46.39H68.5859V45.892Z" fill="#F0F0F0"/>
<path d="M68.5859 46.728H68.0879V47.226H68.5859V46.728Z" fill="#F0F0F0"/>
<path d="M68.5859 47.562H68.0879V48.06H68.5859V47.562Z" fill="#F0F0F0"/>
<path d="M68.5859 48.3979H68.0879V48.8959H68.5859V48.3979Z" fill="#F0F0F0"/>
<path d="M67.7939 42.548H67.2959V43.046H67.7939V42.548Z" fill="#F0F0F0"/>
<path d="M67.7939 43.384H67.2959V43.882H67.7939V43.384Z" fill="#F0F0F0"/>
<path d="M67.7939 44.22H67.2959V44.718H67.7939V44.22Z" fill="#F0F0F0"/>
<path d="M67.7939 45.056H67.2959V45.554H67.7939V45.056Z" fill="#F0F0F0"/>
<path d="M67.7939 45.892H67.2959V46.39H67.7939V45.892Z" fill="#F0F0F0"/>
<path d="M67.7939 46.728H67.2959V47.226H67.7939V46.728Z" fill="#F0F0F0"/>
<path d="M67.7939 48.3979H67.2959V48.8959H67.7939V48.3979Z" fill="#F0F0F0"/>
<path d="M67.7939 49.234H67.2959V49.732H67.7939V49.234Z" fill="#F0F0F0"/>
<path d="M67.7939 51.7419H67.2959V52.2399H67.7939V51.7419Z" fill="#F0F0F0"/>
<path d="M67.7939 52.578H67.2959V53.076H67.7939V52.578Z" fill="#F0F0F0"/>
<path d="M67.7939 53.4141H67.2959V53.9121H67.7939V53.4141Z" fill="#F0F0F0"/>
<path d="M67.7939 54.25H67.2959V54.748H67.7939V54.25Z" fill="#F0F0F0"/>
<path d="M67.7939 55.0859H67.2959V55.5839H67.7939V55.0859Z" fill="#F0F0F0"/>
<path d="M67.7939 55.92H67.2959V56.418H67.7939V55.92Z" fill="#F0F0F0"/>
<path d="M67.7939 56.756H67.2959V57.254H67.7939V56.756Z" fill="#F0F0F0"/>
<path d="M67.0019 42.548H66.5039V43.046H67.0019V42.548Z" fill="#F0F0F0"/>
<path d="M67.0019 43.384H66.5039V43.882H67.0019V43.384Z" fill="#F0F0F0"/>
<path d="M67.0019 44.22H66.5039V44.718H67.0019V44.22Z" fill="#F0F0F0"/>
<path d="M67.0019 45.056H66.5039V45.554H67.0019V45.056Z" fill="#F0F0F0"/>
<path d="M67.0019 45.892H66.5039V46.39H67.0019V45.892Z" fill="#F0F0F0"/>
<path d="M67.0019 46.728H66.5039V47.226H67.0019V46.728Z" fill="#F0F0F0"/>
<path d="M67.0019 49.234H66.5039V49.732H67.0019V49.234Z" fill="#F0F0F0"/>
<path d="M67.0019 50.0699H66.5039V50.5679H67.0019V50.0699Z" fill="#F0F0F0"/>
<path d="M67.0019 50.906H66.5039V51.404H67.0019V50.906Z" fill="#F0F0F0"/>
<path d="M67.0019 51.7419H66.5039V52.2399H67.0019V51.7419Z" fill="#F0F0F0"/>
<path d="M67.0019 52.578H66.5039V53.076H67.0019V52.578Z" fill="#F0F0F0"/>
<path d="M67.0019 53.4141H66.5039V53.9121H67.0019V53.4141Z" fill="#F0F0F0"/>
<path d="M67.0019 54.25H66.5039V54.748H67.0019V54.25Z" fill="#F0F0F0"/>
<path d="M67.0019 55.0859H66.5039V55.5839H67.0019V55.0859Z" fill="#F0F0F0"/>
<path d="M67.0019 55.92H66.5039V56.418H67.0019V55.92Z" fill="#F0F0F0"/>
<path d="M67.0019 56.756H66.5039V57.254H67.0019V56.756Z" fill="#F0F0F0"/>
<path d="M67.0019 57.592H66.5039V58.09H67.0019V57.592Z" fill="#F0F0F0"/>
<path d="M67.0019 59.264H66.5039V59.762H67.0019V59.264Z" fill="#F0F0F0"/>
<path d="M66.2099 42.548H65.7119V43.046H66.2099V42.548Z" fill="#F0F0F0"/>
<path d="M66.2099 43.384H65.7119V43.882H66.2099V43.384Z" fill="#F0F0F0"/>
<path d="M66.2099 44.22H65.7119V44.718H66.2099V44.22Z" fill="#F0F0F0"/>
<path d="M66.2099 45.056H65.7119V45.554H66.2099V45.056Z" fill="#F0F0F0"/>
<path d="M66.2099 45.892H65.7119V46.39H66.2099V45.892Z" fill="#F0F0F0"/>
<path d="M66.2099 46.728H65.7119V47.226H66.2099V46.728Z" fill="#F0F0F0"/>
<path d="M66.2099 49.234H65.7119V49.732H66.2099V49.234Z" fill="#F0F0F0"/>
<path d="M66.2099 50.0699H65.7119V50.5679H66.2099V50.0699Z" fill="#F0F0F0"/>
<path d="M66.2099 50.906H65.7119V51.404H66.2099V50.906Z" fill="#F0F0F0"/>
<path d="M66.2099 51.7419H65.7119V52.2399H66.2099V51.7419Z" fill="#F0F0F0"/>
<path d="M66.2099 54.25H65.7119V54.748H66.2099V54.25Z" fill="#F0F0F0"/>
<path d="M66.2099 55.0859H65.7119V55.5839H66.2099V55.0859Z" fill="#F0F0F0"/>
<path d="M66.2099 55.92H65.7119V56.418H66.2099V55.92Z" fill="#F0F0F0"/>
<path d="M66.2099 56.756H65.7119V57.254H66.2099V56.756Z" fill="#F0F0F0"/>
<path d="M66.2099 57.592H65.7119V58.09H66.2099V57.592Z" fill="#F0F0F0"/>
<path d="M66.2099 59.264H65.7119V59.762H66.2099V59.264Z" fill="#F0F0F0"/>
<path d="M66.2099 60.1H65.7119V60.598H66.2099V60.1Z" fill="#F0F0F0"/>
<path d="M59.0258 50.3199H58.5278V50.8179H59.0258V50.3199Z" fill="#F0F0F0"/>
<path d="M59.0258 51.156H58.5278V51.654H59.0258V51.156Z" fill="#F0F0F0"/>
<path d="M59.0258 51.9919H58.5278V52.4899H59.0258V51.9919Z" fill="#F0F0F0"/>
<path d="M59.0258 52.826H58.5278V53.324H59.0258V52.826Z" fill="#F0F0F0"/>
<path d="M59.0258 53.662H58.5278V54.16H59.0258V53.662Z" fill="#F0F0F0"/>
<path d="M59.0258 54.498H58.5278V54.9961H59.0258V54.498Z" fill="#F0F0F0"/>
<path d="M59.0258 55.334H58.5278V55.832H59.0258V55.334Z" fill="#F0F0F0"/>
<path d="M59.0258 57.842H58.5278V58.34H59.0258V57.842Z" fill="#F0F0F0"/>
<path d="M59.0258 58.678H58.5278V59.176H59.0258V58.678Z" fill="#F0F0F0"/>
<path d="M59.0258 59.514H58.5278V60.012H59.0258V59.514Z" fill="#F0F0F0"/>
<path d="M58.2338 50.3199H57.7358V50.8179H58.2338V50.3199Z" fill="#F0F0F0"/>
<path d="M58.2338 51.156H57.7358V51.654H58.2338V51.156Z" fill="#F0F0F0"/>
<path d="M58.2338 51.9919H57.7358V52.4899H58.2338V51.9919Z" fill="#F0F0F0"/>
<path d="M58.2338 52.826H57.7358V53.324H58.2338V52.826Z" fill="#F0F0F0"/>
<path d="M58.2338 53.662H57.7358V54.16H58.2338V53.662Z" fill="#F0F0F0"/>
<path d="M58.2338 54.498H57.7358V54.9961H58.2338V54.498Z" fill="#F0F0F0"/>
<path d="M58.2338 55.334H57.7358V55.832H58.2338V55.334Z" fill="#F0F0F0"/>
<path d="M57.4418 50.3199H56.9438V50.8179H57.4418V50.3199Z" fill="#F0F0F0"/>
<path d="M57.4418 51.156H56.9438V51.654H57.4418V51.156Z" fill="#F0F0F0"/>
<path d="M57.4418 51.9919H56.9438V52.4899H57.4418V51.9919Z" fill="#F0F0F0"/>
<path d="M57.4418 52.826H56.9438V53.324H57.4418V52.826Z" fill="#F0F0F0"/>
<path d="M57.4418 53.662H56.9438V54.16H57.4418V53.662Z" fill="#F0F0F0"/>
<path d="M57.4418 54.498H56.9438V54.9961H57.4418V54.498Z" fill="#F0F0F0"/>
<path d="M57.4418 55.334H56.9438V55.832H57.4418V55.334Z" fill="#F0F0F0"/>
<path d="M56.6499 50.3199H56.1519V50.8179H56.6499V50.3199Z" fill="#F0F0F0"/>
<path d="M56.6499 51.156H56.1519V51.654H56.6499V51.156Z" fill="#F0F0F0"/>
<path d="M56.6499 51.9919H56.1519V52.4899H56.6499V51.9919Z" fill="#F0F0F0"/>
<path d="M56.6499 52.826H56.1519V53.324H56.6499V52.826Z" fill="#F0F0F0"/>
<path d="M56.6499 53.662H56.1519V54.16H56.6499V53.662Z" fill="#F0F0F0"/>
<path d="M56.6499 54.498H56.1519V54.9961H56.6499V54.498Z" fill="#F0F0F0"/>
<path d="M56.6499 55.334H56.1519V55.832H56.6499V55.334Z" fill="#F0F0F0"/>
<path d="M56.6499 56.17H56.1519V56.668H56.6499V56.17Z" fill="#F0F0F0"/>
<path d="M56.6499 57.006H56.1519V57.504H56.6499V57.006Z" fill="#F0F0F0"/>
<path d="M56.6499 57.842H56.1519V58.34H56.6499V57.842Z" fill="#F0F0F0"/>
<path d="M56.6499 58.678H56.1519V59.176H56.6499V58.678Z" fill="#F0F0F0"/>
<path d="M55.8579 50.3199H55.3599V50.8179H55.8579V50.3199Z" fill="#F0F0F0"/>
<path d="M55.8579 51.156H55.3599V51.654H55.8579V51.156Z" fill="#F0F0F0"/>
<path d="M55.8579 51.9919H55.3599V52.4899H55.8579V51.9919Z" fill="#F0F0F0"/>
<path d="M55.8579 52.826H55.3599V53.324H55.8579V52.826Z" fill="#F0F0F0"/>
<path d="M55.8579 53.662H55.3599V54.16H55.8579V53.662Z" fill="#F0F0F0"/>
<path d="M55.8579 54.498H55.3599V54.9961H55.8579V54.498Z" fill="#F0F0F0"/>
<path d="M55.8579 55.334H55.3599V55.832H55.8579V55.334Z" fill="#F0F0F0"/>
<path d="M55.8579 56.17H55.3599V56.668H55.8579V56.17Z" fill="#F0F0F0"/>
<path d="M55.8579 57.006H55.3599V57.504H55.8579V57.006Z" fill="#F0F0F0"/>
<path d="M55.8579 57.842H55.3599V58.34H55.8579V57.842Z" fill="#F0F0F0"/>
<path d="M55.8579 58.678H55.3599V59.176H55.8579V58.678Z" fill="#F0F0F0"/>
<path d="M55.8579 59.514H55.3599V60.012H55.8579V59.514Z" fill="#F0F0F0"/>
<path d="M55.8579 62.02H55.3599V62.518H55.8579V62.02Z" fill="#F0F0F0"/>
<path d="M55.8579 62.856H55.3599V63.354H55.8579V62.856Z" fill="#F0F0F0"/>
<path d="M55.0659 50.3199H54.5679V50.8179H55.0659V50.3199Z" fill="#F0F0F0"/>
<path d="M55.0659 51.156H54.5679V51.654H55.0659V51.156Z" fill="#F0F0F0"/>
<path d="M55.0659 51.9919H54.5679V52.4899H55.0659V51.9919Z" fill="#F0F0F0"/>
<path d="M55.0659 54.498H54.5679V54.9961H55.0659V54.498Z" fill="#F0F0F0"/>
<path d="M55.0659 55.334H54.5679V55.832H55.0659V55.334Z" fill="#F0F0F0"/>
<path d="M55.0659 56.17H54.5679V56.668H55.0659V56.17Z" fill="#F0F0F0"/>
<path d="M55.0659 57.006H54.5679V57.504H55.0659V57.006Z" fill="#F0F0F0"/>
<path d="M55.0659 57.842H54.5679V58.34H55.0659V57.842Z" fill="#F0F0F0"/>
<path d="M55.0659 58.678H54.5679V59.176H55.0659V58.678Z" fill="#F0F0F0"/>
<path d="M55.0659 59.514H54.5679V60.012H55.0659V59.514Z" fill="#F0F0F0"/>
<path d="M55.0659 62.02H54.5679V62.518H55.0659V62.02Z" fill="#F0F0F0"/>
<path d="M55.0659 62.856H54.5679V63.354H55.0659V62.856Z" fill="#F0F0F0"/>
<path d="M55.0659 63.692H54.5679V64.19H55.0659V63.692Z" fill="#F0F0F0"/>
<path d="M46.768 45.304H46.27V45.802H46.768V45.304Z" fill="#F0F0F0"/>
<path d="M46.768 46.14H46.27V46.638H46.768V46.14Z" fill="#F0F0F0"/>
<path d="M46.768 46.976H46.27V47.474H46.768V46.976Z" fill="#F0F0F0"/>
<path d="M46.768 47.812H46.27V48.31H46.768V47.812Z" fill="#F0F0F0"/>
<path d="M46.768 48.6479H46.27V49.1459H46.768V48.6479Z" fill="#F0F0F0"/>
<path d="M46.768 49.484H46.27V49.982H46.768V49.484Z" fill="#F0F0F0"/>
<path d="M46.768 50.3199H46.27V50.8179H46.768V50.3199Z" fill="#F0F0F0"/>
<path d="M46.768 51.156H46.27V51.654H46.768V51.156Z" fill="#F0F0F0"/>
<path d="M46.768 51.9919H46.27V52.4899H46.768V51.9919Z" fill="#F0F0F0"/>
<path d="M46.768 52.826H46.27V53.324H46.768V52.826Z" fill="#F0F0F0"/>
<path d="M46.768 53.662H46.27V54.16H46.768V53.662Z" fill="#F0F0F0"/>
<path d="M46.768 54.498H46.27V54.9961H46.768V54.498Z" fill="#F0F0F0"/>
<path d="M46.768 55.334H46.27V55.832H46.768V55.334Z" fill="#F0F0F0"/>
<path d="M46.768 56.17H46.27V56.668H46.768V56.17Z" fill="#F0F0F0"/>
<path d="M46.768 57.006H46.27V57.504H46.768V57.006Z" fill="#F0F0F0"/>
<path d="M46.768 57.842H46.27V58.34H46.768V57.842Z" fill="#F0F0F0"/>
<path d="M46.768 58.678H46.27V59.176H46.768V58.678Z" fill="#F0F0F0"/>
<path d="M46.768 59.514H46.27V60.012H46.768V59.514Z" fill="#F0F0F0"/>
<path d="M46.768 60.35H46.27V60.848H46.768V60.35Z" fill="#F0F0F0"/>
<path d="M46.768 61.184H46.27V61.682H46.768V61.184Z" fill="#F0F0F0"/>
<path d="M46.768 62.02H46.27V62.518H46.768V62.02Z" fill="#F0F0F0"/>
<path d="M46.768 62.856H46.27V63.354H46.768V62.856Z" fill="#F0F0F0"/>
<path d="M46.768 63.692H46.27V64.19H46.768V63.692Z" fill="#F0F0F0"/>
<path d="M45.976 45.304H45.478V45.802H45.976V45.304Z" fill="#F0F0F0"/>
<path d="M45.976 46.14H45.478V46.638H45.976V46.14Z" fill="#F0F0F0"/>
<path d="M45.976 46.976H45.478V47.474H45.976V46.976Z" fill="#F0F0F0"/>
<path d="M45.976 47.812H45.478V48.31H45.976V47.812Z" fill="#F0F0F0"/>
<path d="M45.976 48.6479H45.478V49.1459H45.976V48.6479Z" fill="#F0F0F0"/>
<path d="M45.976 49.484H45.478V49.982H45.976V49.484Z" fill="#F0F0F0"/>
<path d="M45.976 50.3199H45.478V50.8179H45.976V50.3199Z" fill="#F0F0F0"/>
<path d="M45.976 51.156H45.478V51.654H45.976V51.156Z" fill="#F0F0F0"/>
<path d="M45.976 51.9919H45.478V52.4899H45.976V51.9919Z" fill="#F0F0F0"/>
<path d="M45.976 52.826H45.478V53.324H45.976V52.826Z" fill="#F0F0F0"/>
<path d="M45.976 53.662H45.478V54.16H45.976V53.662Z" fill="#F0F0F0"/>
<path d="M45.976 54.498H45.478V54.9961H45.976V54.498Z" fill="#F0F0F0"/>
<path d="M45.976 55.334H45.478V55.832H45.976V55.334Z" fill="#F0F0F0"/>
<path d="M45.976 56.17H45.478V56.668H45.976V56.17Z" fill="#F0F0F0"/>
<path d="M45.976 57.006H45.478V57.504H45.976V57.006Z" fill="#F0F0F0"/>
<path d="M45.976 57.842H45.478V58.34H45.976V57.842Z" fill="#F0F0F0"/>
<path d="M45.976 58.678H45.478V59.176H45.976V58.678Z" fill="#F0F0F0"/>
<path d="M45.976 59.514H45.478V60.012H45.976V59.514Z" fill="#F0F0F0"/>
<path d="M45.976 60.35H45.478V60.848H45.976V60.35Z" fill="#F0F0F0"/>
<path d="M45.184 45.304H44.686V45.802H45.184V45.304Z" fill="#F0F0F0"/>
<path d="M45.184 46.14H44.686V46.638H45.184V46.14Z" fill="#F0F0F0"/>
<path d="M45.184 46.976H44.686V47.474H45.184V46.976Z" fill="#F0F0F0"/>
<path d="M45.184 47.812H44.686V48.31H45.184V47.812Z" fill="#F0F0F0"/>
<path d="M45.184 48.6479H44.686V49.1459H45.184V48.6479Z" fill="#F0F0F0"/>
<path d="M45.184 49.484H44.686V49.982H45.184V49.484Z" fill="#F0F0F0"/>
<path d="M45.184 50.3199H44.686V50.8179H45.184V50.3199Z" fill="#F0F0F0"/>
<path d="M45.184 51.156H44.686V51.654H45.184V51.156Z" fill="#F0F0F0"/>
<path d="M45.184 51.9919H44.686V52.4899H45.184V51.9919Z" fill="#F0F0F0"/>
<path d="M45.184 52.826H44.686V53.324H45.184V52.826Z" fill="#F0F0F0"/>
<path d="M45.184 53.662H44.686V54.16H45.184V53.662Z" fill="#F0F0F0"/>
<path d="M45.184 54.498H44.686V54.9961H45.184V54.498Z" fill="#F0F0F0"/>
<path d="M45.184 55.334H44.686V55.832H45.184V55.334Z" fill="#F0F0F0"/>
<path d="M45.184 56.17H44.686V56.668H45.184V56.17Z" fill="#F0F0F0"/>
<path d="M45.184 57.006H44.686V57.504H45.184V57.006Z" fill="#F0F0F0"/>
<path d="M45.184 57.842H44.686V58.34H45.184V57.842Z" fill="#F0F0F0"/>
<path d="M45.184 58.678H44.686V59.176H45.184V58.678Z" fill="#F0F0F0"/>
<path d="M45.184 59.514H44.686V60.012H45.184V59.514Z" fill="#F0F0F0"/>
<path d="M45.184 60.35H44.686V60.848H45.184V60.35Z" fill="#F0F0F0"/>
<path d="M44.392 45.304H43.894V45.802H44.392V45.304Z" fill="#F0F0F0"/>
<path d="M44.392 46.14H43.894V46.638H44.392V46.14Z" fill="#F0F0F0"/>
<path d="M44.392 46.976H43.894V47.474H44.392V46.976Z" fill="#F0F0F0"/>
<path d="M44.392 47.812H43.894V48.31H44.392V47.812Z" fill="#F0F0F0"/>
<path d="M44.392 48.6479H43.894V49.1459H44.392V48.6479Z" fill="#F0F0F0"/>
<path d="M44.392 49.484H43.894V49.982H44.392V49.484Z" fill="#F0F0F0"/>
<path d="M44.392 50.3199H43.894V50.8179H44.392V50.3199Z" fill="#F0F0F0"/>
<path d="M44.392 51.156H43.894V51.654H44.392V51.156Z" fill="#F0F0F0"/>
<path d="M44.392 51.9919H43.894V52.4899H44.392V51.9919Z" fill="#F0F0F0"/>
<path d="M44.392 52.826H43.894V53.324H44.392V52.826Z" fill="#F0F0F0"/>
<path d="M44.392 53.662H43.894V54.16H44.392V53.662Z" fill="#F0F0F0"/>
<path d="M44.392 54.498H43.894V54.9961H44.392V54.498Z" fill="#F0F0F0"/>
<path d="M44.392 55.334H43.894V55.832H44.392V55.334Z" fill="#F0F0F0"/>
<path d="M44.392 56.17H43.894V56.668H44.392V56.17Z" fill="#F0F0F0"/>
<path d="M44.392 57.006H43.894V57.504H44.392V57.006Z" fill="#F0F0F0"/>
<path d="M43.6001 45.304H43.1021V45.802H43.6001V45.304Z" fill="#F0F0F0"/>
<path d="M43.6001 46.14H43.1021V46.638H43.6001V46.14Z" fill="#F0F0F0"/>
<path d="M43.6001 46.976H43.1021V47.474H43.6001V46.976Z" fill="#F0F0F0"/>
<path d="M43.6001 47.812H43.1021V48.31H43.6001V47.812Z" fill="#F0F0F0"/>
<path d="M43.6001 48.6479H43.1021V49.1459H43.6001V48.6479Z" fill="#F0F0F0"/>
<path d="M43.6001 49.484H43.1021V49.982H43.6001V49.484Z" fill="#F0F0F0"/>
<path d="M43.6001 50.3199H43.1021V50.8179H43.6001V50.3199Z" fill="#F0F0F0"/>
<path d="M43.6001 51.156H43.1021V51.654H43.6001V51.156Z" fill="#F0F0F0"/>
<path d="M43.6001 51.9919H43.1021V52.4899H43.6001V51.9919Z" fill="#F0F0F0"/>
<path d="M43.6001 52.826H43.1021V53.324H43.6001V52.826Z" fill="#F0F0F0"/>
<path d="M43.6001 53.662H43.1021V54.16H43.6001V53.662Z" fill="#F0F0F0"/>
<path d="M43.6001 54.498H43.1021V54.9961H43.6001V54.498Z" fill="#F0F0F0"/>
<path d="M43.6001 55.334H43.1021V55.832H43.6001V55.334Z" fill="#F0F0F0"/>
<path d="M42.8081 45.304H42.3101V45.802H42.8081V45.304Z" fill="#F0F0F0"/>
<path d="M42.8081 46.14H42.3101V46.638H42.8081V46.14Z" fill="#F0F0F0"/>
<path d="M42.8081 46.976H42.3101V47.474H42.8081V46.976Z" fill="#F0F0F0"/>
<path d="M42.8081 47.812H42.3101V48.31H42.8081V47.812Z" fill="#F0F0F0"/>
<path d="M42.8081 48.6479H42.3101V49.1459H42.8081V48.6479Z" fill="#F0F0F0"/>
<path d="M42.8081 49.484H42.3101V49.982H42.8081V49.484Z" fill="#F0F0F0"/>
<path d="M42.8081 50.3199H42.3101V50.8179H42.8081V50.3199Z" fill="#F0F0F0"/>
<path d="M42.8081 51.156H42.3101V51.654H42.8081V51.156Z" fill="#F0F0F0"/>
<path d="M42.8081 51.9919H42.3101V52.4899H42.8081V51.9919Z" fill="#F0F0F0"/>
<path d="M42.8081 52.826H42.3101V53.324H42.8081V52.826Z" fill="#F0F0F0"/>
<path d="M42.8081 53.662H42.3101V54.16H42.8081V53.662Z" fill="#F0F0F0"/>
<path d="M42.8081 54.498H42.3101V54.9961H42.8081V54.498Z" fill="#F0F0F0"/>
<path d="M89.0258 45.056H88.5278V45.554H89.0258V45.056Z" fill="#F0F0F0"/>
<path d="M89.0258 45.892H88.5278V46.39H89.0258V45.892Z" fill="#F0F0F0"/>
<path d="M89.0258 46.728H88.5278V47.226H89.0258V46.728Z" fill="#F0F0F0"/>
<path d="M89.0258 47.562H88.5278V48.06H89.0258V47.562Z" fill="#F0F0F0"/>
<path d="M89.0258 48.3979H88.5278V48.8959H89.0258V48.3979Z" fill="#F0F0F0"/>
<path d="M89.0258 49.234H88.5278V49.732H89.0258V49.234Z" fill="#F0F0F0"/>
<path d="M89.0258 50.0699H88.5278V50.5679H89.0258V50.0699Z" fill="#F0F0F0"/>
<path d="M89.0258 50.906H88.5278V51.404H89.0258V50.906Z" fill="#F0F0F0"/>
<path d="M89.0258 51.7419H88.5278V52.2399H89.0258V51.7419Z" fill="#F0F0F0"/>
<path d="M89.0258 52.578H88.5278V53.076H89.0258V52.578Z" fill="#F0F0F0"/>
<path d="M89.0258 53.4141H88.5278V53.9121H89.0258V53.4141Z" fill="#F0F0F0"/>
<path d="M89.0258 54.25H88.5278V54.748H89.0258V54.25Z" fill="#F0F0F0"/>
<path d="M89.0258 55.0859H88.5278V55.5839H89.0258V55.0859Z" fill="#F0F0F0"/>
<path d="M89.0258 55.92H88.5278V56.418H89.0258V55.92Z" fill="#F0F0F0"/>
<path d="M89.0258 56.756H88.5278V57.254H89.0258V56.756Z" fill="#F0F0F0"/>
<path d="M89.0258 57.592H88.5278V58.09H89.0258V57.592Z" fill="#F0F0F0"/>
<path d="M89.0258 58.428H88.5278V58.926H89.0258V58.428Z" fill="#F0F0F0"/>
<path d="M89.0258 60.1H88.5278V60.598H89.0258V60.1Z" fill="#F0F0F0"/>
<path d="M89.0258 60.936H88.5278V61.434H89.0258V60.936Z" fill="#F0F0F0"/>
<path d="M89.0258 61.772H88.5278V62.27H89.0258V61.772Z" fill="#F0F0F0"/>
<path d="M89.0258 62.608H88.5278V63.106H89.0258V62.608Z" fill="#F0F0F0"/>
<path d="M89.0258 63.442H88.5278V63.94H89.0258V63.442Z" fill="#F0F0F0"/>
<path d="M88.2338 45.056H87.7358V45.554H88.2338V45.056Z" fill="#F0F0F0"/>
<path d="M88.2338 45.892H87.7358V46.39H88.2338V45.892Z" fill="#F0F0F0"/>
<path d="M88.2338 46.728H87.7358V47.226H88.2338V46.728Z" fill="#F0F0F0"/>
<path d="M88.2338 47.562H87.7358V48.06H88.2338V47.562Z" fill="#F0F0F0"/>
<path d="M88.2338 48.3979H87.7358V48.8959H88.2338V48.3979Z" fill="#F0F0F0"/>
<path d="M88.2338 49.234H87.7358V49.732H88.2338V49.234Z" fill="#F0F0F0"/>
<path d="M88.2338 50.0699H87.7358V50.5679H88.2338V50.0699Z" fill="#F0F0F0"/>
<path d="M88.2338 50.906H87.7358V51.404H88.2338V50.906Z" fill="#F0F0F0"/>
<path d="M88.2338 51.7419H87.7358V52.2399H88.2338V51.7419Z" fill="#F0F0F0"/>
<path d="M88.2338 52.578H87.7358V53.076H88.2338V52.578Z" fill="#F0F0F0"/>
<path d="M88.2338 53.4141H87.7358V53.9121H88.2338V53.4141Z" fill="#F0F0F0"/>
<path d="M88.2338 54.25H87.7358V54.748H88.2338V54.25Z" fill="#F0F0F0"/>
<path d="M88.2338 55.0859H87.7358V55.5839H88.2338V55.0859Z" fill="#F0F0F0"/>
<path d="M88.2338 55.92H87.7358V56.418H88.2338V55.92Z" fill="#F0F0F0"/>
<path d="M88.2338 56.756H87.7358V57.254H88.2338V56.756Z" fill="#F0F0F0"/>
<path d="M88.2338 57.592H87.7358V58.09H88.2338V57.592Z" fill="#F0F0F0"/>
<path d="M88.2338 62.608H87.7358V63.106H88.2338V62.608Z" fill="#F0F0F0"/>
<path d="M88.2338 63.442H87.7358V63.94H88.2338V63.442Z" fill="#F0F0F0"/>
<path d="M87.4438 45.056H86.9458V45.554H87.4438V45.056Z" fill="#F0F0F0"/>
<path d="M87.4438 45.892H86.9458V46.39H87.4438V45.892Z" fill="#F0F0F0"/>
<path d="M87.4438 46.728H86.9458V47.226H87.4438V46.728Z" fill="#F0F0F0"/>
<path d="M87.4438 47.562H86.9458V48.06H87.4438V47.562Z" fill="#F0F0F0"/>
<path d="M87.4438 48.3979H86.9458V48.8959H87.4438V48.3979Z" fill="#F0F0F0"/>
<path d="M87.4438 49.234H86.9458V49.732H87.4438V49.234Z" fill="#F0F0F0"/>
<path d="M87.4438 50.0699H86.9458V50.5679H87.4438V50.0699Z" fill="#F0F0F0"/>
<path d="M87.4438 50.906H86.9458V51.404H87.4438V50.906Z" fill="#F0F0F0"/>
<path d="M87.4438 51.7419H86.9458V52.2399H87.4438V51.7419Z" fill="#F0F0F0"/>
<path d="M87.4438 52.578H86.9458V53.076H87.4438V52.578Z" fill="#F0F0F0"/>
<path d="M87.4438 53.4141H86.9458V53.9121H87.4438V53.4141Z" fill="#F0F0F0"/>
<path d="M87.4438 54.25H86.9458V54.748H87.4438V54.25Z" fill="#F0F0F0"/>
<path d="M87.4438 55.0859H86.9458V55.5839H87.4438V55.0859Z" fill="#F0F0F0"/>
<path d="M87.4438 55.92H86.9458V56.418H87.4438V55.92Z" fill="#F0F0F0"/>
<path d="M87.4438 56.756H86.9458V57.254H87.4438V56.756Z" fill="#F0F0F0"/>
<path d="M87.4438 57.592H86.9458V58.09H87.4438V57.592Z" fill="#F0F0F0"/>
<path d="M87.4438 59.264H86.9458V59.762H87.4438V59.264Z" fill="#F0F0F0"/>
<path d="M87.4438 60.1H86.9458V60.598H87.4438V60.1Z" fill="#F0F0F0"/>
<path d="M87.4438 60.936H86.9458V61.434H87.4438V60.936Z" fill="#F0F0F0"/>
<path d="M87.4438 61.772H86.9458V62.27H87.4438V61.772Z" fill="#F0F0F0"/>
<path d="M87.4438 63.442H86.9458V63.94H87.4438V63.442Z" fill="#F0F0F0"/>
<path d="M73.6298 50.906H73.1318V51.404H73.6298V50.906Z" fill="#F0F0F0"/>
<path d="M73.6298 51.7419H73.1318V52.2399H73.6298V51.7419Z" fill="#F0F0F0"/>
<path d="M73.6298 52.578H73.1318V53.076H73.6298V52.578Z" fill="#F0F0F0"/>
<path d="M73.6298 53.4141H73.1318V53.9121H73.6298V53.4141Z" fill="#F0F0F0"/>
<path d="M73.6298 54.25H73.1318V54.748H73.6298V54.25Z" fill="#F0F0F0"/>
<path d="M73.6298 55.0859H73.1318V55.5839H73.6298V55.0859Z" fill="#F0F0F0"/>
<path d="M73.6298 55.92H73.1318V56.418H73.6298V55.92Z" fill="#F0F0F0"/>
<path d="M73.6298 56.756H73.1318V57.254H73.6298V56.756Z" fill="#F0F0F0"/>
<path d="M73.6298 57.592H73.1318V58.09H73.6298V57.592Z" fill="#F0F0F0"/>
<path d="M73.6298 58.428H73.1318V58.926H73.6298V58.428Z" fill="#F0F0F0"/>
<path d="M73.6298 59.264H73.1318V59.762H73.6298V59.264Z" fill="#F0F0F0"/>
<path d="M73.6298 60.1H73.1318V60.598H73.6298V60.1Z" fill="#F0F0F0"/>
<path d="M73.6298 60.936H73.1318V61.434H73.6298V60.936Z" fill="#F0F0F0"/>
<path d="M73.6298 62.608H73.1318V63.106H73.6298V62.608Z" fill="#F0F0F0"/>
<path d="M73.6298 63.442H73.1318V63.94H73.6298V63.442Z" fill="#F0F0F0"/>
<path d="M73.6298 64.278H73.1318V64.776H73.6298V64.278Z" fill="#F0F0F0"/>
<path d="M73.6298 65.114H73.1318V65.612H73.6298V65.114Z" fill="#F0F0F0"/>
<path d="M73.6298 66.786H73.1318V67.284H73.6298V66.786Z" fill="#F0F0F0"/>
<path d="M73.6298 67.6219H73.1318V68.12H73.6298V67.6219Z" fill="#F0F0F0"/>
<path d="M73.6298 68.458H73.1318V68.956H73.6298V68.458Z" fill="#F0F0F0"/>
<path d="M72.8378 50.906H72.3398V51.404H72.8378V50.906Z" fill="#F0F0F0"/>
<path d="M72.8378 51.7419H72.3398V52.2399H72.8378V51.7419Z" fill="#F0F0F0"/>
<path d="M72.8378 52.578H72.3398V53.076H72.8378V52.578Z" fill="#F0F0F0"/>
<path d="M72.8378 53.4141H72.3398V53.9121H72.8378V53.4141Z" fill="#F0F0F0"/>
<path d="M72.8378 54.25H72.3398V54.748H72.8378V54.25Z" fill="#F0F0F0"/>
<path d="M72.8378 55.0859H72.3398V55.5839H72.8378V55.0859Z" fill="#F0F0F0"/>
<path d="M72.8378 55.92H72.3398V56.418H72.8378V55.92Z" fill="#F0F0F0"/>
<path d="M72.8378 56.756H72.3398V57.254H72.8378V56.756Z" fill="#F0F0F0"/>
<path d="M72.8378 57.592H72.3398V58.09H72.8378V57.592Z" fill="#F0F0F0"/>
<path d="M72.8378 58.428H72.3398V58.926H72.8378V58.428Z" fill="#F0F0F0"/>
<path d="M72.8378 59.264H72.3398V59.762H72.8378V59.264Z" fill="#F0F0F0"/>
<path d="M72.8378 60.1H72.3398V60.598H72.8378V60.1Z" fill="#F0F0F0"/>
<path d="M72.8378 60.936H72.3398V61.434H72.8378V60.936Z" fill="#F0F0F0"/>
<path d="M72.8378 63.442H72.3398V63.94H72.8378V63.442Z" fill="#F0F0F0"/>
<path d="M72.8378 64.278H72.3398V64.776H72.8378V64.278Z" fill="#F0F0F0"/>
<path d="M72.8378 65.95H72.3398V66.4479H72.8378V65.95Z" fill="#F0F0F0"/>
<path d="M72.8378 66.786H72.3398V67.284H72.8378V66.786Z" fill="#F0F0F0"/>
<path d="M72.8378 67.6219H72.3398V68.12H72.8378V67.6219Z" fill="#F0F0F0"/>
<path d="M72.8378 68.458H72.3398V68.956H72.8378V68.458Z" fill="#F0F0F0"/>
<path d="M72.0459 50.906H71.5479V51.404H72.0459V50.906Z" fill="#F0F0F0"/>
<path d="M72.0459 51.7419H71.5479V52.2399H72.0459V51.7419Z" fill="#F0F0F0"/>
<path d="M72.0459 52.578H71.5479V53.076H72.0459V52.578Z" fill="#F0F0F0"/>
<path d="M72.0459 53.4141H71.5479V53.9121H72.0459V53.4141Z" fill="#F0F0F0"/>
<path d="M72.0459 54.25H71.5479V54.748H72.0459V54.25Z" fill="#F0F0F0"/>
<path d="M72.0459 55.0859H71.5479V55.5839H72.0459V55.0859Z" fill="#F0F0F0"/>
<path d="M72.0459 55.92H71.5479V56.418H72.0459V55.92Z" fill="#F0F0F0"/>
<path d="M72.0459 56.756H71.5479V57.254H72.0459V56.756Z" fill="#F0F0F0"/>
<path d="M72.0459 57.592H71.5479V58.09H72.0459V57.592Z" fill="#F0F0F0"/>
<path d="M72.0459 58.428H71.5479V58.926H72.0459V58.428Z" fill="#F0F0F0"/>
<path d="M72.0459 59.264H71.5479V59.762H72.0459V59.264Z" fill="#F0F0F0"/>
<path d="M72.0459 60.1H71.5479V60.598H72.0459V60.1Z" fill="#F0F0F0"/>
<path d="M72.0459 60.936H71.5479V61.434H72.0459V60.936Z" fill="#F0F0F0"/>
<path d="M72.0459 61.772H71.5479V62.27H72.0459V61.772Z" fill="#F0F0F0"/>
<path d="M72.0459 63.442H71.5479V63.94H72.0459V63.442Z" fill="#F0F0F0"/>
<path d="M72.0459 65.114H71.5479V65.612H72.0459V65.114Z" fill="#F0F0F0"/>
<path d="M72.0459 65.95H71.5479V66.4479H72.0459V65.95Z" fill="#F0F0F0"/>
<path d="M72.0459 66.786H71.5479V67.284H72.0459V66.786Z" fill="#F0F0F0"/>
<path d="M72.0459 67.6219H71.5479V68.12H72.0459V67.6219Z" fill="#F0F0F0"/>
<path d="M72.0459 68.458H71.5479V68.956H72.0459V68.458Z" fill="#F0F0F0"/>
<path d="M76.8559 55.672H76.3579V56.17H76.8559V55.672Z" fill="#F0F0F0"/>
<path d="M76.8559 56.5081H76.3579V57.0061H76.8559V56.5081Z" fill="#F0F0F0"/>
<path d="M76.8559 57.344H76.3579V57.842H76.8559V57.344Z" fill="#F0F0F0"/>
<path d="M76.8559 58.178H76.3579V58.676H76.8559V58.178Z" fill="#F0F0F0"/>
<path d="M76.8559 59.014H76.3579V59.512H76.8559V59.014Z" fill="#F0F0F0"/>
<path d="M76.8559 59.85H76.3579V60.348H76.8559V59.85Z" fill="#F0F0F0"/>
<path d="M76.8559 62.358H76.3579V62.856H76.8559V62.358Z" fill="#F0F0F0"/>
<path d="M76.8559 63.194H76.3579V63.692H76.8559V63.194Z" fill="#F0F0F0"/>
<path d="M76.8559 64.03H76.3579V64.528H76.8559V64.03Z" fill="#F0F0F0"/>
<path d="M76.8559 64.866H76.3579V65.364H76.8559V64.866Z" fill="#F0F0F0"/>
<path d="M76.8559 65.702H76.3579V66.2H76.8559V65.702Z" fill="#F0F0F0"/>
<path d="M76.8559 66.536H76.3579V67.034H76.8559V66.536Z" fill="#F0F0F0"/>
<path d="M76.8559 67.3719H76.3579V67.87H76.8559V67.3719Z" fill="#F0F0F0"/>
<path d="M76.0639 55.672H75.5659V56.17H76.0639V55.672Z" fill="#F0F0F0"/>
<path d="M76.0639 56.5081H75.5659V57.0061H76.0639V56.5081Z" fill="#F0F0F0"/>
<path d="M76.0639 57.344H75.5659V57.842H76.0639V57.344Z" fill="#F0F0F0"/>
<path d="M76.0639 58.178H75.5659V58.676H76.0639V58.178Z" fill="#F0F0F0"/>
<path d="M76.0639 59.014H75.5659V59.512H76.0639V59.014Z" fill="#F0F0F0"/>
<path d="M76.0639 59.85H75.5659V60.348H76.0639V59.85Z" fill="#F0F0F0"/>
<path d="M76.0639 62.358H75.5659V62.856H76.0639V62.358Z" fill="#F0F0F0"/>
<path d="M76.0639 63.194H75.5659V63.692H76.0639V63.194Z" fill="#F0F0F0"/>
<path d="M76.0639 64.03H75.5659V64.528H76.0639V64.03Z" fill="#F0F0F0"/>
<path d="M76.0639 64.866H75.5659V65.364H76.0639V64.866Z" fill="#F0F0F0"/>
<path d="M76.0639 65.702H75.5659V66.2H76.0639V65.702Z" fill="#F0F0F0"/>
<path d="M76.0639 66.536H75.5659V67.034H76.0639V66.536Z" fill="#F0F0F0"/>
<path d="M76.0639 68.208H75.5659V68.706H76.0639V68.208Z" fill="#F0F0F0"/>
<path d="M49.7578 51.9919H49.2598V52.4899H49.7578V51.9919Z" fill="#F0F0F0"/>
<path d="M49.7578 52.826H49.2598V53.324H49.7578V52.826Z" fill="#F0F0F0"/>
<path d="M49.7578 53.662H49.2598V54.16H49.7578V53.662Z" fill="#F0F0F0"/>
<path d="M49.7578 54.498H49.2598V54.9961H49.7578V54.498Z" fill="#F0F0F0"/>
<path d="M49.7578 55.334H49.2598V55.832H49.7578V55.334Z" fill="#F0F0F0"/>
<path d="M49.7578 56.17H49.2598V56.668H49.7578V56.17Z" fill="#F0F0F0"/>
<path d="M49.7578 57.006H49.2598V57.504H49.7578V57.006Z" fill="#F0F0F0"/>
<path d="M49.7578 57.842H49.2598V58.34H49.7578V57.842Z" fill="#F0F0F0"/>
<path d="M49.7578 58.678H49.2598V59.176H49.7578V58.678Z" fill="#F0F0F0"/>
<path d="M49.7578 59.514H49.2598V60.012H49.7578V59.514Z" fill="#F0F0F0"/>
<path d="M49.7578 60.35H49.2598V60.848H49.7578V60.35Z" fill="#F0F0F0"/>
<path d="M49.7578 62.02H49.2598V62.518H49.7578V62.02Z" fill="#F0F0F0"/>
<path d="M49.7578 62.856H49.2598V63.354H49.7578V62.856Z" fill="#F0F0F0"/>
<path d="M49.7578 63.692H49.2598V64.19H49.7578V63.692Z" fill="#F0F0F0"/>
<path d="M49.7578 64.528H49.2598V65.026H49.7578V64.528Z" fill="#F0F0F0"/>
<path d="M49.7578 65.364H49.2598V65.862H49.7578V65.364Z" fill="#F0F0F0"/>
<path d="M49.7578 66.2H49.2598V66.6979H49.7578V66.2Z" fill="#F0F0F0"/>
<path d="M49.7578 67.036H49.2598V67.534H49.7578V67.036Z" fill="#F0F0F0"/>
<path d="M49.7578 67.8719H49.2598V68.37H49.7578V67.8719Z" fill="#F0F0F0"/>
<path d="M48.9682 51.9919H48.4702V52.4899H48.9682V51.9919Z" fill="#F0F0F0"/>
<path d="M48.9682 52.826H48.4702V53.324H48.9682V52.826Z" fill="#F0F0F0"/>
<path d="M48.9682 53.662H48.4702V54.16H48.9682V53.662Z" fill="#F0F0F0"/>
<path d="M48.9682 54.498H48.4702V54.9961H48.9682V54.498Z" fill="#F0F0F0"/>
<path d="M48.9682 55.334H48.4702V55.832H48.9682V55.334Z" fill="#F0F0F0"/>
<path d="M48.9682 56.17H48.4702V56.668H48.9682V56.17Z" fill="#F0F0F0"/>
<path d="M48.9682 57.006H48.4702V57.504H48.9682V57.006Z" fill="#F0F0F0"/>
<path d="M48.9682 57.842H48.4702V58.34H48.9682V57.842Z" fill="#F0F0F0"/>
<path d="M48.9682 58.678H48.4702V59.176H48.9682V58.678Z" fill="#F0F0F0"/>
<path d="M48.9682 59.514H48.4702V60.012H48.9682V59.514Z" fill="#F0F0F0"/>
<path d="M48.9682 60.35H48.4702V60.848H48.9682V60.35Z" fill="#F0F0F0"/>
<path d="M48.9682 61.184H48.4702V61.682H48.9682V61.184Z" fill="#F0F0F0"/>
<path d="M48.9682 62.02H48.4702V62.518H48.9682V62.02Z" fill="#F0F0F0"/>
<path d="M48.9682 62.856H48.4702V63.354H48.9682V62.856Z" fill="#F0F0F0"/>
<path d="M48.9682 63.692H48.4702V64.19H48.9682V63.692Z" fill="#F0F0F0"/>
<path d="M48.9682 64.528H48.4702V65.026H48.9682V64.528Z" fill="#F0F0F0"/>
<path d="M48.9682 65.364H48.4702V65.862H48.9682V65.364Z" fill="#F0F0F0"/>
<path d="M48.9682 66.2H48.4702V66.6979H48.9682V66.2Z" fill="#F0F0F0"/>
<path d="M48.9682 67.036H48.4702V67.534H48.9682V67.036Z" fill="#F0F0F0"/>
<path d="M48.9682 67.8719H48.4702V68.37H48.9682V67.8719Z" fill="#F0F0F0"/>
<path d="M53.6601 55.246H53.1621V55.744H53.6601V55.246Z" fill="#F0F0F0"/>
<path d="M53.6601 56.082H53.1621V56.58H53.6601V56.082Z" fill="#F0F0F0"/>
<path d="M53.6601 56.918H53.1621V57.416H53.6601V56.918Z" fill="#F0F0F0"/>
<path d="M53.6601 57.754H53.1621V58.252H53.6601V57.754Z" fill="#F0F0F0"/>
<path d="M53.6601 58.59H53.1621V59.088H53.6601V58.59Z" fill="#F0F0F0"/>
<path d="M53.6601 59.426H53.1621V59.924H53.6601V59.426Z" fill="#F0F0F0"/>
<path d="M53.6601 60.262H53.1621V60.76H53.6601V60.262Z" fill="#F0F0F0"/>
<path d="M53.6601 61.0959H53.1621V61.5939H53.6601V61.0959Z" fill="#F0F0F0"/>
<path d="M53.6601 61.932H53.1621V62.43H53.6601V61.932Z" fill="#F0F0F0"/>
<path d="M53.6601 62.7679H53.1621V63.2659H53.6601V62.7679Z" fill="#F0F0F0"/>
<path d="M52.8681 55.246H52.3701V55.744H52.8681V55.246Z" fill="#F0F0F0"/>
<path d="M52.8681 56.082H52.3701V56.58H52.8681V56.082Z" fill="#F0F0F0"/>
<path d="M52.8681 56.918H52.3701V57.416H52.8681V56.918Z" fill="#F0F0F0"/>
<path d="M52.8681 57.754H52.3701V58.252H52.8681V57.754Z" fill="#F0F0F0"/>
<path d="M52.8681 58.59H52.3701V59.088H52.8681V58.59Z" fill="#F0F0F0"/>
<path d="M52.8681 59.426H52.3701V59.924H52.8681V59.426Z" fill="#F0F0F0"/>
<path d="M52.8681 60.262H52.3701V60.76H52.8681V60.262Z" fill="#F0F0F0"/>
<path d="M52.8681 61.0959H52.3701V61.5939H52.8681V61.0959Z" fill="#F0F0F0"/>
<path d="M52.8681 61.932H52.3701V62.43H52.8681V61.932Z" fill="#F0F0F0"/>
<path d="M57.5782 23.528H56.7422V70.144H57.5782V23.528Z" fill="#E0E0E0"/>
<path d="M73.3199 23.528H72.4839V70.144H73.3199V23.528Z" fill="#E0E0E0"/>
<path d="M89.0601 23.528H88.2241V70.144H89.0601V23.528Z" fill="#E0E0E0"/>
<path d="M29.5641 65.6H34.7201C34.954 65.6 35.1784 65.6929 35.3438 65.8583C35.5092 66.0237 35.6021 66.2481 35.6021 66.482V76.448H28.6841V66.49C28.6831 66.3736 28.705 66.2583 28.7488 66.1505C28.7925 66.0426 28.8571 65.9446 28.9389 65.8618C29.0207 65.7791 29.118 65.7134 29.2254 65.6684C29.3327 65.6235 29.4478 65.6002 29.5641 65.6Z" fill="#F0F0F0"/>
<path d="M35.6021 67.076H28.6841V67.854H35.6021V67.076Z" fill="#E6E6E6"/>
<path d="M32.6181 75.142H34.3421C34.4678 75.142 34.5884 75.1919 34.6773 75.2808C34.7662 75.3697 34.8161 75.4903 34.8161 75.616V76.456H32.1421V75.616C32.1421 75.5536 32.1544 75.4918 32.1784 75.4341C32.2023 75.3765 32.2374 75.3241 32.2816 75.2801C32.3259 75.2361 32.3783 75.2012 32.4361 75.1775C32.4938 75.1538 32.5557 75.1417 32.6181 75.142Z" fill="#E0E0E0"/>
<path d="M34.8241 76.456H32.9081C32.8264 76.456 32.7481 76.4236 32.6903 76.3658C32.6325 76.3081 32.6001 76.2297 32.6001 76.148C32.6006 76.0667 32.6333 75.9889 32.691 75.9315C32.7487 75.8742 32.8268 75.842 32.9081 75.842H34.8241C34.9054 75.842 34.9835 75.8742 35.0412 75.9315C35.0989 75.9889 35.1316 76.0667 35.1321 76.148C35.1321 76.2297 35.0996 76.3081 35.0419 76.3658C34.9841 76.4236 34.9058 76.456 34.8241 76.456Z" fill="#E6E6E6"/>
<path d="M65.5428 21.3409C68.0745 20.7434 69.6425 18.2066 69.045 15.6749C68.4474 13.1432 65.9107 11.5753 63.379 12.1728C60.8473 12.7704 59.2793 15.3071 59.8769 17.8388C60.4744 20.3705 63.0111 21.9385 65.5428 21.3409Z" fill="#E0E0E0"/>
<path d="M65.1013 20.7056C67.2851 20.3511 68.7681 18.2933 68.4136 16.1095C68.0591 13.9256 66.0014 12.4426 63.8175 12.7971C61.6337 13.1516 60.1507 15.2093 60.5051 17.3932C60.8596 19.5771 62.9174 21.0601 65.1013 20.7056Z" fill="#F0F0F0"/>
<path d="M64.6499 14.006V16.806L66.5039 15.756" fill="#F0F0F0"/>
<path d="M64.6502 17C64.6143 17 64.5791 16.9904 64.5482 16.972C64.5183 16.9543 64.4936 16.9292 64.4764 16.899C64.4592 16.8689 64.4502 16.8348 64.4502 16.8V14C64.4502 13.947 64.4713 13.8961 64.5088 13.8586C64.5463 13.8211 64.5972 13.8 64.6502 13.8C64.7032 13.8 64.7541 13.8211 64.7916 13.8586C64.8291 13.8961 64.8502 13.947 64.8502 14V16.462L66.4062 15.582C66.4524 15.5561 66.5069 15.5496 66.5579 15.5638C66.6089 15.5781 66.6521 15.612 66.6782 15.658C66.7043 15.704 66.7111 15.7583 66.6973 15.8093C66.6834 15.8603 66.6499 15.9037 66.6042 15.93L64.7482 16.98C64.7175 16.9942 64.684 17.0011 64.6502 17Z" fill="#E0E0E0"/>
<path d="M19.386 62.728C19.026 62.128 18.434 62.65 18.434 62.65C18.518 61.514 17.474 60.738 17.474 60.738C17.474 60.738 18.688 60.738 18.856 59.58C19.024 58.422 18.434 58.96 17.878 58.952C17.322 58.944 16.74 60.568 17.478 61.482C18.216 62.396 18.014 63.956 16.32 65.456C15.9149 65.8351 15.6111 66.3095 15.436 66.836C15.564 65.458 15.636 63.516 15.236 62.22C14.548 60.02 15.86 59.42 16.236 58.324C16.612 57.228 15.236 56.292 15.236 56.292C15.236 56.292 16.538 55.692 15.902 55.022C15.266 54.352 13.954 54.436 13.954 55.322C13.954 56.208 14.844 56.546 14.844 56.546C14.844 56.546 15.86 57.604 15.86 58.146C15.86 58.688 14.844 59.882 14.844 59.882C14.844 59.882 15.31 58.868 14.378 58.826C13.446 58.784 13.15 60.01 13.532 60.56C13.914 61.11 14.548 60.646 14.548 60.646C14.5878 61.288 14.6849 61.9252 14.838 62.55C14.934 62.868 14.89 64.11 14.81 65.402C14.6332 64.9355 14.3504 64.5165 13.984 64.178C12.29 62.678 12.094 61.118 12.828 60.204C13.562 59.29 12.98 57.666 12.428 57.674C11.876 57.682 11.278 57.142 11.448 58.3C11.618 59.458 12.832 59.46 12.832 59.46C12.832 59.46 11.786 60.236 11.87 61.372C11.87 61.372 11.27 60.856 10.918 61.45C10.276 62.508 11.766 63.164 12.016 62.65C12.016 62.65 15.174 64.886 14.416 68.104L14.592 68.366C14.57 68.626 14.556 68.782 14.556 68.782L14.802 68.676L15.084 69.09C15.0742 69.5578 15.0982 70.0257 15.156 70.49L15.91 69.374C15.148 66.156 18.31 63.92 18.31 63.92C18.54 64.444 20.028 63.786 19.386 62.728Z" fill="#E0E0E0"/>
<path opacity="0.2" d="M19.386 62.728C19.026 62.128 18.434 62.65 18.434 62.65C18.518 61.514 17.474 60.738 17.474 60.738C17.474 60.738 18.688 60.738 18.856 59.58C19.024 58.422 18.434 58.96 17.878 58.952C17.322 58.944 16.74 60.568 17.478 61.482C18.216 62.396 18.014 63.956 16.32 65.456C15.9149 65.8351 15.6111 66.3095 15.436 66.836C15.564 65.458 15.636 63.516 15.236 62.22C14.548 60.02 15.86 59.42 16.236 58.324C16.612 57.228 15.236 56.292 15.236 56.292C15.236 56.292 16.538 55.692 15.902 55.022C15.266 54.352 13.954 54.436 13.954 55.322C13.954 56.208 14.844 56.546 14.844 56.546C14.844 56.546 15.86 57.604 15.86 58.146C15.86 58.688 14.844 59.882 14.844 59.882C14.844 59.882 15.31 58.868 14.378 58.826C13.446 58.784 13.15 60.01 13.532 60.56C13.914 61.11 14.548 60.646 14.548 60.646C14.5878 61.288 14.6849 61.9252 14.838 62.55C14.934 62.868 14.89 64.11 14.81 65.402C14.6332 64.9355 14.3504 64.5165 13.984 64.178C12.29 62.678 12.094 61.118 12.828 60.204C13.562 59.29 12.98 57.666 12.428 57.674C11.876 57.682 11.278 57.142 11.448 58.3C11.618 59.458 12.832 59.46 12.832 59.46C12.832 59.46 11.786 60.236 11.87 61.372C11.87 61.372 11.27 60.856 10.918 61.45C10.276 62.508 11.766 63.164 12.016 62.65C12.016 62.65 15.174 64.886 14.416 68.104L14.592 68.366C14.57 68.626 14.556 68.782 14.556 68.782L14.802 68.676L15.084 69.09C15.0742 69.5578 15.0982 70.0257 15.156 70.49L15.91 69.374C15.148 66.156 18.31 63.92 18.31 63.92C18.54 64.444 20.028 63.786 19.386 62.728Z" fill="#E0E0E0"/>
<path d="M18.7679 76.456H11.5339L10.7539 68.536H19.5499L18.7679 76.456Z" fill="#E6E6E6"/>
<path d="M19.9342 67.662H10.3662V69.41H19.9342V67.662Z" fill="#F0F0F0"/>
<path d="M50.0002 85.512C71.4167 85.512 88.7782 84.4984 88.7782 83.248C88.7782 81.9976 71.4167 80.984 50.0002 80.984C28.5837 80.984 11.2222 81.9976 11.2222 83.248C11.2222 84.4984 28.5837 85.512 50.0002 85.512Z" fill="#F5F5F5"/>
<path d="M82.0902 76.944C82.1202 76.744 82.8202 71.91 81.4182 70.242C81.2787 70.0663 81.1019 69.9236 80.9007 69.8244C80.6994 69.7251 80.4786 69.6717 80.2542 69.668C77.4222 69.602 77.0362 71.868 77.0322 71.898L77.3662 71.95C77.3782 71.868 77.7142 69.95 80.2462 70.006C80.4226 70.0085 80.5962 70.0504 80.7544 70.1286C80.9125 70.2068 81.0512 70.3194 81.1602 70.458C82.4642 72.012 81.7602 76.844 81.7602 76.894L82.0902 76.944Z" fill="#DC4D01"/>
<path d="M82.2602 76.724L82.5982 76.712C82.5982 76.668 82.4862 72.262 84.6562 71.352C86.7842 70.462 87.7422 72.294 87.7802 72.372L88.0822 72.22C88.0722 72.198 86.9482 70.02 84.5262 71.042C82.1422 72.04 82.2542 76.532 82.2602 76.724Z" fill="#DC4D01"/>
<path d="M82.2501 77.07C82.2501 77 82.2721 70.032 83.6301 67.994C84.9341 66.036 87.0301 66.958 87.1281 66.994L87.2661 66.686C87.2421 66.676 84.8141 65.604 83.3481 67.802C81.9341 69.924 81.9141 76.774 81.9141 77.066L82.2501 77.07Z" fill="#DC4D01"/>
<path d="M79.8482 69.836C79.8482 69.836 81.0842 70.292 80.7162 71.366C80.3482 72.44 76.4422 74.212 76.4422 74.212C76.4422 74.212 74.8042 72.712 76.3082 70.272C77.8122 67.832 79.8142 69.066 79.8482 69.836Z" fill="#DC4D01"/>
<path d="M83.6904 67.626C83.6904 67.626 82.8144 67.532 82.8904 66.998C82.9664 66.464 86.3024 65.088 88.2724 67.312C88.2724 67.312 87.0104 69.48 85.1864 69.512C83.3624 69.544 83.6904 67.626 83.6904 67.626Z" fill="#DC4D01"/>
<path d="M84.6002 71.2001C84.6002 71.2001 84.0002 70.7121 84.6482 70.4741C85.2962 70.2361 88.5082 70.3021 88.5402 73.4741C88.5402 73.4741 84.8062 74.0961 84.3402 72.8861C83.8742 71.6761 84.6002 71.2001 84.6002 71.2001Z" fill="#DC4D01"/>
<path opacity="0.2" d="M79.8482 69.836C79.8482 69.836 81.0842 70.292 80.7162 71.366C80.3482 72.44 76.4422 74.212 76.4422 74.212C76.4422 74.212 74.8042 72.712 76.3082 70.272C77.8122 67.832 79.8142 69.066 79.8482 69.836Z" fill="#252525"/>
<path opacity="0.2" d="M83.6904 67.626C83.6904 67.626 82.8144 67.532 82.8904 66.998C82.9664 66.464 86.3024 65.088 88.2724 67.312C88.2724 67.312 87.0104 69.48 85.1864 69.512C83.3624 69.544 83.6904 67.626 83.6904 67.626Z" fill="#252525"/>
<path opacity="0.2" d="M84.6002 71.2001C84.6002 71.2001 84.0002 70.7121 84.6482 70.4741C85.2962 70.2361 88.5082 70.3021 88.5402 73.4741C88.5402 73.4741 84.8062 74.0961 84.3402 72.8861C83.8742 71.6761 84.6002 71.2001 84.6002 71.2001Z" fill="#252525"/>
<path d="M79.1841 83.4141H84.9801L85.6041 77.0701H78.5601L79.1841 83.4141Z" fill="#DC4D01"/>
<path opacity="0.5" d="M79.1841 83.4141H84.9801L85.6041 77.0701H78.5601L79.1841 83.4141Z" fill="white"/>
<path d="M78.2501 77.7681H85.9141V76.3681H78.2501V77.7681Z" fill="#DC4D01"/>
<path opacity="0.2" d="M78.2501 77.7681H85.9141V76.3681H78.2501V77.7681Z" fill="white"/>
<path d="M72.6241 78.8661L66.8621 78.3001V70.2001H64.5781V78.2961L58.8001 78.8661C58.523 78.8934 58.266 79.0227 58.0789 79.229C57.8919 79.4352 57.7882 79.7036 57.7881 79.9821V80.8481H73.6441V79.9821C73.6442 79.7023 73.5396 79.4325 73.3508 79.226C73.162 79.0195 72.9028 78.8911 72.6241 78.8661Z" fill="#263238"/>
<path opacity="0.2" d="M72.6241 78.8661L66.8621 78.3001V70.2001H64.5781V78.2961L58.8001 78.8661C58.523 78.8934 58.266 79.0227 58.0789 79.229C57.8919 79.4352 57.7882 79.7036 57.7881 79.9821V80.8481H73.6441V79.9821C73.6442 79.7023 73.5396 79.4325 73.3508 79.226C73.162 79.0195 72.9028 78.8911 72.6241 78.8661Z" fill="white"/>
<path d="M58.39 83.416C59.2151 83.416 59.884 82.7471 59.884 81.922C59.884 81.0969 59.2151 80.428 58.39 80.428C57.5649 80.428 56.896 81.0969 56.896 81.922C56.896 82.7471 57.5649 83.416 58.39 83.416Z" fill="#263238"/>
<path d="M73.0282 83.416C73.8533 83.416 74.5222 82.7471 74.5222 81.922C74.5222 81.0969 73.8533 80.428 73.0282 80.428C72.2031 80.428 71.5342 81.0969 71.5342 81.922C71.5342 82.7471 72.2031 83.416 73.0282 83.416Z" fill="#263238"/>
<path d="M64.186 64.728H67.256V71.114C67.256 71.3331 67.169 71.5432 67.0141 71.6981C66.8592 71.853 66.6491 71.94 66.43 71.94H65.012C64.793 71.94 64.5829 71.853 64.428 71.6981C64.2731 71.5432 64.186 71.3331 64.186 71.114V64.728Z" fill="#263238"/>
<path opacity="0.3" d="M64.186 64.728H67.256V71.114C67.256 71.3331 67.169 71.5432 67.0141 71.6981C66.8592 71.853 66.6491 71.94 66.43 71.94H65.012C64.793 71.94 64.5829 71.853 64.428 71.6981C64.2731 71.5432 64.186 71.3331 64.186 71.114V64.728Z" fill="white"/>
<path d="M71.1799 52.0701C71.1799 52.0701 71.6159 62.8701 68.6079 64.7281H72.0419C72.0419 64.7281 74.7019 61.0501 73.9499 52.0701H71.1799Z" fill="#263238"/>
<path opacity="0.3" d="M71.1799 52.0701C71.1799 52.0701 71.6159 62.8701 68.6079 64.7281H72.0419C72.0419 64.7281 74.7019 61.0501 73.9499 52.0701H71.1799Z" fill="white"/>
<path d="M73.21 65.556H57.826V64.218C57.826 63.9528 57.9313 63.6985 58.1189 63.5109C58.3064 63.3234 58.5607 63.218 58.826 63.218H72.21C72.4752 63.218 72.7295 63.3234 72.9171 63.5109C73.1046 63.6985 73.21 63.9528 73.21 64.218V65.556Z" fill="#263238"/>
<path d="M57.5861 65.556H73.4481C73.6701 65.556 73.8501 65.376 73.8501 65.154V64.79C73.8501 64.568 73.6701 64.388 73.4481 64.388H57.5861C57.3641 64.388 57.1841 64.568 57.1841 64.79V65.154C57.1841 65.376 57.3641 65.556 57.5861 65.556Z" fill="#263238"/>
<path opacity="0.6" d="M57.5861 65.556H73.4481C73.6701 65.556 73.8501 65.376 73.8501 65.154V64.79C73.8501 64.568 73.6701 64.388 73.4481 64.388H57.5861C57.3641 64.388 57.1841 64.568 57.1841 64.79V65.154C57.1841 65.376 57.3641 65.556 57.5861 65.556Z" fill="white"/>
<path d="M74.792 46.28H69.292C67.6815 46.28 66.376 47.5856 66.376 49.196V51.348C66.376 52.9585 67.6815 54.264 69.292 54.264H74.792C76.4024 54.264 77.708 52.9585 77.708 51.348V49.196C77.708 47.5856 76.4024 46.28 74.792 46.28Z" fill="#263238"/>
<path d="M52.6096 37.456L51.5116 34.562C51.5116 34.562 51.9836 34.126 51.6596 33.684C51.3356 33.242 49.3116 32 48.9436 32.218C48.5756 32.436 47.7536 33.26 48.1976 33.718C48.6416 34.176 50.5976 34.938 50.5976 34.938L51.5696 38.738L52.6096 37.456Z" fill="#AD6359"/>
<path d="M60.2757 42.958C60.2757 42.958 55.2757 41.932 54.7417 41.686C54.2077 41.44 52.1997 35.554 52.1997 35.554L50.6577 36.274C50.6577 36.274 51.8977 42.182 53.1657 43.586C54.4337 44.99 59.8457 46.186 59.8457 46.186L60.2757 42.958Z" fill="#DC4D01"/>
<path opacity="0.2" d="M59.834 46.18L59.7419 46.158C59.4699 46.096 58.616 45.896 57.602 45.598C55.956 45.12 53.8799 44.398 53.1559 43.588C51.8899 42.188 50.6479 36.274 50.6479 36.274L52.1879 35.554C52.1879 35.554 54.1979 41.442 54.7419 41.686C55.2859 41.93 60.2759 42.958 60.2759 42.958L59.834 46.18Z" fill="#252525"/>
<path d="M52.2138 35.438L52.5318 36.052L50.5518 36.734L50.6278 35.984L52.2138 35.438Z" fill="#DC4D01"/>
<path opacity="0.2" d="M59.8718 46.0979C59.5958 46.0579 58.7298 45.9239 57.6938 45.6979C58.2838 44.6779 60.0118 44.1539 60.0118 44.1539L59.8718 46.0979Z" fill="#252525"/>
<path d="M67.3158 38.882C67.3158 38.882 67.6098 41.648 66.5858 42.328C65.5618 43.008 60.5198 42.212 59.9478 41.098C59.3758 39.984 61.5278 36.964 61.5278 36.964L67.3158 38.882Z" fill="#263238"/>
<path d="M46.918 75.278L48.234 75.596L48.9 73.78L49.504 72.128L48.006 71.49L47.43 73.494L46.918 75.278Z" fill="#AD6359"/>
<path opacity="0.2" d="M47.4297 73.494L48.8997 73.78L49.5037 72.128L48.0057 71.49L47.4297 73.494Z" fill="#252525"/>
<path d="M47.562 72.5359L49.386 73.2139C49.386 73.2139 54.252 61.0479 55.252 61.0139C56.252 60.9799 66.434 65.6519 68.986 63.0559C71.538 60.4599 67.848 54.1999 67.848 54.1999C67.848 54.1999 61.71 53.3239 61.248 54.7099C61.1343 55.1185 61.0475 55.5341 60.988 55.9539C60.918 56.3779 60.87 56.7339 60.87 56.7339C60.68 56.6859 54.518 55.0959 52.09 56.7339C49.62 58.3999 47.562 72.5359 47.562 72.5359Z" fill="#DC4D01"/>
<path opacity="0.6" d="M47.562 72.5359L49.386 73.2139C49.386 73.2139 54.252 61.0479 55.252 61.0139C56.252 60.9799 66.434 65.6519 68.986 63.0559C71.538 60.4599 67.848 54.1999 67.848 54.1999C67.848 54.1999 61.71 53.3239 61.248 54.7099C61.1343 55.1185 61.0475 55.5341 60.988 55.9539C60.918 56.3779 60.87 56.7339 60.87 56.7339C60.68 56.6859 54.518 55.0959 52.09 56.7339C49.62 58.3999 47.562 72.5359 47.562 72.5359Z" fill="white"/>
<path d="M58.0538 80.468L59.3638 80.134L59.1118 78.252L58.8778 76.528L57.2578 76.674L57.6778 78.684L58.0538 80.468Z" fill="#AD6359"/>
<path opacity="0.2" d="M57.6878 78.7239L59.1198 78.2879L58.8818 76.5459L57.2598 76.6839L57.6878 78.7239Z" fill="#252525"/>
<path d="M50.1397 72.538L47.4817 71.636L47.3677 72.724L49.3837 73.436L50.1397 72.538Z" fill="#DC4D01"/>
<path d="M64.5778 63.672C64.5778 63.672 64.1618 63.682 57.7238 63.382C57.7238 63.382 58.6858 71.43 59.2118 77.456L57.2858 77.784C57.2858 77.784 52.6858 64.882 52.7358 62.832C52.7858 60.782 55.1358 60.182 55.1358 60.182C55.1358 60.182 59.7218 62.832 64.5778 63.672Z" fill="#DC4D01"/>
<path opacity="0.6" d="M64.5778 63.672C64.5778 63.672 64.1618 63.682 57.7238 63.382C57.7238 63.382 58.6858 71.43 59.2118 77.456L57.2858 77.784C57.2858 77.784 52.6858 64.882 52.7358 62.832C52.7858 60.782 55.1358 60.182 55.1358 60.182C55.1358 60.182 59.7218 62.832 64.5778 63.672Z" fill="white"/>
<path opacity="0.1" d="M64.5778 63.672C64.5778 63.672 64.1618 63.682 57.7238 63.382C57.7238 63.382 58.6858 71.43 59.2118 77.456L57.2858 77.784C57.2858 77.784 52.6858 64.882 52.7358 62.832C52.7858 60.782 55.1358 60.182 55.1358 60.182C55.1358 60.182 59.7218 62.832 64.5778 63.672Z" fill="#252525"/>
<path d="M59.4917 76.8719L56.8457 77.174L57.3577 78.2099L59.4997 77.9359L59.4917 76.8719Z" fill="#DC4D01"/>
<path opacity="0.1" d="M60.8696 56.734L64.4596 57.482C64.4596 57.482 62.4756 56.386 60.9876 55.954C60.9176 56.378 60.8696 56.734 60.8696 56.734Z" fill="#252525"/>
<path d="M67.6997 53.246L67.8477 54.2L61.2477 54.71L61.0737 53.58L67.6997 53.246Z" fill="#263238"/>
<path opacity="0.2" d="M67.6997 53.246L67.8477 54.2L61.2477 54.71L61.0737 53.58L67.6997 53.246Z" fill="#252525"/>
<path d="M65.6181 54.8443L65.9443 54.8108L65.7735 53.1495L65.4473 53.1831L65.6181 54.8443Z" fill="#DC4D01"/>
<path d="M62.6858 54.6784L64.1309 54.5854L64.0604 53.4897L62.6154 53.5827L62.6858 54.6784Z" fill="white"/>
<path d="M61.5687 55.0189L61.895 54.9854L61.7242 53.3241L61.3979 53.3577L61.5687 55.0189Z" fill="#DC4D01"/>
<path opacity="0.6" d="M65.6181 54.8443L65.9443 54.8108L65.7735 53.1495L65.4473 53.1831L65.6181 54.8443Z" fill="white"/>
<path opacity="0.6" d="M61.5687 55.0189L61.895 54.9854L61.7242 53.3241L61.3979 53.3577L61.5687 55.0189Z" fill="white"/>
<path d="M60.1556 42.8679C61.3918 43.2094 62.6748 43.3505 63.9556 43.2859C66.0756 43.1779 68.5996 44.1999 68.5996 44.1999L67.6916 53.2399L61.0636 53.5739C61.0636 53.5739 58.8456 46.0319 60.1556 42.8679Z" fill="#DC4D01"/>
<path d="M61.2217 37.7619C61.2217 37.7619 61.5937 33.3739 65.2617 34.9619C69.8617 36.9619 66.2057 42.3099 63.9557 41.2139C61.7057 40.1179 61.2217 37.7619 61.2217 37.7619Z" fill="#263238"/>
<path opacity="0.2" d="M62.25 43.532L62.356 46.012L63.178 44.846C63.178 44.846 62.884 47.588 63.056 49.082C63.056 49.082 63.214 46.404 63.586 44.846L64.46 46.012L65.714 43.548C65.714 43.548 63.684 42.818 62.25 43.532Z" fill="#252525"/>
<path d="M63.3859 43.9999L65.2839 43.4639C64.1139 42.6639 64.7039 40.8639 64.7039 40.8639L62.8239 41.5239C62.9104 41.7852 62.9772 42.0526 63.0239 42.3239C63.2239 43.4959 62.6919 43.5899 62.6919 43.5899L63.3859 43.9999Z" fill="#AD6359"/>
<path opacity="0.2" d="M62.8237 41.514C62.9102 41.7753 62.9771 42.0427 63.0237 42.314C63.9237 41.952 64.7017 40.85 64.7017 40.85L62.8237 41.514Z" fill="#252525"/>
<path d="M64.052 35.8899C62.386 35.5219 61.652 36.2899 61.152 37.9819C60.526 40.0919 60.664 41.7199 62.846 41.7239C65.81 41.7279 66.816 36.5019 64.052 35.8899Z" fill="#AD6359"/>
<path d="M62.2478 38.1279C62.0603 38.3471 61.8467 38.5425 61.6118 38.7099C61.6454 38.79 61.7006 38.8592 61.7712 38.9097C61.8419 38.9602 61.9252 38.9901 62.0118 38.9959L62.2478 38.1279Z" fill="#AD6359"/>
<path d="M62.2478 38.1279C62.0603 38.3471 61.8467 38.5425 61.6118 38.7099C61.6454 38.79 61.7006 38.8592 61.7712 38.9097C61.8419 38.9602 61.9252 38.9901 62.0118 38.9959L62.2478 38.1279Z" fill="black" fill-opacity="0.2"/>
<path d="M63.2978 38.2159C63.2638 38.3519 63.3098 38.4819 63.4018 38.5039C63.4938 38.5259 63.5918 38.4339 63.6258 38.3039C63.6598 38.1739 63.6138 38.0399 63.5218 38.0159C63.4298 37.9919 63.3318 38.0799 63.2978 38.2159Z" fill="#263238"/>
<path d="M63.558 38.0259L63.292 37.8379C63.292 37.8379 63.378 38.1239 63.558 38.0259Z" fill="#263238"/>
<path d="M61.6137 37.7719C61.5797 37.9079 61.6257 38.0379 61.7177 38.0599C61.8097 38.0819 61.9177 37.9899 61.9417 37.8599C61.9657 37.7299 61.9297 37.5959 61.8377 37.5719C61.7457 37.5479 61.6477 37.6359 61.6137 37.7719Z" fill="#263238"/>
<path d="M61.8736 37.5819L61.5996 37.3999C61.5996 37.3999 61.6936 37.6779 61.8736 37.5819Z" fill="#263238"/>
<path d="M64.2356 37.554C64.2221 37.5542 64.2089 37.5508 64.1973 37.5441C64.1857 37.5374 64.1761 37.5277 64.1696 37.516C64.1037 37.4131 64.0156 37.3263 63.9118 37.2619C63.8079 37.1975 63.691 37.1572 63.5696 37.144C63.5505 37.1415 63.533 37.1318 63.5208 37.117C63.5085 37.1021 63.5024 37.0832 63.5036 37.064C63.5056 37.0447 63.5151 37.0269 63.5301 37.0146C63.545 37.0023 63.5642 36.9963 63.5836 36.998C63.731 37.0122 63.8731 37.0604 63.9987 37.1389C64.1243 37.2173 64.23 37.3238 64.3076 37.45C64.312 37.4585 64.3147 37.4678 64.3155 37.4774C64.3163 37.4869 64.3152 37.4966 64.3122 37.5057C64.3092 37.5148 64.3045 37.5233 64.2982 37.5305C64.2919 37.5378 64.2842 37.5437 64.2756 37.548C64.2629 37.553 64.2492 37.555 64.2356 37.554Z" fill="#263238"/>
<path d="M62.3737 36.8C62.3601 36.7997 62.3469 36.7956 62.3357 36.788C62.2374 36.7408 62.1297 36.7163 62.0207 36.7163C61.9117 36.7163 61.804 36.7408 61.7057 36.788C61.697 36.7915 61.6878 36.7933 61.6784 36.7932C61.6691 36.7931 61.6598 36.7911 61.6513 36.7874C61.6427 36.7837 61.6349 36.7783 61.6285 36.7715C61.622 36.7647 61.617 36.7567 61.6137 36.748C61.6101 36.7392 61.6083 36.7298 61.6084 36.7203C61.6085 36.7108 61.6104 36.7014 61.6141 36.6927C61.6179 36.6839 61.6233 36.676 61.6301 36.6694C61.6369 36.6627 61.6449 36.6575 61.6537 36.654C61.7732 36.5984 61.9038 36.5709 62.0356 36.5737C62.1673 36.5765 62.2967 36.6094 62.4137 36.67C62.4218 36.6751 62.4287 36.6817 62.4342 36.6895C62.4397 36.6973 62.4435 36.7061 62.4456 36.7154C62.4476 36.7247 62.4478 36.7343 62.4461 36.7437C62.4444 36.753 62.4409 36.762 62.4357 36.77C62.4286 36.7796 62.4192 36.7874 62.4084 36.7926C62.3976 36.7979 62.3857 36.8004 62.3737 36.8Z" fill="#263238"/>
<path d="M65.2497 39.098C65.2497 39.098 64.7737 37.558 65.1257 36.528C65.1257 36.528 62.1257 34.45 61.2217 37.762C61.2217 37.762 61.5557 34.718 64.4337 35.286C67.3117 35.854 66.3697 40.036 64.6157 40.956C64.6157 40.956 65.5417 40.06 65.2497 39.098Z" fill="#263238"/>
<path d="M64.8997 39.4C64.9583 39.2107 65.0895 39.0524 65.2646 38.9598C65.4397 38.8672 65.6444 38.8478 65.8338 38.906C66.3378 39.076 66.3477 40.19 65.0097 40.16C64.8157 40.146 64.7517 39.944 64.8997 39.4Z" fill="#AD6359"/>
<path d="M61.71 39.628C61.7545 39.8322 61.7839 40.0394 61.798 40.248H61.906C62.404 40.29 62.648 40.144 62.768 39.972C62.8253 39.8865 62.861 39.7883 62.872 39.686C62.8804 39.6283 62.8804 39.5697 62.872 39.512C62.5509 39.6225 62.2099 39.6628 61.872 39.63C61.776 39.636 61.71 39.628 61.71 39.628Z" fill="#263238"/>
<path d="M61.8799 39.64L61.9099 39.822C62.3779 39.86 62.7099 39.822 62.8719 39.696C62.8803 39.6383 62.8803 39.5797 62.8719 39.522C62.5534 39.6314 62.2152 39.6716 61.8799 39.64Z" fill="white"/>
<path d="M61.9058 40.2579C62.4038 40.2999 62.6478 40.1539 62.7678 39.9819C62.5789 39.9696 62.3894 39.9906 62.2078 40.0439C62.0871 40.0817 61.9814 40.1566 61.9058 40.2579Z" fill="#DE5753"/>
<path d="M64.0577 36.024C64.0577 36.024 64.1217 38.91 65.8577 39.258C67.5937 39.606 65.6977 35.546 65.6977 35.546C65.6977 35.546 63.1177 33.862 61.3977 35.05C59.6777 36.238 61.2257 37.762 61.2257 37.762C61.2257 37.762 61.5837 35.618 64.0577 36.024Z" fill="#263238"/>
<path d="M64.7198 38.666C64.7081 38.6659 64.6967 38.6616 64.6878 38.654C63.4558 37.686 64.0638 35.834 64.0698 35.816C64.0744 35.8035 64.0835 35.7932 64.0954 35.7872C64.1073 35.7813 64.1211 35.7801 64.1338 35.784C64.1463 35.7885 64.1564 35.7978 64.1621 35.8098C64.1677 35.8218 64.1683 35.8355 64.1638 35.848C64.1638 35.866 63.5738 37.648 64.7498 38.576C64.7546 38.5805 64.7584 38.5859 64.761 38.5919C64.7636 38.5979 64.765 38.6044 64.765 38.611C64.765 38.6175 64.7636 38.624 64.761 38.6301C64.7584 38.6361 64.7546 38.6415 64.7498 38.646C64.7465 38.6512 64.7421 38.6558 64.7369 38.6592C64.7318 38.6626 64.7259 38.665 64.7198 38.666Z" fill="#263238"/>
<path d="M66.3597 39.8499C66.1397 40.4379 65.5737 40.7679 65.0957 40.5899C64.6177 40.4119 64.4097 39.7899 64.6297 39.2019C64.8497 38.6139 65.4157 38.2839 65.8937 38.4639C66.3717 38.6439 66.5797 39.2639 66.3597 39.8499Z" fill="#DC4D01"/>
<path opacity="0.4" d="M66.3597 39.8499C66.1397 40.4379 65.5737 40.7679 65.0957 40.5899C64.6177 40.4119 64.4097 39.7899 64.6297 39.2019C64.8497 38.6139 65.4157 38.2839 65.8937 38.4639C66.3717 38.6439 66.5797 39.2639 66.3597 39.8499Z" fill="#252525"/>
<path d="M65.7997 38.8879C65.7997 38.8879 66.5177 35.6739 64.9077 34.8319C65.0911 34.8559 65.2728 34.8913 65.4517 34.9379C65.6517 34.9979 66.9457 36.3019 66.2957 39.1899L65.7997 38.8879Z" fill="#DC4D01"/>
<path opacity="0.2" d="M65.7997 38.8879C65.7997 38.8879 66.5177 35.6739 64.9077 34.8319C65.0911 34.8559 65.2728 34.8913 65.4517 34.9379C65.6517 34.9979 66.9457 36.3019 66.2957 39.1899L65.7997 38.8879Z" fill="#252525"/>
<path d="M62.7997 40.7279L62.6797 40.7099L62.7117 40.5099C63.595 40.6458 64.4975 40.4544 65.2497 39.9719L65.3677 40.1319C64.6113 40.6332 63.6995 40.8448 62.7997 40.7279Z" fill="#DC4D01"/>
<g opacity="0.2">
<path d="M62.7997 40.7279L62.6797 40.7099L62.7117 40.5099C63.595 40.6458 64.4975 40.4544 65.2497 39.9719L65.3677 40.1319C64.6113 40.6332 63.6995 40.8448 62.7997 40.7279Z" fill="#252525"/>
</g>
<path d="M66.2917 39.7699C66.1477 40.1579 65.7717 40.3699 65.4577 40.2579C65.1437 40.1459 65.0037 39.7299 65.1497 39.3419C65.2957 38.9539 65.6697 38.7419 65.9837 38.8539C66.2977 38.9659 66.4377 39.3819 66.2917 39.7699Z" fill="#DC4D01"/>
<path d="M62.6118 40.7999L62.4498 40.7779C62.4215 40.7742 62.3942 40.765 62.3695 40.7507C62.3448 40.7364 62.3232 40.7174 62.3059 40.6947C62.2886 40.672 62.276 40.6461 62.2688 40.6185C62.2615 40.5909 62.2598 40.5622 62.2638 40.5339C62.2672 40.5054 62.2763 40.478 62.2905 40.453C62.3047 40.4281 62.3237 40.4063 62.3464 40.3888C62.3691 40.3713 62.3951 40.3585 62.4228 40.3511C62.4505 40.3437 62.4794 40.342 62.5078 40.3459L62.6678 40.3679C62.7248 40.3759 62.7765 40.4059 62.8116 40.4515C62.8468 40.4971 62.8626 40.5547 62.8558 40.6119C62.8478 40.6689 62.8178 40.7206 62.7722 40.7557C62.7266 40.7909 62.669 40.8067 62.6118 40.7999Z" fill="#DC4D01"/>
<path opacity="0.4" d="M62.6118 40.7999L62.4498 40.7779C62.4215 40.7742 62.3942 40.765 62.3695 40.7507C62.3448 40.7364 62.3232 40.7174 62.3059 40.6947C62.2886 40.672 62.276 40.6461 62.2688 40.6185C62.2615 40.5909 62.2598 40.5622 62.2638 40.5339C62.2672 40.5054 62.2763 40.478 62.2905 40.453C62.3047 40.4281 62.3237 40.4063 62.3464 40.3888C62.3691 40.3713 62.3951 40.3585 62.4228 40.3511C62.4505 40.3437 62.4794 40.342 62.5078 40.3459L62.6678 40.3679C62.7248 40.3759 62.7765 40.4059 62.8116 40.4515C62.8468 40.4971 62.8626 40.5547 62.8558 40.6119C62.8478 40.6689 62.8178 40.7206 62.7722 40.7557C62.7266 40.7909 62.669 40.8067 62.6118 40.7999Z" fill="#252525"/>
<path d="M64.7739 42.7699L63.5859 43.9359L64.0619 45.3679L65.7139 43.5479L64.7739 42.7699Z" fill="#DC4D01"/>
<path d="M63.056 43.0139L63.248 43.9119L62.634 45.1819L62.25 43.5319L63.056 43.0139Z" fill="#DC4D01"/>
<path d="M64.52 43.782L65.21 41.256C65.21 41.256 64.876 40.628 64.948 40.496C65.02 40.364 65.38 38.668 65.636 38.484C65.892 38.3 66.946 38.614 67.052 38.786C67.158 38.958 66.042 41.256 66.042 41.256L65.642 43.994L64.52 43.782Z" fill="#AD6359"/>
<path d="M68.5996 44.2C70.4996 46.144 66.6936 50.548 64.5116 50.36C62.3296 50.172 64.5676 42.188 64.5676 42.188L65.9676 42.418C65.9676 42.418 65.4776 45.874 65.6316 46.144C65.7856 46.414 67.9696 43.554 68.5996 44.2Z" fill="#DC4D01"/>
<path opacity="0.2" d="M68.5996 44.2C70.4996 46.144 66.6936 50.548 64.5116 50.36C62.3296 50.172 64.5676 42.188 64.5676 42.188L65.9676 42.418C65.9676 42.418 65.4776 45.874 65.6316 46.144C65.7856 46.414 67.9696 43.554 68.5996 44.2Z" fill="#252525"/>
<path d="M64.4599 41.938L64.2539 42.598L66.1999 42.77V42.194L64.4599 41.938Z" fill="#DC4D01"/>
<path opacity="0.6" d="M61.51 47.1599H60.722C60.6347 47.1599 60.564 47.2306 60.564 47.3179V48.8059C60.564 48.8932 60.6347 48.9639 60.722 48.9639H61.51C61.5972 48.9639 61.668 48.8932 61.668 48.8059V47.3179C61.668 47.2306 61.5972 47.1599 61.51 47.1599Z" fill="white"/>
<path opacity="0.2" d="M61.5259 47.2799H60.6299V48.5059H61.5259V47.2799Z" fill="#252525"/>
<path d="M61.198 46.726H61V47.448H61.198V46.726Z" fill="#263238"/>
<path d="M44.7418 77.8339C44.9413 77.7411 45.1562 77.6862 45.3758 77.6719C45.3758 77.6719 46.1358 77.2259 46.8878 75.4879H47.7338C47.8772 75.4889 48.0169 75.5342 48.1336 75.6177C48.2503 75.7011 48.3384 75.8185 48.3858 75.9539C48.3999 75.9911 48.408 76.0302 48.4098 76.0699C48.3998 76.2744 48.3777 76.4781 48.3438 76.6799C48.22 77.356 48.055 78.0239 47.8498 78.6799L47.7058 78.6439L47.9658 77.3799C48.0538 76.9519 47.6018 77.3659 47.3938 77.7979C47.1858 78.2299 46.8638 78.6679 45.9278 78.4539C44.8378 78.1859 44.3998 78.0299 44.7418 77.8339Z" fill="#DC4D01"/>
<path d="M47.042 75.0339C47.042 75.0339 45.984 77.2459 45.376 77.6719C45.376 77.6719 46.192 78.1579 47.042 77.0719C48.14 75.6719 48.41 76.0619 48.41 76.0619C48.387 75.8204 48.3421 75.5814 48.276 75.3479C48.112 74.8999 47.042 75.0339 47.042 75.0339Z" fill="#AD6359"/>
<path d="M56.3857 83.1039C56.5585 82.9677 56.7542 82.8634 56.9637 82.7959C56.9637 82.7959 57.5957 82.1819 57.9137 80.3159L58.7357 80.1159C58.8752 80.0838 59.0212 80.0954 59.154 80.149C59.2867 80.2027 59.3997 80.2959 59.4777 80.4159C59.5002 80.4492 59.5177 80.4856 59.5297 80.5239C59.5697 80.722 59.5971 80.9224 59.6117 81.1239C59.6501 81.8075 59.6468 82.4928 59.6017 83.1759H59.4537L59.4077 81.8879C59.3897 81.4499 59.0517 81.9599 58.9497 82.4299C58.8477 82.8999 58.6417 83.3979 57.6817 83.4119C56.5637 83.4239 56.0997 83.3759 56.3857 83.1039Z" fill="#DC4D01"/>
<path d="M57.9556 79.8379C57.9556 79.8379 57.4536 82.2379 56.9556 82.7959C56.9556 82.7959 57.8636 83.0759 58.4316 81.8219C59.1676 80.2019 59.5216 80.5179 59.5216 80.5179C59.4425 80.2887 59.3428 80.0671 59.2236 79.8559C58.9636 79.4559 57.9556 79.8379 57.9556 79.8379Z" fill="#AD6359"/>
<path d="M76.5522 31.4301H69.5702C69.0101 31.4301 68.5562 31.884 68.5562 32.4441V35.4301C68.5562 35.9901 69.0101 36.4441 69.5702 36.4441H76.5522C77.1122 36.4441 77.5661 35.9901 77.5661 35.4301V32.4441C77.5661 31.884 77.1122 31.4301 76.5522 31.4301Z" fill="#DC4D01"/>
<path d="M70.9702 35.8721L68.8662 38.7321L72.2602 36.0641L70.9702 35.8721Z" fill="#DC4D01"/>
<path d="M71.048 33.9361C71.0484 33.9948 71.0314 34.0523 70.999 34.1013C70.9666 34.1503 70.9204 34.1885 70.8662 34.2112C70.8121 34.2338 70.7524 34.2399 70.6948 34.2285C70.6372 34.2171 70.5843 34.1889 70.5427 34.1474C70.5012 34.1059 70.473 34.053 70.4616 33.9953C70.4503 33.9377 70.4563 33.8781 70.479 33.8239C70.5016 33.7697 70.5399 33.7235 70.5888 33.6911C70.6378 33.6588 70.6953 33.6417 70.754 33.6421C70.832 33.6421 70.9068 33.6731 70.9619 33.7282C71.0171 33.7833 71.048 33.8581 71.048 33.9361Z" fill="white"/>
<path d="M72.5861 33.9361C72.5865 33.9948 72.5695 34.0523 72.5371 34.1013C72.5047 34.1503 72.4585 34.1885 72.4043 34.2112C72.3502 34.2338 72.2905 34.2399 72.2329 34.2285C72.1753 34.2171 72.1224 34.1889 72.0808 34.1474C72.0393 34.1059 72.0111 34.053 71.9997 33.9953C71.9884 33.9377 71.9944 33.8781 72.0171 33.8239C72.0397 33.7697 72.078 33.7235 72.1269 33.6911C72.1759 33.6588 72.2334 33.6417 72.2921 33.6421C72.3701 33.6421 72.4449 33.6731 72.5 33.7282C72.5552 33.7833 72.5861 33.8581 72.5861 33.9361Z" fill="white"/>
<path d="M74.1242 33.9361C74.1246 33.9948 74.1075 34.0523 74.0752 34.1013C74.0428 34.1503 73.9966 34.1885 73.9424 34.2112C73.8883 34.2338 73.8286 34.2399 73.771 34.2285C73.7134 34.2171 73.6604 34.1889 73.6189 34.1474C73.5774 34.1059 73.5492 34.053 73.5378 33.9953C73.5265 33.9377 73.5325 33.8781 73.5551 33.8239C73.5778 33.7697 73.616 33.7235 73.665 33.6911C73.714 33.6588 73.7715 33.6417 73.8302 33.6421C73.9082 33.6421 73.983 33.6731 74.0381 33.7282C74.0932 33.7833 74.1242 33.8581 74.1242 33.9361Z" fill="white"/>
<path d="M75.6623 33.9361C75.6627 33.9948 75.6456 34.0523 75.6133 34.1013C75.5809 34.1503 75.5347 34.1885 75.4805 34.2112C75.4263 34.2338 75.3667 34.2399 75.3091 34.2285C75.2514 34.2171 75.1985 34.1889 75.157 34.1474C75.1155 34.1059 75.0873 34.053 75.0759 33.9953C75.0645 33.9377 75.0706 33.8781 75.0932 33.8239C75.1159 33.7697 75.1541 33.7235 75.2031 33.6911C75.2521 33.6588 75.3096 33.6417 75.3683 33.6421C75.4463 33.6421 75.5211 33.6731 75.5762 33.7282C75.6313 33.7833 75.6623 33.8581 75.6623 33.9361Z" fill="white"/>
<path d="M50.3351 29.0656L45.3538 26.3824C45.2196 26.3101 45.0522 26.3603 44.9799 26.4945L43.3903 29.4455C43.318 29.5797 43.3682 29.7471 43.5024 29.8194L48.4837 32.5027C48.6179 32.575 48.7853 32.5248 48.8575 32.3906L50.4472 29.4395C50.5195 29.3053 50.4693 29.1379 50.3351 29.0656Z" fill="#DC4D01"/>
<path opacity="0.7" d="M50.3351 29.0656L45.3538 26.3824C45.2196 26.3101 45.0522 26.3603 44.9799 26.4945L43.3903 29.4455C43.318 29.5797 43.3682 29.7471 43.5024 29.8194L48.4837 32.5027C48.6179 32.575 48.7853 32.5248 48.8575 32.3906L50.4472 29.4395C50.5195 29.3053 50.4693 29.1379 50.3351 29.0656Z" fill="white"/>
<path opacity="0.2" d="M44.8501 26.738L46.4001 29.648C46.4596 29.7589 46.5507 29.8496 46.6617 29.9087C46.7728 29.9678 46.8989 29.9926 47.0241 29.98L50.2661 29.66L46.9661 30.146C46.8219 30.1674 46.6746 30.1415 46.5463 30.0723C46.418 30.0031 46.3155 29.8943 46.2541 29.762L44.8501 26.738Z" fill="#252525"/>
<path d="M41.068 26.2001C41.122 25.0881 41.946 22.8461 42.948 22.1601C43.95 21.4741 43.29 22.4241 43.29 22.4241C43.29 22.4241 44.24 21.5001 44.74 21.5281C45.24 21.5561 44.74 22.1281 44.74 22.1281C44.74 22.1281 45.77 21.4941 46.244 21.5281C46.718 21.5621 46.244 22.1101 46.244 22.1101C46.244 22.1101 47.088 21.5101 47.43 21.7921C47.772 22.0741 43.052 25.1921 42.526 26.4601C42 27.7281 41.014 27.3221 41.068 26.2001Z" fill="#DC4D01"/>
<path opacity="0.4" d="M41.068 26.2001C41.122 25.0881 41.946 22.8461 42.948 22.1601C43.95 21.4741 43.29 22.4241 43.29 22.4241C43.29 22.4241 44.24 21.5001 44.74 21.5281C45.24 21.5561 44.74 22.1281 44.74 22.1281C44.74 22.1281 45.77 21.4941 46.244 21.5281C46.718 21.5621 46.244 22.1101 46.244 22.1101C46.244 22.1101 47.088 21.5101 47.43 21.7921C47.772 22.0741 43.052 25.1921 42.526 26.4601C42 27.7281 41.014 27.3221 41.068 26.2001Z" fill="white"/>
<path d="M45.1242 26.0321L45.7542 26.4321C45.7642 26.4383 45.7718 26.4476 45.7757 26.4586C45.7797 26.4696 45.7799 26.4816 45.7762 26.4928C45.7725 26.5039 45.7651 26.5134 45.7553 26.5198C45.7456 26.5262 45.7339 26.5291 45.7222 26.5281L45.0602 26.4761L45.1162 26.9841C45.1179 26.9961 45.1156 27.0083 45.1097 27.0188C45.1038 27.0294 45.0947 27.0378 45.0837 27.0427C45.0727 27.0477 45.0603 27.0489 45.0485 27.0463C45.0367 27.0437 45.0261 27.0373 45.0182 27.0281L44.6362 26.6001L45.1242 26.0321Z" fill="#DC4D01"/>
<path opacity="0.3" d="M45.1242 26.0321L45.7542 26.4321C45.7642 26.4383 45.7718 26.4476 45.7757 26.4586C45.7797 26.4696 45.7799 26.4816 45.7762 26.4928C45.7725 26.5039 45.7651 26.5134 45.7553 26.5198C45.7456 26.5262 45.7339 26.5291 45.7222 26.5281L45.0602 26.4761L45.1162 26.9841C45.1179 26.9961 45.1156 27.0083 45.1097 27.0188C45.1038 27.0294 45.0947 27.0378 45.0837 27.0427C45.0727 27.0477 45.0603 27.0489 45.0485 27.0463C45.0367 27.0437 45.0261 27.0373 45.0182 27.0281L44.6362 26.6001L45.1242 26.0321Z" fill="white"/>
<path d="M36.2744 23.528C36.2744 23.528 37.1464 22.928 38.4644 23.316C38.4644 23.316 38.8424 25.058 39.8804 25.638C40.4504 25.956 41.8444 25.928 42.9484 25.572C44.2584 25.148 44.8984 25.148 45.1364 25.638C45.3744 26.128 45.1104 26.638 44.1084 26.876C43.1064 27.114 42.3084 28.854 40.4944 28.876C38.6804 28.898 37.7164 27.076 38.1744 25.476C37.7408 24.6581 37.0813 23.982 36.2744 23.528Z" fill="#DC4D01"/>
<path opacity="0.5" d="M36.2744 23.528C36.2744 23.528 37.1464 22.928 38.4644 23.316C38.4644 23.316 38.8424 25.058 39.8804 25.638C40.4504 25.956 41.8444 25.928 42.9484 25.572C44.2584 25.148 44.8984 25.148 45.1364 25.638C45.3744 26.128 45.1104 26.638 44.1084 26.876C43.1064 27.114 42.3084 28.854 40.4944 28.876C38.6804 28.898 37.7164 27.076 38.1744 25.476C37.7408 24.6581 37.0813 23.982 36.2744 23.528Z" fill="white"/>
<path d="M44.6361 25.9681C44.6361 25.9859 44.6308 26.0033 44.6209 26.0181C44.611 26.0329 44.5969 26.0444 44.5805 26.0512C44.5641 26.058 44.546 26.0598 44.5285 26.0563C44.511 26.0529 44.495 26.0443 44.4824 26.0317C44.4698 26.0191 44.4613 26.0031 44.4578 25.9856C44.4543 25.9682 44.4561 25.9501 44.4629 25.9336C44.4697 25.9172 44.4813 25.9031 44.4961 25.8932C44.5109 25.8833 44.5283 25.8781 44.5461 25.8781C44.5699 25.8781 44.5928 25.8875 44.6097 25.9044C44.6266 25.9213 44.6361 25.9442 44.6361 25.9681Z" fill="#263238"/>
<path d="M40.0724 27.4321C38.9984 27.7241 36.6104 27.6321 35.6504 26.8921C34.6904 26.1521 35.7944 26.4921 35.7944 26.4921C35.7944 26.4921 34.6244 25.8741 34.4944 25.3901C34.3644 24.9061 35.0704 25.2021 35.0704 25.2021C35.0704 25.2021 34.1504 24.4201 34.0304 23.9601C33.9104 23.5001 34.5824 23.7801 34.5824 23.7801C34.5824 23.7801 33.7444 23.1641 33.9144 22.7501C34.0844 22.3361 38.5024 25.8641 39.8684 25.9741C41.2344 26.0841 41.1604 27.1361 40.0724 27.4321Z" fill="#DC4D01"/>
<path opacity="0.4" d="M40.0724 27.4321C38.9984 27.7241 36.6104 27.6321 35.6504 26.8921C34.6904 26.1521 35.7944 26.4921 35.7944 26.4921C35.7944 26.4921 34.6244 25.8741 34.4944 25.3901C34.3644 24.9061 35.0704 25.2021 35.0704 25.2021C35.0704 25.2021 34.1504 24.4201 34.0304 23.9601C33.9104 23.5001 34.5824 23.7801 34.5824 23.7801C34.5824 23.7801 33.7444 23.1641 33.9144 22.7501C34.0844 22.3361 38.5024 25.8641 39.8684 25.9741C41.2344 26.0841 41.1604 27.1361 40.0724 27.4321Z" fill="white"/>
<path d="M33.0323 22.566C33.0244 22.568 33.0162 22.568 33.0083 22.566C32.8223 22.5 32.6323 22.438 32.4403 22.38C32.4213 22.374 32.4055 22.3608 32.3961 22.3432C32.3868 22.3257 32.3847 22.3051 32.3903 22.286C32.3963 22.267 32.4095 22.2512 32.4271 22.2418C32.4447 22.2325 32.4652 22.2304 32.4843 22.236C32.6843 22.294 32.8703 22.358 33.0583 22.436C33.0751 22.4417 33.0892 22.4533 33.0982 22.4685C33.1072 22.4838 33.1104 22.5018 33.1072 22.5192C33.1041 22.5366 33.0948 22.5523 33.0811 22.5635C33.0673 22.5747 33.05 22.5805 33.0323 22.58V22.566Z" fill="#DC4D01"/>
<path d="M20.9442 38.8001C20.9244 38.8001 20.9054 38.7924 20.8912 38.7786C20.877 38.7647 20.8687 38.7459 20.8682 38.7261C20.8682 38.7063 20.8759 38.6873 20.8898 38.6731C20.9036 38.6589 20.9224 38.6506 20.9422 38.6501C21.3401 38.6445 21.7368 38.6057 22.1282 38.5341C22.1478 38.5306 22.168 38.5349 22.1845 38.5461C22.2009 38.5573 22.2123 38.5746 22.2162 38.5941C22.2182 38.6038 22.2183 38.6139 22.2163 38.6236C22.2144 38.6334 22.2105 38.6426 22.2049 38.6508C22.1993 38.6591 22.1921 38.6661 22.1837 38.6714C22.1754 38.6768 22.166 38.6804 22.1562 38.6821C21.7562 38.7553 21.3508 38.7948 20.9442 38.8001ZM19.7442 38.7361C19.3406 38.6931 18.9399 38.6263 18.5442 38.5361C18.5246 38.5318 18.5075 38.5199 18.4967 38.5031C18.4858 38.4862 18.4821 38.4657 18.4862 38.4461C18.491 38.4269 18.503 38.4103 18.5198 38.3998C18.5367 38.3894 18.5569 38.3859 18.5762 38.3901C18.9657 38.4778 19.3596 38.5446 19.7562 38.5901C19.774 38.593 19.7902 38.6022 19.8019 38.6159C19.8135 38.6296 19.8199 38.6471 19.8199 38.6651C19.8199 38.6831 19.8135 38.7006 19.8019 38.7143C19.7902 38.728 19.774 38.7372 19.7562 38.7401L19.7442 38.7361ZM23.2982 38.3361C23.2838 38.3362 23.2697 38.3321 23.2577 38.3242C23.2456 38.3164 23.236 38.3053 23.2302 38.2921C23.2259 38.2831 23.2235 38.2733 23.2231 38.2633C23.2227 38.2533 23.2243 38.2433 23.2278 38.234C23.2314 38.2246 23.2368 38.2161 23.2437 38.2089C23.2507 38.2017 23.259 38.196 23.2682 38.1921C23.6315 38.0355 23.9687 37.8244 24.2682 37.5661C24.2835 37.5544 24.3027 37.549 24.3219 37.5509C24.341 37.5528 24.3587 37.5619 24.3714 37.5764C24.3841 37.5909 24.3909 37.6096 24.3903 37.6289C24.3897 37.6481 24.3818 37.6664 24.3682 37.6801C24.0566 37.9474 23.7068 38.1665 23.3302 38.3301C23.3192 38.3362 23.3068 38.3397 23.2942 38.3401L23.2982 38.3361ZM17.4002 38.2001C17.3923 38.2021 17.3841 38.2021 17.3762 38.2001C16.9962 38.0741 16.6142 37.9261 16.2442 37.7641C16.2278 37.7547 16.2155 37.7396 16.2097 37.7216C16.2038 37.7037 16.2049 37.6842 16.2126 37.667C16.2203 37.6497 16.2342 37.636 16.2515 37.6285C16.2688 37.6209 16.2883 37.6201 16.3062 37.6261C16.6702 37.7861 17.0462 37.9321 17.4242 38.0581C17.4429 38.0649 17.4582 38.0788 17.4668 38.0967C17.4754 38.1147 17.4766 38.1353 17.4702 38.1541C17.4646 38.1679 17.4548 38.1798 17.4424 38.188C17.4299 38.1962 17.4152 38.2004 17.4002 38.2001ZM15.2002 37.2281C15.1885 37.2317 15.176 37.2317 15.1642 37.2281C14.8062 37.0281 14.4582 36.8121 14.1342 36.5861C14.1262 36.5805 14.1194 36.5733 14.1141 36.565C14.1089 36.5567 14.1053 36.5475 14.1037 36.5378C14.102 36.5282 14.1023 36.5183 14.1044 36.5087C14.1066 36.4992 14.1106 36.4901 14.1162 36.4821C14.1219 36.4741 14.129 36.4673 14.1373 36.462C14.1456 36.4568 14.1548 36.4532 14.1645 36.4516C14.1741 36.4499 14.184 36.4501 14.1936 36.4523C14.2032 36.4544 14.2122 36.4585 14.2202 36.4641C14.5402 36.6861 14.8822 36.9001 15.2382 37.0981C15.2468 37.1029 15.2544 37.1093 15.2605 37.1171C15.2666 37.1248 15.2711 37.1337 15.2737 37.1432C15.2763 37.1527 15.277 37.1626 15.2757 37.1724C15.2744 37.1822 15.2712 37.1916 15.2662 37.2001C15.2578 37.2131 15.2456 37.2232 15.2314 37.2293C15.2171 37.2353 15.2014 37.237 15.1862 37.2341L15.2002 37.2281ZM25.0882 36.7701C25.0765 36.7737 25.064 36.7737 25.0522 36.7701C25.0436 36.7653 25.036 36.7589 25.0299 36.7511C25.0239 36.7434 25.0194 36.7345 25.0168 36.725C25.0142 36.7155 25.0135 36.7056 25.0148 36.6958C25.016 36.686 25.0193 36.6766 25.0242 36.6681C25.0862 36.5601 25.1442 36.4481 25.1962 36.3321C25.3075 36.0872 25.3946 35.832 25.4562 35.5701C25.4614 35.5507 25.4739 35.5341 25.491 35.5237C25.5081 35.5132 25.5286 35.5098 25.5482 35.5141C25.5675 35.5193 25.584 35.5318 25.5941 35.549C25.6042 35.5663 25.6071 35.5868 25.6022 35.6061C25.537 35.8766 25.4466 36.1404 25.3322 36.3941C25.2782 36.5141 25.2182 36.6321 25.1542 36.7441C25.1457 36.7569 25.1335 36.7668 25.1192 36.7725C25.1049 36.7783 25.0892 36.7795 25.0742 36.7761L25.0882 36.7701ZM13.2282 35.8461C13.2106 35.8458 13.1937 35.8395 13.1802 35.8281C12.8756 35.5591 12.5903 35.269 12.3262 34.9601C12.3124 34.9459 12.3047 34.9269 12.3047 34.9071C12.3047 34.8873 12.3124 34.8683 12.3262 34.8541C12.3401 34.8404 12.3588 34.8328 12.3782 34.8328C12.3977 34.8328 12.4164 34.8404 12.4302 34.8541C12.6895 35.1565 12.9695 35.4406 13.2682 35.7041C13.282 35.7183 13.2897 35.7373 13.2897 35.7571C13.2897 35.7769 13.282 35.7959 13.2682 35.8101C13.2633 35.8209 13.2558 35.8304 13.2464 35.8377C13.237 35.845 13.2259 35.85 13.2142 35.8521L13.2282 35.8461ZM25.6642 34.4581C25.6543 34.4581 25.6445 34.4561 25.6354 34.4523C25.6263 34.4484 25.6181 34.4428 25.6112 34.4357C25.6043 34.4286 25.5989 34.4202 25.5953 34.411C25.5917 34.4018 25.5899 34.392 25.5902 34.3821C25.5873 33.9844 25.5505 33.5876 25.4802 33.1961C25.4767 33.1765 25.481 33.1563 25.4922 33.1398C25.5034 33.1234 25.5207 33.112 25.5402 33.1081C25.56 33.1052 25.5802 33.1099 25.5966 33.1215C25.613 33.133 25.6243 33.1504 25.6282 33.1701C25.7002 33.5702 25.7377 33.9756 25.7402 34.3821C25.7402 34.4023 25.7322 34.4216 25.718 34.4358C25.7037 34.4501 25.6844 34.4581 25.6642 34.4581ZM25.2642 32.0861C25.248 32.0859 25.2323 32.0806 25.2194 32.0709C25.2064 32.0612 25.1969 32.0476 25.1922 32.0321C25.0902 31.6821 24.9642 31.3101 24.8102 30.8941C24.8064 30.8848 24.8045 30.8748 24.8047 30.8648C24.8048 30.8547 24.807 30.8448 24.8111 30.8356C24.8153 30.8265 24.8212 30.8182 24.8286 30.8114C24.836 30.8046 24.8447 30.7994 24.8542 30.7961C24.8728 30.7896 24.8932 30.7905 24.9111 30.7987C24.929 30.8069 24.943 30.8218 24.9502 30.8401C25.1062 31.2601 25.2322 31.6401 25.3362 31.9881C25.3419 32.0072 25.3398 32.0277 25.3304 32.0453C25.3211 32.0629 25.3052 32.0761 25.2862 32.0821L25.2642 32.0861ZM24.4362 29.8161C24.4223 29.8162 24.4087 29.8123 24.397 29.8049C24.3853 29.7974 24.376 29.7867 24.3702 29.7741C24.2422 29.4541 24.0682 29.0861 23.8862 28.6961V28.6761C23.881 28.6587 23.8822 28.6399 23.8896 28.6233C23.8971 28.6067 23.9102 28.5933 23.9267 28.5856C23.9431 28.5778 23.9618 28.5762 23.9794 28.5811C23.9969 28.586 24.0121 28.597 24.0222 28.6121V28.6321C24.2062 29.0321 24.3782 29.3941 24.5062 29.7081C24.5143 29.7269 24.5146 29.7482 24.5071 29.7673C24.4997 29.7864 24.485 29.8018 24.4662 29.8101L24.4362 29.8161ZM23.4362 27.6161C23.4215 27.6166 23.407 27.6126 23.3945 27.6048C23.382 27.597 23.3722 27.5856 23.3662 27.5721C23.1862 27.1541 23.0422 26.7841 22.9282 26.4421C22.9218 26.4233 22.923 26.4027 22.9316 26.3847C22.9402 26.3668 22.9555 26.3529 22.9742 26.3461C22.9933 26.3398 23.0141 26.3413 23.0321 26.3503C23.0501 26.3593 23.0638 26.375 23.0702 26.3941C23.1822 26.7321 23.3242 27.0981 23.5042 27.5121C23.5081 27.5212 23.5102 27.5309 23.5103 27.5408C23.5104 27.5506 23.5086 27.5604 23.5048 27.5695C23.5011 27.5787 23.4956 27.5869 23.4886 27.5939C23.4817 27.6009 23.4734 27.6064 23.4642 27.6101C23.4575 27.6172 23.4493 27.6227 23.4402 27.6261L23.4362 27.6161ZM22.7042 25.3241C22.6863 25.3239 22.6691 25.3173 22.6556 25.3056C22.642 25.2939 22.633 25.2778 22.6302 25.2601C22.5959 25.0458 22.5785 24.8291 22.5782 24.6121C22.5766 24.4182 22.594 24.2246 22.6302 24.0341C22.636 24.0164 22.6481 24.0014 22.6642 23.992C22.6803 23.9825 22.6993 23.9794 22.7176 23.9831C22.7359 23.9868 22.7522 23.9971 22.7633 24.0121C22.7745 24.027 22.7798 24.0455 22.7782 24.0641C22.7436 24.2447 22.7269 24.4282 22.7282 24.6121C22.7289 24.8217 22.7456 25.031 22.7782 25.2381C22.7806 25.2576 22.7756 25.2773 22.7641 25.2933C22.7526 25.3092 22.7355 25.3202 22.7162 25.3241H22.7042ZM23.2262 23.0521C23.2088 23.0526 23.1918 23.0469 23.1782 23.0361C23.1644 23.0219 23.1567 23.0029 23.1567 22.9831C23.1567 22.9633 23.1644 22.9443 23.1782 22.9301C23.4467 22.6164 23.7734 22.3577 24.1402 22.1681C24.1578 22.1588 24.1783 22.1567 24.1973 22.1623C24.2164 22.1679 24.2325 22.1808 24.2422 22.1981C24.2509 22.216 24.2524 22.2365 24.2464 22.2554C24.2405 22.2744 24.2275 22.2904 24.2102 22.3001C23.8609 22.4807 23.5499 22.7273 23.2942 23.0261C23.2876 23.0372 23.2782 23.0463 23.267 23.0526C23.2558 23.0589 23.2431 23.0622 23.2302 23.0621L23.2262 23.0521ZM31.2902 22.0721H31.2742C30.8902 21.9921 30.4922 21.9241 30.0902 21.8721C30.0805 21.8709 30.0711 21.8677 30.0625 21.8628C30.054 21.8579 30.0466 21.8514 30.0406 21.8435C30.0346 21.8357 30.0303 21.8268 30.0278 21.8173C30.0254 21.8077 30.0248 21.7978 30.0262 21.7881C30.0274 21.7784 30.0306 21.7689 30.0355 21.7604C30.0404 21.7519 30.047 21.7444 30.0548 21.7385C30.0626 21.7325 30.0715 21.7282 30.0811 21.7257C30.0906 21.7232 30.1005 21.7227 30.1102 21.7241C30.5102 21.7761 30.9102 21.8441 31.3102 21.9241C31.3282 21.9282 31.344 21.9387 31.3548 21.9537C31.3655 21.9686 31.3705 21.9869 31.3688 22.0052C31.3671 22.0236 31.3588 22.0406 31.3455 22.0533C31.3321 22.066 31.3146 22.0734 31.2962 22.0741L31.2902 22.0721ZM25.2902 21.9021C25.2805 21.9032 25.2707 21.9023 25.2613 21.8995C25.2519 21.8968 25.2432 21.8922 25.2355 21.8861C25.2279 21.88 25.2216 21.8724 25.2169 21.8638C25.2122 21.8552 25.2093 21.8458 25.2082 21.8361C25.2072 21.8264 25.208 21.8166 25.2108 21.8072C25.2135 21.7978 25.2181 21.7891 25.2242 21.7814C25.2304 21.7738 25.2379 21.7675 25.2465 21.7628C25.2551 21.7581 25.2645 21.7552 25.2742 21.7541C25.6692 21.6655 26.0704 21.6073 26.4742 21.5801C26.4941 21.579 26.5135 21.5857 26.5285 21.5988C26.5434 21.6119 26.5527 21.6303 26.5542 21.6501C26.555 21.66 26.5539 21.6699 26.5508 21.6793C26.5477 21.6888 26.5427 21.6975 26.5362 21.7049C26.5296 21.7124 26.5217 21.7185 26.5127 21.7228C26.5038 21.7271 26.4941 21.7296 26.4842 21.7301C26.087 21.7558 25.6925 21.8126 25.3042 21.9001L25.2902 21.9021ZM28.8902 21.7621C28.5422 21.7381 28.1282 21.7121 27.6902 21.7041C27.6704 21.7036 27.6516 21.6953 27.6378 21.6812C27.6239 21.667 27.6162 21.6479 27.6162 21.6281C27.6162 21.6182 27.6182 21.6084 27.622 21.5993C27.6259 21.5902 27.6315 21.582 27.6386 21.5751C27.6457 21.5682 27.6541 21.5628 27.6633 21.5592C27.6725 21.5556 27.6823 21.5538 27.6922 21.5541C28.1342 21.5641 28.5522 21.5881 28.8922 21.6121C28.9021 21.6126 28.9118 21.6151 28.9207 21.6194C28.9297 21.6237 28.9376 21.6298 28.9442 21.6373C28.9507 21.6447 28.9557 21.6534 28.9588 21.6629C28.9619 21.6723 28.963 21.6822 28.9622 21.6921C28.9637 21.7102 28.9586 21.7281 28.948 21.7428C28.9374 21.7575 28.9218 21.7679 28.9042 21.7721L28.8902 21.7621Z" fill="#DC4D01"/>
<path d="M11.6722 34.0001C11.6588 34.0003 11.6456 33.9969 11.6339 33.9902C11.6223 33.9835 11.6127 33.9738 11.6062 33.9621C11.505 33.7865 11.4149 33.6048 11.3362 33.4181C11.3323 33.409 11.3302 33.3993 11.3301 33.3894C11.33 33.3796 11.3318 33.3698 11.3356 33.3607C11.3393 33.3515 11.3448 33.3432 11.3518 33.3363C11.3588 33.3293 11.3671 33.3238 11.3762 33.3201C11.3945 33.3127 11.415 33.3127 11.4333 33.3202C11.4516 33.3277 11.4663 33.342 11.4742 33.3601C11.5514 33.5409 11.6389 33.7172 11.7362 33.8881C11.7437 33.8992 11.7479 33.9122 11.7484 33.9256C11.7488 33.939 11.7456 33.9523 11.7389 33.9639C11.7323 33.9756 11.7225 33.9851 11.7107 33.9915C11.6989 33.9979 11.6856 34.0009 11.6722 34.0001Z" fill="#DC4D01"/>
<path d="M35.9621 49.808H28.3701V51.364H35.9621V49.808Z" fill="white"/>
<path opacity="0.1" d="M35.9621 49.808H28.3701V51.364H35.9621V49.808Z" fill="#252525"/>
<path opacity="0.1" d="M31.5681 49.808H28.3701V51.364H31.5681V49.808Z" fill="#252525"/>
<path opacity="0.1" d="M28.3701 50.032H35.1281L28.3701 50.224V50.032Z" fill="#252525"/>
<path opacity="0.1" d="M35.962 50.302L30.104 50.448H35.962V50.302Z" fill="#252525"/>
<path opacity="0.1" d="M28.6797 50.738L31.5677 50.62L35.8137 50.738L31.5677 50.804L28.6797 50.738Z" fill="#252525"/>
<path opacity="0.1" d="M28.3701 51.068H33.3741L28.3701 51.186V51.068Z" fill="#252525"/>
<path opacity="0.1" d="M35.9499 51.186L32.6079 51.248H35.9619L35.9499 51.186Z" fill="#252525"/>
<path d="M34.906 48.2521H27.314V49.8081H34.906V48.2521Z" fill="white"/>
<path opacity="0.1" d="M34.906 48.2521H27.314V49.8081H34.906V48.2521Z" fill="#252525"/>
<path opacity="0.1" d="M30.512 48.2521H27.314V49.8081H30.512V48.2521Z" fill="#252525"/>
<path opacity="0.1" d="M27.314 48.4761H34.072L27.314 48.6661V48.4761Z" fill="#252525"/>
<path opacity="0.1" d="M34.9059 48.746L29.0479 48.892H34.9059V48.746Z" fill="#252525"/>
<path opacity="0.1" d="M27.6221 49.182L30.5101 49.062L34.7561 49.182L30.5101 49.248L27.6221 49.182Z" fill="#252525"/>
<path opacity="0.1" d="M27.314 49.51H32.318L27.314 49.63V49.51Z" fill="#252525"/>
<path opacity="0.1" d="M34.8938 49.63L31.5518 49.692H34.9058L34.8938 49.63Z" fill="#252525"/>
<path d="M35.7717 46.694H28.1797V48.25H35.7717V46.694Z" fill="white"/>
<path opacity="0.1" d="M35.7717 46.694H28.1797V48.25H35.7717V46.694Z" fill="#252525"/>
<path opacity="0.1" d="M31.3777 46.694H28.1797V48.25H31.3777V46.694Z" fill="#252525"/>
<path opacity="0.1" d="M28.1797 46.918H34.9377L28.1797 47.11V46.918Z" fill="#252525"/>
<path opacity="0.1" d="M35.7721 47.188L29.9141 47.334H35.7721V47.188Z" fill="#252525"/>
<path opacity="0.1" d="M28.4897 47.624L31.3777 47.506L35.6237 47.624L31.3777 47.69L28.4897 47.624Z" fill="#252525"/>
<path opacity="0.1" d="M28.1797 47.954H33.1837L28.1797 48.072V47.954Z" fill="#252525"/>
<path opacity="0.1" d="M35.7619 48.072L32.4199 48.134H35.7719L35.7619 48.072Z" fill="#252525"/>
<path d="M40.8301 51.3321L41.0261 50.5861H49.1381L52.8721 50.9601L53.0141 51.3321H40.8301Z" fill="#263238"/>
<path opacity="0.4" d="M49.1381 50.5861V51.3321H40.8301L41.0261 50.5861H49.1381Z" fill="#252525"/>
<path d="M47.508 47.016C47.5189 47.1065 47.5102 47.1982 47.4827 47.285C47.4551 47.3719 47.4093 47.4518 47.3483 47.5194C47.2873 47.5871 47.2125 47.6409 47.129 47.6772C47.0454 47.7135 46.9551 47.7315 46.864 47.73H34.44C34.2457 47.7258 34.0596 47.651 33.9164 47.5196C33.7733 47.3882 33.6828 47.2092 33.662 47.016L32.924 39.062C32.916 38.9843 32.9214 38.9059 32.94 38.83C32.9745 38.6903 33.0554 38.5665 33.1695 38.479C33.2836 38.3914 33.4242 38.3452 33.568 38.348H46C46.1943 38.3522 46.3804 38.427 46.5235 38.5584C46.6667 38.6898 46.7571 38.8688 46.778 39.062L47.508 47.016Z" fill="#263238"/>
<path opacity="0.4" d="M46.82 47.7301H34.44C34.2457 47.7259 34.0596 47.6511 33.9164 47.5197C33.7733 47.3883 33.6828 47.2093 33.662 47.0161L32.924 39.0621C32.916 38.9844 32.9214 38.9059 32.94 38.8301H45.32C45.5143 38.8343 45.7004 38.9091 45.8435 39.0405C45.9867 39.1719 46.0771 39.3509 46.098 39.5441L46.836 47.4981C46.844 47.5758 46.8386 47.6542 46.82 47.7301Z" fill="#252525"/>
<path d="M38.2838 42.8521H40.8538L40.1698 50.2101L44.2338 50.8201V51.3321H35.6738V50.8201L37.4278 50.2101L38.2838 42.8521Z" fill="#263238"/>
<path opacity="0.1" d="M40.8537 42.8521L38.9497 51.216L37.4277 51.1701L38.2837 42.8521H40.8537Z" fill="white"/>
<path d="M40.842 83.414H39.618L37.416 52.764H39.042L40.842 83.414Z" fill="#263238"/>
<path opacity="0.4" d="M40.844 83.414H39.618L37.524 54.288L37.416 52.814H39.042L39.13 54.288L40.844 83.414Z" fill="white"/>
<path opacity="0.2" d="M39.13 54.214H37.524L37.416 52.814H39.042L39.13 54.214Z" fill="#252525"/>
<path d="M49.8337 83.414H48.6097L48.4097 52.764H50.0337L49.8337 83.414Z" fill="#263238"/>
<path opacity="0.5" d="M50.0357 52.814L50.0037 57.76L49.8357 83.414H48.6097L48.4417 57.76L48.4097 52.814H50.0357Z" fill="white"/>
<path opacity="0.2" d="M50.0357 52.814L50.0037 57.814H48.4417L48.4097 52.814H50.0357Z" fill="#252525"/>
<path d="M62.842 83.414H61.618L59.416 52.764H61.042L62.842 83.414Z" fill="#263238"/>
<path opacity="0.5" d="M62.844 83.414H61.618L59.524 54.288L59.416 52.814H61.042L61.13 54.288L62.844 83.414Z" fill="white"/>
<path opacity="0.2" d="M61.13 54.214H59.524L59.416 52.814H61.042L61.13 54.214Z" fill="#252525"/>
<path d="M26.8261 83.414H25.6021L27.4021 52.764H29.0281L26.8261 83.414Z" fill="#263238"/>
<path opacity="0.5" d="M29.0281 52.814L28.9201 54.288L26.8261 83.414H25.6021L27.3141 54.288L27.4021 52.814H29.0281Z" fill="white"/>
<path opacity="0.2" d="M27.402 52.814H29.028L28.92 54.214H27.314L27.402 52.814Z" fill="#252525"/>
<path d="M26.1138 52H62.3298V53.102C62.3298 53.1587 62.3186 53.2149 62.2969 53.2673C62.2752 53.3197 62.2434 53.3674 62.2032 53.4075C62.1631 53.4476 62.1155 53.4794 62.0631 53.5011C62.0107 53.5228 61.9545 53.534 61.8978 53.534H26.5458C26.4312 53.534 26.3213 53.4885 26.2403 53.4075C26.1593 53.3265 26.1138 53.2166 26.1138 53.102V52Z" fill="#DC4D01"/>
<path opacity="0.6" d="M26.1138 52H62.3298V53.102C62.3298 53.1587 62.3186 53.2149 62.2969 53.2673C62.2752 53.3197 62.2434 53.3674 62.2032 53.4075C62.1631 53.4476 62.1155 53.4794 62.0631 53.5011C62.0107 53.5228 61.9545 53.534 61.8978 53.534H26.5458C26.4312 53.534 26.3213 53.4885 26.2403 53.4075C26.1593 53.3265 26.1138 53.2166 26.1138 53.102V52Z" fill="white"/>
<path opacity="0.2" d="M62.3298 51.998H26.1138V52.766H62.3298V51.998Z" fill="#252525"/>
<path d="M63.0899 52.2H25.3539C25.2393 52.2 25.1294 52.1545 25.0484 52.0734C24.9674 51.9924 24.9219 51.8826 24.9219 51.768C24.9219 51.6532 24.9673 51.5431 25.0483 51.4618C25.1292 51.3805 25.2391 51.3345 25.3539 51.334H63.0899C63.2046 51.3345 63.3145 51.3805 63.3955 51.4618C63.4764 51.5431 63.5219 51.6532 63.5219 51.768C63.5219 51.8826 63.4764 51.9924 63.3953 52.0734C63.3143 52.1545 63.2045 52.2 63.0899 52.2Z" fill="#DC4D01"/>
<path opacity="0.6" d="M63.0899 52.2H25.3539C25.2393 52.2 25.1294 52.1545 25.0484 52.0734C24.9674 51.9924 24.9219 51.8826 24.9219 51.768C24.9219 51.6532 24.9673 51.5431 25.0483 51.4618C25.1292 51.3805 25.2391 51.3345 25.3539 51.334H63.0899C63.2046 51.3345 63.3145 51.3805 63.3955 51.4618C63.4764 51.5431 63.5219 51.6532 63.5219 51.768C63.5219 51.8826 63.4764 51.9924 63.3953 52.0734C63.3143 52.1545 63.2045 52.2 63.0899 52.2Z" fill="white"/>
<path d="M54.1621 50L54.6261 49.304C54.6718 49.2357 54.7337 49.1796 54.8063 49.1409C54.8789 49.1022 54.9599 49.082 55.0421 49.082H55.6301C55.6789 49.0822 55.7275 49.0896 55.7741 49.104L57.8721 49.74C57.9914 49.7756 58.0928 49.8549 58.1561 49.962L58.4581 50.468L54.1621 50Z" fill="#DC4D01"/>
<path opacity="0.2" d="M58.4577 50.468L55.3997 50.136L54.1577 50L54.6217 49.304C54.6674 49.2357 54.7293 49.1796 54.8019 49.1409C54.8745 49.1022 54.9555 49.082 55.0377 49.082H55.6257C55.6752 49.0823 55.7243 49.0897 55.7717 49.104L55.8177 49.118L57.8677 49.74C57.9876 49.7753 58.0898 49.8546 58.1537 49.962L58.4577 50.468Z" fill="#252525"/>
<path opacity="0.2" d="M58.4579 50.468L55.3999 50.136L55.8179 49.118L57.8679 49.74C57.9878 49.7754 58.0899 49.8546 58.1539 49.962L58.4579 50.468Z" fill="#252525"/>
<path d="M59.9098 51.2661V51.3321H53.4258L53.6658 50.3941C53.7103 50.2218 53.8109 50.0692 53.9518 49.9606C54.0927 49.8519 54.2658 49.7933 54.4438 49.7941H57.3198C57.4154 49.7936 57.5103 49.8106 57.5998 49.8441L57.9598 49.9781L59.3878 50.5101C59.5419 50.5672 59.6747 50.6704 59.7681 50.8057C59.8615 50.9409 59.911 51.1017 59.9098 51.2661Z" fill="#DC4D01"/>
<path opacity="0.2" d="M59.91 51.2661V51.3321H57.248L57.3901 50.3181C57.3992 50.2552 57.4223 50.1952 57.4576 50.1424C57.493 50.0896 57.5397 50.0454 57.5943 50.0129C57.649 49.9805 57.7102 49.9608 57.7735 49.9551C57.8367 49.9494 57.9005 49.9579 57.96 49.9801L59.388 50.5121C59.5419 50.5691 59.6744 50.672 59.7678 50.8068C59.8612 50.9417 59.9108 51.102 59.91 51.2661Z" fill="#252525"/>
<path d="M57.6621 50.644L58.5101 48.102C58.5184 48.0761 58.5322 48.0523 58.5507 48.0324C58.5691 48.0124 58.5917 47.9967 58.6169 47.9864C58.6421 47.9761 58.6692 47.9714 58.6964 47.9728C58.7235 47.9741 58.7501 47.9813 58.7741 47.994C58.811 48.0152 58.8402 48.0475 58.8574 48.0863C58.8747 48.1252 58.8791 48.1685 58.8701 48.21L58.1561 50.922C58.1561 50.922 57.6821 51.114 57.6621 50.644Z" fill="#263238"/>
<path opacity="0.2" d="M54.1616 51.1221H53.7856L53.8576 50.7521H54.2336L54.1616 51.1221Z" fill="#252525"/>
<path opacity="0.2" d="M54.7217 51.108H54.3457L54.4177 50.738H54.7937L54.7217 51.108Z" fill="#252525"/>
</svg>
