<svg width="100" height="100" viewBox="0 0 100 100" fill="none" xmlns="http://www.w3.org/2000/svg">
<path d="M100 76.48H0V76.53H100V76.48Z" fill="#EBEBEB"/>
<path d="M89.98 79.698H83.356V79.748H89.98V79.698Z" fill="#EBEBEB"/>
<path d="M66.2439 80.2419H64.5059V80.2919H66.2439V80.2419Z" fill="#EBEBEB"/>
<path d="M83.1559 77.842H79.3179V77.892H83.1559V77.842Z" fill="#EBEBEB"/>
<path d="M19.1302 78.178H10.4922V78.228H19.1302V78.178Z" fill="#EBEBEB"/>
<path d="M22.1781 78.178H20.9121V78.228H22.1781V78.178Z" fill="#EBEBEB"/>
<path d="M45.0299 79.022H26.2939V79.072H45.0299V79.022Z" fill="#EBEBEB"/>
<path d="M47.4001 67.56H8.78209C8.47956 67.5595 8.1896 67.4389 7.97587 67.2248C7.76213 67.0107 7.64209 66.7205 7.64209 66.418V12.132C7.64472 11.8312 7.76593 11.5436 7.97938 11.3316C8.19283 11.1197 8.48128 11.0005 8.78209 11H47.4001C47.703 11 47.9934 11.1203 48.2076 11.3345C48.4218 11.5487 48.5421 11.8391 48.5421 12.142V66.418C48.5421 66.7209 48.4218 67.0114 48.2076 67.2255C47.9934 67.4397 47.703 67.56 47.4001 67.56ZM8.78209 11.04C8.49282 11.0405 8.21558 11.1558 8.01122 11.3605C7.80686 11.5653 7.69209 11.8427 7.69209 12.132V66.418C7.69209 66.7073 7.80686 66.9847 8.01122 67.1895C8.21558 67.3942 8.49282 67.5095 8.78209 67.51H47.4001C47.6895 67.5095 47.967 67.3943 48.1717 67.1896C48.3763 66.9849 48.4916 66.7075 48.4921 66.418V12.132C48.4916 11.8425 48.3763 11.5651 48.1717 11.3604C47.967 11.1557 47.6895 11.0405 47.4001 11.04H8.78209Z" fill="#EBEBEB"/>
<path d="M90.6619 67.56H52.0419C51.7392 67.5595 51.449 67.439 51.235 67.2249C51.0209 67.0109 50.9004 66.7207 50.8999 66.418V12.132C50.9031 11.831 51.0247 11.5434 51.2385 11.3315C51.4522 11.1196 51.7409 11.0005 52.0419 11H90.6619C90.9624 11.001 91.2503 11.1204 91.4633 11.3323C91.6763 11.5442 91.7973 11.8316 91.7999 12.132V66.418C91.7999 66.7202 91.6801 67.0101 91.4668 67.2241C91.2535 67.4382 90.9641 67.5589 90.6619 67.56ZM52.0419 11.04C51.7524 11.0405 51.475 11.1557 51.2703 11.3604C51.0656 11.5651 50.9504 11.8425 50.9499 12.132V66.418C50.9504 66.7075 51.0656 66.9849 51.2703 67.1896C51.475 67.3943 51.7524 67.5095 52.0419 67.51H90.6619C90.9514 67.5095 91.2288 67.3943 91.4335 67.1896C91.6382 66.9849 91.7534 66.7075 91.7539 66.418V12.132C91.7534 11.8425 91.6382 11.5651 91.4335 11.3604C91.2288 11.1557 90.9514 11.0405 90.6619 11.04H52.0419Z" fill="#EBEBEB"/>
<path d="M77.7401 63.376C83.8363 63.376 88.7781 59.5758 88.7781 54.888C88.7781 50.2002 83.8363 46.4 77.7401 46.4C71.644 46.4 66.7021 50.2002 66.7021 54.888C66.7021 59.5758 71.644 63.376 77.7401 63.376Z" fill="#EBEBEB"/>
<path d="M75.4301 52.698C80.2493 52.698 84.1561 49.693 84.1561 45.986C84.1561 42.2791 80.2493 39.274 75.4301 39.274C70.6109 39.274 66.7041 42.2791 66.7041 45.986C66.7041 49.693 70.6109 52.698 75.4301 52.698Z" fill="#EBEBEB"/>
<path d="M76.0979 16.618C76.0979 16.618 77.5399 15.372 75.6679 15.074C72.2679 14.532 69.1939 16.226 68.8039 16.452C69.2039 15.666 68.9199 15.052 66.8699 15.274C65.2559 15.444 60.9219 17.6 60.9219 17.6H82.1059C85.0319 14.97 76.0979 16.618 76.0979 16.618Z" fill="#F0F0F0"/>
<path d="M19.0542 26.1339C19.0542 26.1339 20.2422 25.2099 19.2302 24.9899C17.3962 24.5899 15.1282 25.8439 14.8302 26.0099C15.2842 25.4279 15.2802 24.9799 14.0302 25.1379C13.0302 25.2639 9.91016 26.8599 9.91016 26.8599H22.2942C24.7322 24.9119 19.0542 26.1339 19.0542 26.1339Z" fill="#F0F0F0"/>
<path d="M84.8739 24.288C84.8739 24.288 85.7179 23.632 84.9999 23.474C83.6959 23.19 82.0839 24.074 81.8779 24.2C82.2019 23.786 82.1979 23.468 81.3059 23.58C80.6019 23.67 78.3779 24.804 78.3779 24.804H87.1779C88.9079 23.42 84.8739 24.288 84.8739 24.288Z" fill="#F5F5F5"/>
<path d="M22.1782 71.7899C25.4455 71.7899 28.0942 69.7528 28.0942 67.2399C28.0942 64.727 25.4455 62.6899 22.1782 62.6899C18.9109 62.6899 16.2622 64.727 16.2622 67.2399C16.2622 69.7528 18.9109 71.7899 22.1782 71.7899Z" fill="#EBEBEB"/>
<path d="M18.486 68.2581C14.174 68.2581 10.686 71.9381 10.686 76.4801H26.3C26.294 71.9381 22.8 68.2581 18.486 68.2581Z" fill="#EBEBEB"/>
<path d="M57.1202 34.022H22.4482V76.48H57.1202V34.022Z" fill="#F0F0F0"/>
<path d="M57.1178 76.48H77.5518V34.022H57.1178V76.48Z" fill="#E6E6E6"/>
<path d="M63.4778 52.85H71.1958V38.11H63.4778V52.85Z" fill="#F5F5F5"/>
<path d="M42.5701 45.088H50.2881V36.2H42.5701V45.088Z" fill="#F5F5F5"/>
<path d="M29.28 45.088H36.998V36.2H29.28V45.088Z" fill="#F5F5F5"/>
<path d="M42.5701 48.3781H50.2881V46.7341H42.5701V48.3781Z" fill="#F5F5F5"/>
<path d="M29.28 48.3781H36.998V46.7341H29.28V48.3781Z" fill="#F5F5F5"/>
<path d="M57.1178 76.48H77.5518V58H57.1178V76.48Z" fill="#F5F5F5"/>
<path d="M67.9698 69.896H74.4238V60.882H67.9698V69.896Z" fill="#E6E6E6"/>
<path d="M60.2501 69.896H66.7041V60.882H60.2501V69.896Z" fill="#E6E6E6"/>
<path d="M57.1202 58H22.4482V76.48H57.1202V58Z" fill="#FAFAFA"/>
<path d="M35.6618 60.4H28.0918V75.44H35.6618V60.4Z" fill="#E6E6E6"/>
<path d="M60.2162 20.8H39.7842L57.1202 34.022H77.5522L60.2162 20.8Z" fill="#F0F0F0"/>
<path d="M35.9819 19.222H30.2939V30.91H35.9819V19.222Z" fill="#EBEBEB"/>
<path d="M39.7842 20.8L22.4482 34.022H57.1202L39.7842 20.8Z" fill="#FAFAFA"/>
<path d="M39.7842 23.344L25.7842 34.022H53.7842L39.7842 23.344Z" fill="#F0F0F0"/>
<path d="M47.6441 50.756H24.1781L18.9121 56.022V58H52.9121V56.022L47.6441 50.756Z" fill="#E6E6E6"/>
<path d="M77.5541 74.4H18.9121V76.48H77.5541V74.4Z" fill="#E6E6E6"/>
<path d="M57.1199 67.24H33.7559V74.4H57.1199V67.24Z" fill="#F0F0F0"/>
<path d="M47.7999 58H46.4219V74.4H47.7999V58Z" fill="#E6E6E6"/>
<path d="M21.356 58H19.978V74.4H21.356V58Z" fill="#E6E6E6"/>
<path d="M50.0002 85.512C71.4167 85.512 88.7782 84.4984 88.7782 83.248C88.7782 81.9976 71.4167 80.984 50.0002 80.984C28.5837 80.984 11.2222 81.9976 11.2222 83.248C11.2222 84.4984 28.5837 85.512 50.0002 85.512Z" fill="#F5F5F5"/>
<path d="M57.4641 46.17H54.6821V83.848H57.4641V46.17Z" fill="#DC4D01"/>
<path opacity="0.3" d="M57.4641 46.17H54.6821V83.848H57.4641V46.17Z" fill="white"/>
<path d="M60.2464 46.17H57.4644V83.848H60.2464V46.17Z" fill="#DC4D01"/>
<path opacity="0.5" d="M60.2464 46.17H57.4644V83.848H60.2464V46.17Z" fill="white"/>
<path d="M80.1639 48.316H58.3779V50.966H80.1639V48.316Z" fill="#DC4D01"/>
<path opacity="0.3" d="M80.1639 48.316H58.3779V50.966H80.1639V48.316Z" fill="white"/>
<path d="M82.0781 48.316H80.1641V50.966H82.0781V48.316Z" fill="#DC4D01"/>
<path opacity="0.5" d="M82.0781 48.316H80.1641V50.966H82.0781V48.316Z" fill="white"/>
<path d="M78.4243 50.9661H61.9443V66.7221H78.4243V50.9661Z" fill="#DC4D01"/>
<path opacity="0.2" d="M78.4242 50.9661H77.8442V66.7221H78.4242V50.9661Z" fill="black"/>
<path d="M64.8662 54.296H67.4662V55.026H65.9262V55.626H67.2422V56.312H65.9262V57.7H64.8702L64.8662 54.296Z" fill="white"/>
<path d="M67.8961 56C67.871 55.7633 67.8991 55.5239 67.9783 55.2994C68.0575 55.0749 68.1859 54.8709 68.3539 54.7023C68.522 54.5336 68.7255 54.4046 68.9498 54.3247C69.174 54.2447 69.4132 54.2158 69.6501 54.24C69.8875 54.2245 70.1257 54.2569 70.3504 54.3352C70.5751 54.4136 70.7817 54.5362 70.9581 54.696C71.117 54.8665 71.2395 55.0676 71.3183 55.2869C71.397 55.5063 71.4303 55.7394 71.4161 55.972C71.4291 56.3093 71.3605 56.6449 71.2161 56.95C71.0869 57.2034 70.8849 57.4123 70.6361 57.55C70.345 57.7009 70.0198 57.774 69.6921 57.762C69.3651 57.7736 69.0397 57.7114 68.7401 57.58C68.4835 57.4518 68.271 57.2498 68.1301 57C67.9628 56.6941 67.8819 56.3484 67.8961 56ZM68.9461 56C68.9232 56.2611 68.9903 56.5222 69.1361 56.74C69.204 56.8101 69.2852 56.8658 69.3751 56.9039C69.4649 56.942 69.5615 56.9616 69.6591 56.9616C69.7567 56.9616 69.8532 56.942 69.9431 56.9039C70.0329 56.8658 70.1142 56.8101 70.1821 56.74C70.3041 56.594 70.3661 56.33 70.3661 55.94C70.385 55.6903 70.3141 55.442 70.1661 55.24C70.1005 55.1661 70.0193 55.1078 69.9282 55.0694C69.8372 55.031 69.7388 55.0134 69.6401 55.018C69.5437 55.0142 69.4476 55.0324 69.3593 55.0712C69.2709 55.11 69.1925 55.1684 69.1301 55.242C68.982 55.4654 68.9169 55.7336 68.9461 56Z" fill="white"/>
<path d="M72 57.694V54.294H73.75C74.0008 54.285 74.2515 54.3133 74.494 54.378C74.6632 54.4313 74.8093 54.5406 74.908 54.688C75.0172 54.8502 75.0724 55.0426 75.066 55.238C75.0727 55.4029 75.0341 55.5665 74.9544 55.7111C74.8748 55.8556 74.757 55.9756 74.614 56.058C74.4993 56.122 74.375 56.1673 74.246 56.192C74.3423 56.2205 74.434 56.2629 74.518 56.318C74.5811 56.3702 74.6375 56.43 74.686 56.496C74.7417 56.562 74.7913 56.633 74.834 56.708L75.342 57.692H74.156L73.6 56.656C73.5522 56.5575 73.484 56.4702 73.4 56.4C73.3247 56.3483 73.2353 56.3211 73.144 56.322H73.05V57.7L72 57.694ZM73.054 55.674H73.498C73.5918 55.6665 73.6848 55.6512 73.776 55.628C73.8441 55.6143 73.9047 55.5758 73.946 55.52C73.9907 55.4631 74.014 55.3923 74.012 55.32C74.0144 55.2726 74.0064 55.2253 73.9884 55.1814C73.9704 55.1375 73.943 55.0981 73.908 55.066C73.788 54.9935 73.6474 54.9626 73.508 54.978H73.046L73.054 55.674Z" fill="white"/>
<path d="M63.228 62.266L64.228 62.204C64.2387 62.3371 64.285 62.4649 64.362 62.574C64.4177 62.6416 64.4886 62.695 64.5689 62.7298C64.6492 62.7645 64.7367 62.7797 64.824 62.774C64.9488 62.7823 65.0723 62.7454 65.172 62.67C65.2091 62.6405 65.2391 62.6032 65.2598 62.5606C65.2806 62.518 65.2916 62.4714 65.292 62.424C65.2912 62.3786 65.2803 62.3339 65.2603 62.2931C65.2402 62.2523 65.2115 62.2165 65.176 62.188C65.0135 62.0842 64.8308 62.016 64.64 61.988C64.2832 61.9301 63.9452 61.7882 63.654 61.574C63.5585 61.4944 63.4823 61.3942 63.4311 61.2809C63.3798 61.1677 63.3548 61.0443 63.358 60.92C63.3581 60.7432 63.411 60.5705 63.51 60.424C63.6214 60.2586 63.7804 60.131 63.966 60.058C64.2331 59.9584 64.5172 59.9128 64.802 59.924C65.1523 59.9005 65.5013 59.985 65.802 60.166C65.9198 60.2588 66.0164 60.3757 66.0853 60.5089C66.1543 60.642 66.1941 60.7883 66.202 60.938L65.212 60.996C65.2091 60.9328 65.1933 60.8708 65.1654 60.8139C65.1376 60.757 65.0984 60.7065 65.0502 60.6654C65.002 60.6243 64.9458 60.5936 64.8852 60.5751C64.8247 60.5566 64.7609 60.5508 64.698 60.558C64.5997 60.5508 64.502 60.5784 64.422 60.636C64.3928 60.6579 64.369 60.6862 64.3527 60.7189C64.3364 60.7515 64.3279 60.7875 64.328 60.824C64.3299 60.8525 64.3378 60.8803 64.3512 60.9055C64.3647 60.9307 64.3834 60.9527 64.406 60.97C64.5129 61.0369 64.633 61.0798 64.758 61.096C65.0975 61.1564 65.4285 61.2571 65.744 61.396C65.9209 61.4777 66.0707 61.6081 66.176 61.772C66.2676 61.9233 66.3147 62.0972 66.312 62.274C66.3123 62.4874 66.2497 62.696 66.132 62.874C66.0082 63.0601 65.8321 63.2055 65.626 63.292C65.3659 63.3945 65.0875 63.4428 64.808 63.434C64.23 63.434 63.83 63.324 63.608 63.1C63.3857 62.8764 63.2508 62.5805 63.228 62.266Z" fill="white"/>
<path d="M68.9282 62.83H67.7282L67.5622 63.39H66.4902L67.7682 59.99H68.9122L70.2002 63.4H69.1002L68.9282 62.83ZM68.7102 62.094L68.3362 60.874L67.9642 62.094H68.7102Z" fill="white"/>
<path d="M70.5322 60H71.5822V62.562H73.2202V63.4H70.5322V60Z" fill="white"/>
<path d="M73.6943 60H76.5083V60.726H74.7483V61.266H76.3823V61.96H74.7483V62.63H76.5603V63.4H73.6943V60Z" fill="white"/>
<path d="M43.9481 30.152L43.6461 30.552C43.5481 30.678 43.4461 30.8 43.3441 30.922C43.1441 31.166 42.9321 31.402 42.7201 31.638C42.2921 32.104 41.8481 32.562 41.3621 32.998C40.8677 33.4568 40.3403 33.8786 39.7841 34.26C39.4779 34.4696 39.1586 34.6593 38.8281 34.828C38.4387 35.028 38.0263 35.1798 37.6001 35.28L37.5141 35.298C37.4398 35.3147 37.3642 35.3248 37.2881 35.328C36.8742 35.3401 36.4632 35.2552 36.0881 35.08C35.8316 34.9621 35.591 34.8122 35.3721 34.634C35.0404 34.3638 34.7381 34.0594 34.4701 33.726C34.019 33.1617 33.6175 32.5594 33.2701 31.926C32.9381 31.326 32.6441 30.714 32.3781 30.096C32.1084 29.4793 31.8707 28.8492 31.6661 28.208C31.6046 28.0033 31.6168 27.7835 31.7005 27.5868C31.7843 27.3902 31.9344 27.2291 32.1246 27.1316C32.3148 27.0341 32.5332 27.0064 32.7417 27.0532C32.9503 27.1001 33.1358 27.2185 33.2661 27.388L33.2841 27.412C33.6541 27.91 34.0281 28.432 34.4041 28.93C34.7801 29.428 35.1561 29.93 35.5441 30.392C35.9025 30.8384 36.2907 31.26 36.7061 31.654C36.8639 31.8072 37.0391 31.9414 37.2281 32.054C37.2961 32.09 37.3481 32.104 37.3441 32.094C37.3401 32.084 37.2641 32.034 37.0821 32.038L36.7701 32.086C36.9089 32.0177 37.0426 31.9395 37.1701 31.852C37.3381 31.736 37.5261 31.602 37.7121 31.452C37.8981 31.302 38.0901 31.126 38.2781 30.946C38.4661 30.766 38.6601 30.582 38.8501 30.39C39.2261 29.99 39.6041 29.59 39.9721 29.176L40.5221 28.544L41.0501 27.924L41.1001 27.866C41.4084 27.5042 41.8457 27.2771 42.3189 27.2329C42.7921 27.1887 43.2639 27.331 43.6338 27.6295C44.0037 27.928 44.2425 28.359 44.2993 28.8309C44.3561 29.3028 44.2265 29.7782 43.9381 30.156L43.9481 30.152Z" fill="#263238"/>
<path d="M33.2239 27C33.1099 26.1 31.4759 25.684 31.4759 25.684L30.5219 25.262C30.3655 25.1923 30.1895 25.1806 30.0253 25.2289C29.8611 25.2773 29.7195 25.3826 29.6259 25.526L29.1399 26.27C29.0887 26.3501 29.0537 26.4395 29.0371 26.5331C29.0204 26.6267 29.0224 26.7227 29.0428 26.8155C29.0632 26.9084 29.1017 26.9963 29.1561 27.0743C29.2106 27.1523 29.2798 27.2187 29.3599 27.27L30.2359 27.818C30.393 27.915 30.5689 27.9777 30.7519 28.002L31.4959 28.098C31.8085 28.1384 32.1262 28.0891 32.4119 27.956C32.6977 27.8229 32.9397 27.6113 33.1099 27.346L33.1559 27.276C33.2089 27.1942 33.2329 27.097 33.2239 27Z" fill="#AD6359"/>
<path d="M44.3657 62.518C46.9657 54.264 48.9837 44.22 48.9837 44.22L41.1537 43.45C41.1537 43.45 40.6397 56.3739 40.1537 62.0979C39.6457 68.0479 37.6597 81.87 37.6597 81.87L40.0397 82.07C40.0397 82.07 44.1257 69.908 44.3657 62.518Z" fill="#263238"/>
<path d="M45.9301 50.964L47.0181 52.906C46.4621 55.172 45.8181 57.664 45.1001 60.106C45.2001 56.274 45.6001 51.854 45.9301 50.964Z" fill="black"/>
<path d="M34.4699 82.42C34.4699 82.42 37.8359 82.144 38.1579 81.666L39.9679 81.94L39.6699 83.848L38.5539 83.68L38.4099 83.48L38.0999 83.614C37.1999 83.476 34.7999 83.08 34.2679 82.8C34.265 82.7245 34.2822 82.6495 34.3177 82.5828C34.3531 82.516 34.4057 82.4599 34.4699 82.42Z" fill="#263238"/>
<path d="M51.976 61.968C51.838 53.482 52.376 47.81 51.654 43.628L44.5 43.52C44.5 43.52 46.258 56.984 47.132 62.59C48.006 68.196 49.118 82.04 49.118 82.04H51.33C51.33 82.04 53.254 68.534 51.976 61.968Z" fill="#263238"/>
<path d="M46.95 83.21C46.95 83.21 49.072 82.436 49.35 81.916H51.182L51.044 83.848H49.548L49.386 83.67L49.09 83.848C48.176 83.848 47.338 83.812 46.778 83.606C46.7716 83.5309 46.7839 83.4554 46.814 83.3863C46.844 83.3171 46.8907 83.2566 46.95 83.21Z" fill="#263238"/>
<path d="M51.3361 26.694C48.8061 26.38 45.1901 26.41 42.7661 26.828C42.1606 26.9376 41.6049 27.2349 41.1778 27.6778C40.7506 28.1208 40.4737 28.6869 40.3861 29.296C39.8761 32.956 40.3141 39.354 40.6401 45.794C46.1761 47.688 52.0181 45.768 52.0181 45.768C52.2181 44.468 51.7661 40.212 51.4601 37.94C51.9181 35.594 52.8861 32.906 53.5261 29.79C53.6048 29.4412 53.6093 29.0798 53.5394 28.7292C53.4694 28.3785 53.3266 28.0465 53.1201 27.7546C52.9137 27.4627 52.6481 27.2175 52.3408 27.0347C52.0335 26.852 51.6912 26.7359 51.3361 26.694Z" fill="#263238"/>
<path d="M44.8118 26.5819C44.5078 26.8879 44.3058 27.3699 44.1978 27.9819C43.9378 29.4679 44.2318 31.7579 45.0158 34.3819C45.7658 32.2659 47.3798 29.4659 48.3718 27.8399C48.8418 27.0699 49.1718 26.5599 49.1998 26.5159C47.7535 26.1814 46.2475 26.2041 44.8118 26.5819Z" fill="#E0E0E0"/>
<path d="M48.832 21.86L45.95 24.224C46.324 25.214 46.442 26.246 44.814 26.644C44.414 27.182 45.126 27.798 45.798 28.078C46.884 27.944 48.416 27.582 49.078 26.678C48.868 25.958 48.552 23.326 48.832 21.86Z" fill="#AD6359"/>
<path d="M45.1099 27.482C45.2314 27.8275 45.4377 28.1369 45.7099 28.382C46.1499 28.382 46.7919 27.888 46.7919 27.888C46.7919 27.888 46.5439 27.19 46.1919 27.048C45.3019 27.268 45.1099 27.482 45.1099 27.482Z" fill="#DC4D01"/>
<path d="M46.1141 28.08C46.0458 28.0273 45.9675 27.9891 45.8839 27.9677C45.8003 27.9464 45.7133 27.9424 45.6281 27.956C45.0521 28.774 44.6861 30.046 44.3301 31.514C44.5009 32.4889 44.73 33.4526 45.0161 34.4C45.3369 33.5292 45.7109 32.6789 46.1361 31.854C45.9717 30.6018 45.9643 29.334 46.1141 28.08Z" fill="#DC4D01"/>
<path opacity="0.2" d="M47.6297 22.8459L45.9517 24.2219C46.0414 24.4515 46.1084 24.6893 46.1517 24.9319C46.8017 24.9779 47.7057 24.3199 47.7517 23.7319C47.7658 23.4316 47.7245 23.1313 47.6297 22.8459Z" fill="black"/>
<path d="M44.7618 17.724C43.5058 18.962 44.3298 20.942 44.3298 20.942C44.3298 20.942 46.5258 17.024 44.7618 17.724Z" fill="#263238"/>
<path d="M49.2439 20.25C48.9819 22.05 48.9199 23.128 47.9239 23.976C46.4259 25.252 44.2519 24.214 43.9679 22.36C43.7139 20.69 44.1859 18.016 46.0259 17.456C46.4333 17.3321 46.8655 17.3137 47.282 17.4024C47.6985 17.4911 48.0857 17.6841 48.4073 17.9633C48.7288 18.2425 48.9743 18.5988 49.1206 18.9987C49.2669 19.3987 49.3093 19.8292 49.2439 20.25Z" fill="#AD6359"/>
<path d="M49.4457 21.176C48.0917 21.454 47.6997 20.406 47.6997 20.406C47.9741 20.463 48.2573 20.463 48.5317 20.406C48.5317 20.406 47.6197 19.474 48.3317 18.572C47.9597 18.172 46.3037 18.344 45.5317 18.572C44.6877 18.254 44.2537 18.106 43.8037 17.104C44.2197 17.176 44.6477 17.1231 45.0337 16.952C45.8737 16.566 44.6137 16.282 44.6137 16.282C45.5797 15.9044 46.6264 15.7811 47.6537 15.924C49.6137 16.2 49.9177 16.782 49.8417 17.442C50.8677 17.43 50.9697 18.572 50.9697 18.572C50.8451 18.4721 50.6983 18.4035 50.5417 18.372C50.5997 18.72 50.7997 20.762 49.4457 21.176Z" fill="#263238"/>
<path d="M49.564 17.576C49.94 17.406 50.054 16.508 49.832 16.132C50.838 17.2 50.112 17.636 49.564 17.576Z" fill="#263238"/>
<path d="M49.8558 21.652C49.7719 21.8417 49.6514 22.0128 49.501 22.1556C49.3506 22.2984 49.1735 22.41 48.9798 22.484C48.4578 22.684 48.1458 22.224 48.2478 21.708C48.3398 21.242 48.7218 20.582 49.2658 20.61C49.3843 20.6177 49.499 20.6549 49.5997 20.718C49.7003 20.7811 49.7836 20.8683 49.8421 20.9717C49.9006 21.075 49.9325 21.1914 49.9349 21.3101C49.9373 21.4289 49.9101 21.5464 49.8558 21.652Z" fill="#AD6359"/>
<path d="M46.7078 20.316C46.6958 20.464 46.6058 20.576 46.5078 20.568C46.4098 20.56 46.3418 20.432 46.3558 20.284C46.3698 20.136 46.4558 20.022 46.5558 20.032C46.6558 20.042 46.7198 20.168 46.7078 20.316Z" fill="#263238"/>
<path d="M44.9379 20.272C44.9259 20.42 44.8379 20.534 44.7379 20.524C44.6379 20.514 44.5739 20.388 44.5859 20.24C44.5979 20.092 44.6859 19.98 44.7859 19.988C44.8859 19.996 44.9499 20.124 44.9379 20.272Z" fill="#263238"/>
<path d="M45.2959 20.4719C45.2959 20.4719 44.8959 21.2939 44.4839 21.6719C44.7259 21.9399 45.1799 21.8719 45.1799 21.8719L45.2959 20.4719Z" fill="#ED893E"/>
<path d="M47.1377 19.872C47.1522 19.8751 47.1672 19.8751 47.1817 19.872C47.1925 19.8678 47.2023 19.8616 47.2106 19.8535C47.2189 19.8455 47.2254 19.8358 47.2299 19.8252C47.2344 19.8146 47.2367 19.8031 47.2366 19.7916C47.2366 19.78 47.2343 19.7686 47.2297 19.758C47.18 19.6267 47.0997 19.5091 46.9953 19.4152C46.8909 19.3212 46.7656 19.2536 46.6297 19.218C46.6072 19.2139 46.584 19.2186 46.5649 19.2313C46.5459 19.244 46.5325 19.2636 46.5277 19.286C46.523 19.3088 46.5275 19.3326 46.5402 19.3521C46.553 19.3716 46.5729 19.3852 46.5957 19.39C46.7019 19.4198 46.7994 19.4746 46.8801 19.5498C46.9608 19.6249 47.0224 19.7182 47.0597 19.822C47.0666 19.8369 47.0776 19.8496 47.0914 19.8584C47.1052 19.8673 47.1213 19.872 47.1377 19.872Z" fill="#263238"/>
<path d="M44.1141 19.7079C44.1277 19.7128 44.1423 19.7143 44.1566 19.7122C44.1709 19.7101 44.1845 19.7045 44.1961 19.6959C44.2816 19.628 44.3822 19.5815 44.4893 19.5603C44.5964 19.5391 44.7071 19.5437 44.8121 19.5739C44.8228 19.578 44.8343 19.58 44.8458 19.5796C44.8573 19.5792 44.8686 19.5765 44.8791 19.5716C44.8895 19.5668 44.8989 19.5599 44.9066 19.5513C44.9144 19.5428 44.9203 19.5328 44.9241 19.5219C44.9319 19.5002 44.9308 19.4762 44.921 19.4553C44.9113 19.4343 44.8937 19.418 44.8721 19.4099C44.7399 19.3697 44.6 19.3619 44.4642 19.3873C44.3284 19.4127 44.2007 19.4706 44.0921 19.5559C44.0797 19.5654 44.07 19.5781 44.0641 19.5926C44.0582 19.6071 44.0563 19.6229 44.0585 19.6384C44.0608 19.6539 44.0671 19.6685 44.0769 19.6807C44.0866 19.6929 44.0995 19.7023 44.1141 19.7079Z" fill="#263238"/>
<path d="M49.1998 26.522C49.1698 26.566 48.8418 27.076 48.3718 27.846C47.8993 28.2829 47.3197 28.5872 46.6918 28.728C46.7838 28.418 46.5058 27.368 46.1978 27.044C46.9238 27.086 47.9238 26.962 49.1998 26.522Z" fill="#FAFAFA"/>
<path d="M46.2001 27.048C45.8676 27.1938 45.5681 27.4055 45.3196 27.6701C45.071 27.9348 44.8787 28.247 44.7541 28.588C44.6258 28.5319 44.5108 28.4495 44.4164 28.3462C44.322 28.2428 44.2503 28.1208 44.2061 27.988C44.3141 27.37 44.5161 26.888 44.8201 26.588C44.9821 26.8 45.4401 27 46.2001 27.048Z" fill="#FAFAFA"/>
<path d="M53.5318 28.4619C53.6798 28.7839 53.8038 29.0619 53.9318 29.3759C54.0598 29.6899 54.1718 29.9759 54.2878 30.2879C54.5118 30.8999 54.7218 31.5199 54.9058 32.1599C55.0996 32.811 55.2585 33.4719 55.3818 34.1399C55.4458 34.4839 55.4998 34.8399 55.5358 35.2159C55.5741 35.6275 55.5787 36.0416 55.5498 36.4539C55.462 37.2843 55.204 38.0877 54.7918 38.8139C54.4491 39.4377 54.0473 40.027 53.5918 40.5739C53.1631 41.0918 52.7029 41.5827 52.2138 42.0439C51.7294 42.5023 51.2149 42.9279 50.6738 43.3179C50.4994 43.4424 50.2868 43.5016 50.0731 43.4852C49.8594 43.4688 49.6583 43.3779 49.5049 43.2282C49.3515 43.0786 49.2555 42.8799 49.2337 42.6667C49.212 42.4535 49.2658 42.2395 49.3858 42.0619L49.4158 42.0199L49.9178 41.2819C50.0878 41.0339 50.2498 40.7799 50.4118 40.5279C50.7298 40.0259 51.0398 39.5279 51.3058 39.0159C51.5705 38.5386 51.7984 38.0418 51.9878 37.5299C52.0709 37.3057 52.1377 37.0758 52.1878 36.8419C52.229 36.663 52.2458 36.4793 52.2378 36.2959C52.223 36.0827 52.193 35.8708 52.1478 35.6619C52.0998 35.4179 52.0418 35.1579 51.9698 34.8919C51.8218 34.3599 51.6458 33.8079 51.4538 33.2539C51.2618 32.6999 51.0538 32.1419 50.8398 31.5839L50.1918 29.9259L50.1758 29.8879C50.0049 29.4458 50.0126 28.9545 50.1973 28.5179C50.382 28.0814 50.7292 27.7338 51.1656 27.5486C51.602 27.3634 52.0932 27.3551 52.5356 27.5256C52.9779 27.696 53.3366 28.0318 53.5358 28.4619H53.5318Z" fill="#263238"/>
<path d="M42.81 37.8859C42.0067 38.5102 41.4658 39.4121 41.2934 40.4148C41.121 41.4174 41.3295 42.4483 41.8782 43.305C42.4268 44.1617 43.2758 44.7825 44.2586 45.0454C45.2414 45.3083 46.2869 45.1943 47.19 44.7259L47.69 45.3659L47.598 45.7659L48.66 47.1319L49.24 47.1439L49.082 47.8179L51.166 50.4979L52.286 50.5179L52.662 51.0039L52.476 51.8039L53.858 53.5799L55.03 53.6019L55.23 52.3439L48.492 43.6819C49.1235 42.9042 49.4466 41.9212 49.3998 40.9205C49.3529 39.9198 48.9393 38.9713 48.2378 38.2561C47.5364 37.5408 46.5962 37.1087 45.5966 37.0423C44.597 36.9759 43.6079 37.2797 42.818 37.8959L42.81 37.8859ZM44.534 40.1019C44.3722 40.2283 44.1765 40.3038 43.9717 40.319C43.7669 40.3341 43.5622 40.2882 43.3835 40.187C43.2049 40.0857 43.0602 39.9338 42.9679 39.7504C42.8756 39.5669 42.8398 39.3602 42.865 39.1564C42.8902 38.9526 42.9753 38.7609 43.1095 38.6055C43.2437 38.45 43.4209 38.3379 43.6189 38.2832C43.8168 38.2286 44.0265 38.2339 44.2215 38.2984C44.4164 38.363 44.5878 38.4839 44.714 38.6459C44.8831 38.8629 44.9591 39.1381 44.9253 39.4111C44.8916 39.6842 44.7508 39.9326 44.534 40.1019Z" fill="#DC4D01"/>
<path d="M50.9237 42.9239C50.8973 42.8274 50.8369 42.7436 50.7537 42.6879L50.0477 42.1999C49.9799 42.1529 49.9003 42.126 49.8179 42.1221C49.7355 42.1182 49.6536 42.1375 49.5817 42.1779L48.9477 42.5399C48.3313 42.8888 47.7972 43.3663 47.3817 43.9399L47.2437 44.1399C47.1877 44.218 47.1479 44.3064 47.1265 44.4001C47.1051 44.4937 47.1027 44.5907 47.1192 44.6853C47.1358 44.7799 47.1711 44.8703 47.223 44.9511C47.275 45.0319 47.3425 45.1015 47.4217 45.1559L48.1537 45.6599C48.2949 45.7568 48.466 45.8004 48.6363 45.7828C48.8067 45.7652 48.9653 45.6876 49.0837 45.5639L49.7997 44.7999C49.7997 44.7999 51.1597 43.7999 50.9237 42.9239Z" fill="#AD6359"/>
<path d="M49.6218 41.7999C49.3085 41.9324 49.0172 42.1118 48.7578 42.3319C48.8498 42.8939 50.4158 43.8299 50.9438 43.8419C51.1578 43.6419 51.4398 42.8199 51.4398 42.8199C50.8478 42.5639 50.0498 41.9999 49.6218 41.7999Z" fill="#E0E0E0"/>
<path d="M33.5998 27.8C33.6067 27.4619 33.5622 27.1247 33.4678 26.8C32.9178 26.652 31.4238 27.7 31.1978 28.18C31.2958 28.458 31.9258 29.048 31.9258 29.048C32.3998 28.6 33.2398 28.1 33.5998 27.8Z" fill="#E0E0E0"/>
<path d="M48.9877 82.102L51.4437 82.172L51.6997 80.776L48.8257 80.948L48.9877 82.102Z" fill="#DC4D01"/>
<path d="M37.5439 81.8519L40.1699 82.2579L40.6139 81.0979L37.7039 80.4399L37.5439 81.8519Z" fill="#DC4D01"/>
<path d="M45.8637 22.4C45.7688 22.404 45.6738 22.3994 45.5797 22.386C45.5735 22.385 45.5674 22.3828 45.562 22.3794C45.5567 22.376 45.552 22.3716 45.5485 22.3663C45.5449 22.361 45.5425 22.3551 45.5413 22.3488C45.5401 22.3426 45.5403 22.3362 45.5417 22.33C45.5446 22.3166 45.5523 22.3047 45.5634 22.2966C45.5744 22.2885 45.5881 22.2847 45.6017 22.286C45.8136 22.3174 46.0298 22.3005 46.2342 22.2364C46.4386 22.1723 46.6258 22.0628 46.7817 21.916C46.7914 21.9067 46.8043 21.9015 46.8177 21.9015C46.8312 21.9015 46.8441 21.9067 46.8537 21.916C46.8629 21.9253 46.868 21.9379 46.868 21.951C46.868 21.9641 46.8629 21.9766 46.8537 21.986C46.5864 22.2418 46.2336 22.3893 45.8637 22.4Z" fill="#263238"/>
<path d="M38.9816 15.0901L32.9316 14.6041L27.7936 12.0541L22.1616 13.7381L21.3496 23.8481L38.1696 25.2001L38.9816 15.0901Z" fill="#DC4D01"/>
<path d="M19.6078 24.8301L16.9458 24.6161L17.2798 20.4641L17.5978 20.4901L17.2898 24.3241L19.6338 24.5121L19.6078 24.8301Z" fill="#DC4D01"/>
<path d="M20.8635 24.5307L20.8379 24.8507L22.9179 25.0171L22.9435 24.6971L20.8635 24.5307Z" fill="#DC4D01"/>
<path d="M22.2684 20.1861L18.4468 19.8787L18.1481 23.5907L21.9698 23.8981L22.2684 20.1861Z" fill="#DC4D01"/>
<path opacity="0.2" d="M21.9717 23.8981L25.3237 24.1681L25.7297 19.1121L22.2697 20.1841L21.9717 23.8981Z" fill="black"/>
<path opacity="0.2" d="M38.9821 15.0948L32.9316 14.608L32.1183 24.7174L38.1687 25.2042L38.9821 15.0948Z" fill="black"/>
<path d="M33.8439 12.5401L27.7939 12.0541L32.9319 14.6041L38.9819 15.0901L33.8439 12.5401Z" fill="#263238"/>
<path d="M38.9817 15.4101H38.9557L32.9057 14.9241C32.8653 14.9198 32.826 14.9083 32.7897 14.8901L27.6517 12.3401C27.5852 12.307 27.5322 12.2518 27.5019 12.1839C27.4716 12.116 27.4659 12.0397 27.4857 11.9681C27.5062 11.8967 27.5505 11.8345 27.6113 11.7919C27.6721 11.7493 27.7457 11.7289 27.8197 11.7341L33.8697 12.2201C33.9108 12.2243 33.9507 12.2358 33.9877 12.2541L39.1237 14.8001C39.185 14.8338 39.2335 14.8867 39.2618 14.9506C39.2901 15.0145 39.2968 15.086 39.2807 15.154C39.2646 15.222 39.2266 15.2829 39.1726 15.3274C39.1186 15.3718 39.0516 15.3973 38.9817 15.4001V15.4101ZM33.0177 14.2901L37.3537 14.6401L33.7537 12.8541L29.4177 12.5041L33.0177 14.2901Z" fill="#263238"/>
<path d="M21.9097 18.806L25.7297 19.112L22.2697 20.184L18.4497 19.878L21.9097 18.806Z" fill="#263238"/>
<path d="M22.27 20.388H22.254L18.432 20.08C18.3851 20.0765 18.3409 20.0565 18.3072 20.0236C18.2736 19.9906 18.2526 19.9469 18.248 19.9C18.2433 19.852 18.2561 19.8039 18.284 19.7646C18.3119 19.7253 18.3532 19.6974 18.4 19.686L21.86 18.612C21.8851 18.6072 21.9109 18.6072 21.936 18.612L25.756 18.92C25.803 18.9231 25.8475 18.9426 25.8815 18.9751C25.9155 19.0077 25.937 19.0512 25.942 19.098C25.9478 19.145 25.9366 19.1925 25.9106 19.2321C25.8846 19.2716 25.8454 19.3007 25.8 19.314L22.34 20.386C22.317 20.3908 22.2933 20.3915 22.27 20.388ZM19.51 19.76L22.248 19.98L24.67 19.23L21.932 19.01L19.51 19.76Z" fill="#263238"/>
<path d="M22.3157 14.0701C22.2399 14.0691 22.1669 14.0414 22.1097 13.9917C22.0525 13.942 22.0148 13.8736 22.0032 13.7987C21.9917 13.7238 22.0071 13.6473 22.0468 13.5827C22.0864 13.5181 22.1477 13.4697 22.2197 13.4461L27.6997 11.7481C27.7412 11.7258 27.7871 11.7131 27.8341 11.7106C27.8811 11.7082 27.9281 11.7162 27.9717 11.734C28.0153 11.7518 28.0544 11.779 28.0862 11.8137C28.1181 11.8483 28.1419 11.8896 28.156 11.9345C28.1701 11.9795 28.1741 12.0269 28.1677 12.0736C28.1613 12.1202 28.1447 12.1649 28.1191 12.2044C28.0934 12.2439 28.0594 12.2772 28.0194 12.3021C27.9794 12.3269 27.9344 12.3426 27.8877 12.3481L22.4097 14.0461C22.3798 14.0588 22.348 14.0669 22.3157 14.0701Z" fill="#263238"/>
<path opacity="0.6" d="M29.8803 20.6001L27.6963 20.4254L27.3784 24.3994L29.5624 24.5741L29.8803 20.6001Z" fill="white"/>
<path d="M30.0838 15.6141L24.9644 15.2021L24.7167 18.2802L29.8362 18.6921L30.0838 15.6141Z" fill="white"/>
<path d="M27.2927 15.5948L25.1377 15.4214L24.9228 18.0928L27.0778 18.2661L27.2927 15.5948Z" fill="#DC4D01"/>
<path d="M29.8782 15.8034L27.7231 15.63L27.5082 18.3014L29.6632 18.4748L29.8782 15.8034Z" fill="#DC4D01"/>
<path d="M37.3603 16.201L34.4995 15.9708L34.2519 19.0489L37.1126 19.279L37.3603 16.201Z" fill="white"/>
<path d="M35.7915 16.28L34.5874 16.1831L34.3725 18.8545L35.5766 18.9514L35.7915 16.28Z" fill="#DC4D01"/>
<path d="M37.2358 16.3953L36.0317 16.2985L35.8168 18.9698L37.0209 19.0667L37.2358 16.3953Z" fill="#DC4D01"/>
<path d="M36.9633 21.1195L34.1025 20.8893L33.8549 23.9673L36.7156 24.1975L36.9633 21.1195Z" fill="white"/>
<path d="M35.3945 21.1983L34.1904 21.1014L33.9755 23.7728L35.1796 23.8697L35.3945 21.1983Z" fill="#DC4D01"/>
<path d="M36.9634 21.3751L35.7554 21.2784L35.541 23.9584L36.749 24.0551L36.9634 21.3751Z" fill="#DC4D01"/>
</svg>
