<svg width="500" height="500" viewBox="0 0 500 500" fill="none" xmlns="http://www.w3.org/2000/svg">
<path d="M500 382.4H0V382.65H500V382.4Z" fill="#EBEBEB"/>
<path d="M449.9 398.49H416.78V398.74H449.9V398.49Z" fill="#EBEBEB"/>
<path d="M331.22 401.21H322.53V401.46H331.22V401.21Z" fill="#EBEBEB"/>
<path d="M415.78 389.21H396.59V389.46H415.78V389.21Z" fill="#EBEBEB"/>
<path d="M95.65 390.89H52.46V391.14H95.65V390.89Z" fill="#EBEBEB"/>
<path d="M110.89 390.89H104.56V391.14H110.89V390.89Z" fill="#EBEBEB"/>
<path d="M225.15 395.11H131.47V395.36H225.15V395.11Z" fill="#EBEBEB"/>
<path d="M237 337.8H43.91C42.3973 337.797 40.9475 337.195 39.8788 336.124C38.8102 335.053 38.21 333.603 38.21 332.09V60.66C38.2231 59.156 38.8292 57.718 39.8964 56.6582C40.9637 55.5985 42.4059 55.0026 43.91 55H237C238.514 55 239.967 55.6016 241.038 56.6724C242.108 57.7433 242.71 59.1956 242.71 60.71V332.09C242.71 333.604 242.108 335.057 241.038 336.128C239.967 337.198 238.514 337.8 237 337.8ZM43.91 55.2C42.4636 55.2026 41.0774 55.7791 40.0556 56.8027C39.0338 57.8264 38.46 59.2136 38.46 60.66V332.09C38.46 333.536 39.0338 334.924 40.0556 335.947C41.0774 336.971 42.4636 337.547 43.91 337.55H237C238.447 337.547 239.834 336.971 240.858 335.948C241.881 334.924 242.457 333.537 242.46 332.09V60.66C242.457 59.2127 241.881 57.8255 240.858 56.8021C239.834 55.7787 238.447 55.2026 237 55.2H43.91Z" fill="#EBEBEB"/>
<path d="M453.31 337.8H260.21C258.696 337.797 257.246 337.195 256.175 336.125C255.105 335.054 254.503 333.604 254.5 332.09V60.66C254.516 59.1551 255.124 57.7171 256.193 56.6576C257.262 55.5981 258.705 55.0025 260.21 55H453.31C454.812 55.0052 456.252 55.6022 457.317 56.6617C458.382 57.7212 458.987 59.1578 459 60.66V332.09C459 333.601 458.401 335.05 457.335 336.121C456.268 337.191 454.821 337.795 453.31 337.8ZM260.21 55.2C258.763 55.2026 257.375 55.7787 256.352 56.8021C255.329 57.8255 254.753 59.2127 254.75 60.66V332.09C254.753 333.537 255.329 334.924 256.352 335.948C257.375 336.971 258.763 337.547 260.21 337.55H453.31C454.757 337.547 456.145 336.971 457.168 335.948C458.191 334.924 458.767 333.537 458.77 332.09V60.66C458.767 59.2127 458.191 57.8255 457.168 56.8021C456.145 55.7787 454.757 55.2026 453.31 55.2H260.21Z" fill="#EBEBEB"/>
<path d="M388.7 316.88C419.18 316.88 443.89 297.879 443.89 274.44C443.89 251.001 419.18 232 388.7 232C358.219 232 333.51 251.001 333.51 274.44C333.51 297.879 358.219 316.88 388.7 316.88Z" fill="#EBEBEB"/>
<path d="M377.15 263.49C401.246 263.49 420.78 248.465 420.78 229.93C420.78 211.395 401.246 196.37 377.15 196.37C353.054 196.37 333.52 211.395 333.52 229.93C333.52 248.465 353.054 263.49 377.15 263.49Z" fill="#EBEBEB"/>
<path d="M380.49 83.09C380.49 83.09 387.7 76.86 378.34 75.37C361.34 72.66 345.97 81.13 344.02 82.26C346.02 78.33 344.6 75.26 334.35 76.37C326.28 77.22 304.61 88 304.61 88H410.53C425.16 74.85 380.49 83.09 380.49 83.09Z" fill="#F0F0F0"/>
<path d="M95.2698 130.67C95.2698 130.67 101.21 126.05 96.1498 124.95C86.9798 122.95 75.6398 129.22 74.1498 130.05C76.4198 127.14 76.3998 124.9 70.1498 125.69C65.1498 126.32 49.5498 134.3 49.5498 134.3H111.47C123.66 124.56 95.2698 130.67 95.2698 130.67Z" fill="#F0F0F0"/>
<path d="M424.37 121.44C424.37 121.44 428.59 118.16 425 117.37C418.48 115.95 410.42 120.37 409.39 121C411.01 118.93 410.99 117.34 406.53 117.9C403.01 118.35 391.89 124.02 391.89 124.02H435.89C444.54 117.1 424.37 121.44 424.37 121.44Z" fill="#F5F5F5"/>
<path d="M110.89 358.95C127.227 358.95 140.47 348.764 140.47 336.2C140.47 323.636 127.227 313.45 110.89 313.45C94.5535 313.45 81.3101 323.636 81.3101 336.2C81.3101 348.764 94.5535 358.95 110.89 358.95Z" fill="#EBEBEB"/>
<path d="M92.4302 341.29C70.8702 341.29 53.4302 359.69 53.4302 382.4H131.5C131.47 359.69 114 341.29 92.4302 341.29Z" fill="#EBEBEB"/>
<path d="M285.6 170.11H112.24V382.4H285.6V170.11Z" fill="#F0F0F0"/>
<path d="M285.59 382.4H387.76V170.11H285.59V382.4Z" fill="#E6E6E6"/>
<path d="M317.39 264.25H355.98V190.55H317.39V264.25Z" fill="#F5F5F5"/>
<path d="M212.85 225.44H251.44V181H212.85V225.44Z" fill="#F5F5F5"/>
<path d="M146.4 225.44H184.99V181H146.4V225.44Z" fill="#F5F5F5"/>
<path d="M212.85 241.89H251.44V233.67H212.85V241.89Z" fill="#F5F5F5"/>
<path d="M146.4 241.89H184.99V233.67H146.4V241.89Z" fill="#F5F5F5"/>
<path d="M285.59 382.4H387.76V290H285.59V382.4Z" fill="#F5F5F5"/>
<path d="M339.85 349.48H372.12V304.41H339.85V349.48Z" fill="#E6E6E6"/>
<path d="M301.25 349.48H333.52V304.41H301.25V349.48Z" fill="#E6E6E6"/>
<path d="M285.6 290H112.24V382.4H285.6V290Z" fill="#FAFAFA"/>
<path d="M178.31 302H140.46V377.2H178.31V302Z" fill="#E6E6E6"/>
<path d="M301.08 104H198.92L285.6 170.11H387.76L301.08 104Z" fill="#F0F0F0"/>
<path d="M179.91 96.11H151.47V154.55H179.91V96.11Z" fill="#EBEBEB"/>
<path d="M198.92 104L112.24 170.11H285.6L198.92 104Z" fill="#FAFAFA"/>
<path d="M198.92 116.72L128.92 170.11H268.92L198.92 116.72Z" fill="#F0F0F0"/>
<path d="M238.22 253.78H120.89L94.5601 280.11V290H264.56V280.11L238.22 253.78Z" fill="#E6E6E6"/>
<path d="M387.77 372H94.5601V382.4H387.77V372Z" fill="#E6E6E6"/>
<path d="M285.6 336.2H168.78V372H285.6V336.2Z" fill="#F0F0F0"/>
<path d="M239 290H232.11V372H239V290Z" fill="#E6E6E6"/>
<path d="M106.78 290H99.8901V372H106.78V290Z" fill="#E6E6E6"/>
<path d="M250 427.56C357.082 427.56 443.89 422.492 443.89 416.24C443.89 409.988 357.082 404.92 250 404.92C142.917 404.92 56.1099 409.988 56.1099 416.24C56.1099 422.492 142.917 427.56 250 427.56Z" fill="#F5F5F5"/>
<path d="M287.32 230.85H273.41V419.24H287.32V230.85Z" fill="#DC4D01"/>
<path opacity="0.3" d="M287.32 230.85H273.41V419.24H287.32V230.85Z" fill="white"/>
<path d="M301.23 230.85H287.32V419.24H301.23V230.85Z" fill="#DC4D01"/>
<path opacity="0.5" d="M301.23 230.85H287.32V419.24H301.23V230.85Z" fill="white"/>
<path d="M400.82 241.58H291.89V254.83H400.82V241.58Z" fill="#DC4D01"/>
<path opacity="0.3" d="M400.82 241.58H291.89V254.83H400.82V241.58Z" fill="white"/>
<path d="M410.39 241.58H400.82V254.83H410.39V241.58Z" fill="#DC4D01"/>
<path opacity="0.5" d="M410.39 241.58H400.82V254.83H410.39V241.58Z" fill="white"/>
<path d="M392.12 254.83H309.72V333.61H392.12V254.83Z" fill="#DC4D01"/>
<path opacity="0.2" d="M392.12 254.83H389.22V333.61H392.12V254.83Z" fill="black"/>
<path d="M324.33 271.48H337.33V275.13H329.63V278.13H336.21V281.56H329.63V288.5H324.35L324.33 271.48Z" fill="white"/>
<path d="M339.48 280C339.355 278.816 339.495 277.619 339.891 276.497C340.287 275.374 340.929 274.354 341.769 273.511C342.609 272.668 343.627 272.023 344.748 271.623C345.869 271.223 347.066 271.079 348.25 271.2C349.437 271.123 350.628 271.284 351.751 271.676C352.875 272.068 353.908 272.681 354.79 273.48C355.584 274.333 356.197 275.338 356.591 276.435C356.985 277.531 357.151 278.697 357.08 279.86C357.145 281.547 356.802 283.224 356.08 284.75C355.434 286.017 354.424 287.062 353.18 287.75C351.724 288.505 350.098 288.87 348.46 288.81C346.825 288.868 345.198 288.557 343.7 287.9C342.417 287.259 341.355 286.249 340.65 285C339.814 283.47 339.409 281.742 339.48 280ZM344.73 280C344.616 281.306 344.951 282.611 345.68 283.7C346.019 284.051 346.426 284.329 346.875 284.52C347.324 284.71 347.807 284.808 348.295 284.808C348.783 284.808 349.266 284.71 349.715 284.52C350.164 284.329 350.571 284.051 350.91 283.7C351.52 282.97 351.83 281.65 351.83 279.7C351.925 278.451 351.57 277.21 350.83 276.2C350.502 275.83 350.096 275.539 349.641 275.347C349.186 275.155 348.693 275.067 348.2 275.09C347.718 275.071 347.238 275.162 346.796 275.356C346.354 275.55 345.962 275.842 345.65 276.21C344.91 277.327 344.584 278.668 344.73 280Z" fill="white"/>
<path d="M360 288.47V271.47H368.75C370.004 271.425 371.258 271.566 372.47 271.89C373.316 272.156 374.046 272.703 374.54 273.44C375.086 274.251 375.362 275.213 375.33 276.19C375.363 277.015 375.171 277.833 374.772 278.555C374.374 279.278 373.785 279.878 373.07 280.29C372.496 280.61 371.875 280.836 371.23 280.96C371.712 281.102 372.17 281.315 372.59 281.59C372.905 281.851 373.187 282.15 373.43 282.48C373.709 282.81 373.956 283.165 374.17 283.54L376.71 288.46H370.78L368 283.28C367.761 282.787 367.42 282.351 367 282C366.624 281.741 366.177 281.605 365.72 281.61H365.25V288.5L360 288.47ZM365.27 278.37H367.49C367.959 278.333 368.424 278.256 368.88 278.14C369.221 278.072 369.523 277.879 369.73 277.6C369.953 277.315 370.07 276.962 370.06 276.6C370.072 276.363 370.032 276.126 369.942 275.907C369.852 275.687 369.715 275.49 369.54 275.33C368.94 274.968 368.237 274.813 367.54 274.89H365.23L365.27 278.37Z" fill="white"/>
<path d="M316.14 311.33L321.14 311.02C321.193 311.686 321.425 312.325 321.81 312.87C322.088 313.208 322.443 313.475 322.844 313.649C323.246 313.823 323.683 313.898 324.12 313.87C324.744 313.911 325.361 313.727 325.86 313.35C326.045 313.203 326.195 313.016 326.299 312.803C326.403 312.59 326.458 312.357 326.46 312.12C326.456 311.893 326.402 311.669 326.301 311.465C326.201 311.262 326.057 311.082 325.88 310.94C325.068 310.421 324.154 310.08 323.2 309.94C321.416 309.651 319.726 308.941 318.27 307.87C317.793 307.472 317.412 306.971 317.155 306.405C316.899 305.838 316.774 305.221 316.79 304.6C316.79 303.716 317.055 302.852 317.55 302.12C318.107 301.293 318.902 300.655 319.83 300.29C321.165 299.792 322.586 299.564 324.01 299.62C325.761 299.502 327.506 299.925 329.01 300.83C329.599 301.294 330.082 301.879 330.427 302.544C330.772 303.21 330.97 303.941 331.01 304.69L326.06 304.98C326.046 304.664 325.966 304.354 325.827 304.069C325.688 303.785 325.492 303.532 325.251 303.327C325.01 303.121 324.729 302.968 324.426 302.875C324.123 302.783 323.805 302.754 323.49 302.79C322.999 302.754 322.51 302.892 322.11 303.18C321.964 303.289 321.845 303.431 321.764 303.594C321.682 303.757 321.64 303.938 321.64 304.12C321.649 304.262 321.689 304.401 321.756 304.527C321.823 304.653 321.917 304.763 322.03 304.85C322.565 305.184 323.165 305.399 323.79 305.48C325.487 305.782 327.142 306.285 328.72 306.98C329.604 307.388 330.354 308.041 330.88 308.86C331.338 309.616 331.573 310.486 331.56 311.37C331.561 312.437 331.248 313.48 330.66 314.37C330.041 315.3 329.161 316.027 328.13 316.46C326.829 316.972 325.438 317.214 324.04 317.17C321.15 317.17 319.15 316.62 318.04 315.5C316.928 314.382 316.254 312.903 316.14 311.33Z" fill="white"/>
<path d="M344.64 314.15H338.64L337.81 316.95H332.45L338.84 299.95H344.56L351 317H345.5L344.64 314.15ZM343.55 310.47L341.68 304.37L339.82 310.47H343.55Z" fill="white"/>
<path d="M352.66 300H357.91V312.81H366.1V317H352.66V300Z" fill="white"/>
<path d="M368.47 300H382.54V303.63H373.74V306.33H381.91V309.8H373.74V313.15H382.8V317H368.47V300Z" fill="white"/>
<path d="M219.74 150.76L218.23 152.76C217.74 153.39 217.23 154 216.72 154.61C215.72 155.83 214.66 157.01 213.6 158.19C211.46 160.52 209.24 162.81 206.81 164.99C204.338 167.284 201.701 169.393 198.92 171.3C197.389 172.348 195.792 173.297 194.14 174.14C192.193 175.14 190.131 175.899 188 176.4L187.57 176.49C187.199 176.574 186.82 176.624 186.44 176.64C184.371 176.701 182.316 176.276 180.44 175.4C179.157 174.81 177.955 174.061 176.86 173.17C175.202 171.819 173.69 170.297 172.35 168.63C170.094 165.809 168.087 162.797 166.35 159.63C164.69 156.63 163.22 153.57 161.89 150.48C160.541 147.397 159.353 144.246 158.33 141.04C158.022 140.016 158.083 138.918 158.502 137.934C158.921 136.951 159.671 136.146 160.622 135.658C161.574 135.171 162.665 135.032 163.708 135.266C164.751 135.5 165.679 136.093 166.33 136.94L166.42 137.06C168.27 139.55 170.14 142.16 172.02 144.65C173.9 147.14 175.78 149.65 177.72 151.96C179.512 154.192 181.453 156.3 183.53 158.27C184.319 159.036 185.195 159.707 186.14 160.27C186.48 160.45 186.74 160.52 186.72 160.47C186.7 160.42 186.32 160.17 185.41 160.19L183.85 160.43C184.544 160.089 185.212 159.698 185.85 159.26C186.69 158.68 187.63 158.01 188.56 157.26C189.49 156.51 190.45 155.63 191.39 154.73C192.33 153.83 193.3 152.91 194.25 151.95C196.13 149.95 198.02 147.95 199.86 145.88L202.61 142.72L205.25 139.62L205.5 139.33C207.041 137.521 209.228 136.386 211.594 136.165C213.96 135.944 216.319 136.655 218.169 138.148C220.018 139.64 221.212 141.795 221.496 144.155C221.78 146.514 221.132 148.891 219.69 150.78L219.74 150.76Z" fill="#252525"/>
<path d="M166.12 135C165.55 130.5 157.38 128.42 157.38 128.42L152.61 126.31C151.828 125.962 150.948 125.903 150.127 126.145C149.306 126.387 148.598 126.913 148.13 127.63L145.7 131.35C145.444 131.751 145.269 132.198 145.186 132.666C145.103 133.134 145.112 133.614 145.214 134.078C145.317 134.542 145.509 134.982 145.781 135.372C146.053 135.761 146.399 136.094 146.8 136.35L151.18 139.09C151.966 139.575 152.845 139.889 153.76 140.01L157.48 140.49C159.043 140.692 160.632 140.446 162.06 139.78C163.489 139.115 164.699 138.057 165.55 136.73L165.78 136.38C166.045 135.971 166.165 135.485 166.12 135Z" fill="#AD6359"/>
<path d="M221.83 312.59C234.83 271.32 244.92 221.1 244.92 221.1L205.77 217.25C205.77 217.25 203.2 281.87 200.77 310.49C198.23 340.24 188.3 409.35 188.3 409.35L200.2 410.35C200.2 410.35 220.63 349.54 221.83 312.59Z" fill="#252525"/>
<path d="M229.65 254.82L235.09 264.53C232.31 275.86 229.09 288.32 225.5 300.53C226 281.37 228 259.27 229.65 254.82Z" fill="black"/>
<path d="M172.35 412.1C172.35 412.1 189.18 410.72 190.79 408.33L199.84 409.7L198.35 419.24L192.77 418.4L192.05 417.4L190.5 418.07C186 417.38 174 415.4 171.34 414C171.326 413.622 171.411 413.248 171.589 412.914C171.766 412.58 172.029 412.299 172.35 412.1Z" fill="#252525"/>
<path d="M259.88 309.84C259.19 267.41 261.88 239.05 258.27 218.14L222.5 217.6C222.5 217.6 231.29 284.92 235.66 312.95C240.03 340.98 245.59 410.2 245.59 410.2H256.65C256.65 410.2 266.27 342.67 259.88 309.84Z" fill="#252525"/>
<path d="M234.75 416.05C234.75 416.05 245.36 412.18 246.75 409.58H255.91L255.22 419.24H247.74L246.93 418.35L245.45 419.24C240.88 419.24 236.69 419.06 233.89 418.03C233.858 417.654 233.92 417.277 234.07 416.931C234.22 416.586 234.454 416.283 234.75 416.05Z" fill="#252525"/>
<path d="M256.68 133.47C244.03 131.9 225.95 132.05 213.83 134.14C210.803 134.688 208.024 136.175 205.888 138.389C203.753 140.604 202.368 143.435 201.93 146.48C199.38 164.78 201.57 196.77 203.2 228.97C230.88 238.44 260.09 228.84 260.09 228.84C261.09 222.34 258.83 201.06 257.3 189.7C259.59 177.97 264.43 164.53 267.63 148.95C268.024 147.206 268.046 145.399 267.696 143.646C267.347 141.893 266.633 140.233 265.6 138.773C264.568 137.314 263.24 136.087 261.704 135.174C260.167 134.26 258.455 133.68 256.68 133.47Z" fill="#252525"/>
<path d="M224.06 132.91C222.54 134.44 221.53 136.85 220.99 139.91C219.69 147.34 221.16 158.79 225.08 171.91C228.83 161.33 236.9 147.33 241.86 139.2C244.21 135.35 245.86 132.8 246 132.58C238.768 130.907 231.238 131.021 224.06 132.91Z" fill="#E0E0E0"/>
<path d="M244.16 109.3L229.75 121.12C231.62 126.07 232.21 131.23 224.07 133.22C222.07 135.91 225.63 138.99 228.99 140.39C234.42 139.72 242.08 137.91 245.39 133.39C244.34 129.79 242.76 116.63 244.16 109.3Z" fill="#AD6359"/>
<path d="M225.55 137.41C226.157 139.137 227.189 140.685 228.55 141.91C230.75 141.91 233.96 139.44 233.96 139.44C233.96 139.44 232.72 135.95 230.96 135.24C226.51 136.34 225.55 137.41 225.55 137.41Z" fill="#DC4D01"/>
<path d="M230.57 140.4C230.229 140.136 229.837 139.945 229.419 139.839C229.001 139.732 228.566 139.712 228.14 139.78C225.26 143.87 223.43 150.23 221.65 157.57C222.504 162.444 223.649 167.263 225.08 172C226.684 167.646 228.554 163.394 230.68 159.27C229.858 153.009 229.821 146.67 230.57 140.4Z" fill="#DC4D01"/>
<path opacity="0.2" d="M238.15 114.23L229.76 121.11C230.209 122.258 230.544 123.447 230.76 124.66C234.01 124.89 238.53 121.6 238.76 118.66C238.831 117.158 238.624 115.657 238.15 114.23Z" fill="black"/>
<path d="M223.81 88.62C217.53 94.81 221.65 104.71 221.65 104.71C221.65 104.71 232.63 85.12 223.81 88.62Z" fill="#252525"/>
<path d="M246.22 101.25C244.91 110.25 244.6 115.64 239.62 119.88C232.13 126.26 221.26 121.07 219.84 111.8C218.57 103.45 220.93 90.08 230.13 87.28C232.167 86.6606 234.328 86.5684 236.411 87.0121C238.493 87.4557 240.429 88.4208 242.037 89.8168C243.645 91.2128 244.872 92.994 245.603 94.9937C246.335 96.9934 246.547 99.146 246.22 101.25Z" fill="#AD6359"/>
<path d="M247.23 105.88C240.46 107.27 238.5 102.03 238.5 102.03C239.872 102.315 241.288 102.315 242.66 102.03C242.66 102.03 238.1 97.37 241.66 92.86C239.8 90.86 231.52 91.72 227.66 92.86C223.44 91.27 221.27 90.53 219.02 85.52C221.1 85.88 223.24 85.6156 225.17 84.76C229.37 82.83 223.07 81.41 223.07 81.41C227.9 79.522 233.134 78.9057 238.27 79.62C248.07 81 249.59 83.91 249.21 87.21C254.34 87.15 254.85 92.86 254.85 92.86C254.227 92.3605 253.493 92.0176 252.71 91.86C253 93.6 254 103.81 247.23 105.88Z" fill="#252525"/>
<path d="M247.82 87.88C249.7 87.03 250.27 82.54 249.16 80.66C254.19 86 250.56 88.18 247.82 87.88Z" fill="#252525"/>
<path d="M249.28 108.26C248.861 109.208 248.258 110.064 247.506 110.778C246.754 111.492 245.868 112.05 244.9 112.42C242.29 113.42 240.73 111.12 241.24 108.54C241.7 106.21 243.61 102.91 246.33 103.05C246.922 103.089 247.496 103.274 247.999 103.59C248.502 103.906 248.919 104.342 249.212 104.858C249.504 105.375 249.664 105.957 249.676 106.551C249.687 107.144 249.551 107.732 249.28 108.26Z" fill="#AD6359"/>
<path d="M233.54 101.58C233.48 102.32 233.03 102.88 232.54 102.84C232.05 102.8 231.71 102.16 231.78 101.42C231.85 100.68 232.28 100.11 232.78 100.16C233.28 100.21 233.6 100.84 233.54 101.58Z" fill="#252525"/>
<path d="M224.69 101.36C224.63 102.1 224.19 102.67 223.69 102.62C223.19 102.57 222.87 101.94 222.93 101.2C222.99 100.46 223.43 99.9 223.93 99.94C224.43 99.98 224.75 100.62 224.69 101.36Z" fill="#252525"/>
<path d="M226.48 102.36C226.48 102.36 224.48 106.47 222.42 108.36C223.63 109.7 225.9 109.36 225.9 109.36L226.48 102.36Z" fill="#DC4D01"/>
<path d="M235.69 99.36C235.763 99.3754 235.838 99.3754 235.91 99.36C235.964 99.3391 236.013 99.3077 236.054 99.2674C236.096 99.2272 236.129 99.1791 236.151 99.1259C236.173 99.0727 236.185 99.0156 236.185 98.9579C236.185 98.9001 236.173 98.8431 236.15 98.79C235.902 98.1332 235.5 97.5454 234.978 97.0757C234.456 96.606 233.829 96.268 233.15 96.09C233.038 96.0692 232.921 96.0931 232.826 96.1566C232.731 96.22 232.664 96.3181 232.64 96.43C232.616 96.544 232.639 96.6628 232.703 96.7602C232.766 96.8577 232.866 96.9259 232.98 96.95C233.511 97.0991 233.998 97.373 234.402 97.7487C234.806 98.1244 235.113 98.5911 235.3 99.11C235.334 99.1845 235.389 99.2477 235.459 99.292C235.528 99.3363 235.608 99.3599 235.69 99.36Z" fill="#252525"/>
<path d="M220.57 98.54C220.638 98.5644 220.711 98.5717 220.782 98.5613C220.854 98.5508 220.922 98.5229 220.98 98.48C221.408 98.1404 221.91 97.9079 222.446 97.8018C222.982 97.6957 223.535 97.7191 224.06 97.87C224.114 97.8906 224.171 97.9002 224.229 97.8982C224.286 97.8962 224.343 97.8827 224.395 97.8585C224.447 97.8342 224.494 97.7997 224.533 97.7571C224.571 97.7144 224.601 97.6643 224.62 97.61C224.659 97.5012 224.653 97.3815 224.605 97.2767C224.556 97.1719 224.468 97.0905 224.36 97.05C223.699 96.8487 222.999 96.8099 222.32 96.937C221.641 97.0641 221.003 97.3533 220.46 97.78C220.398 97.8276 220.35 97.8908 220.32 97.9633C220.291 98.0358 220.281 98.1148 220.292 98.1922C220.303 98.2696 220.335 98.3427 220.384 98.4038C220.433 98.4649 220.497 98.5119 220.57 98.54Z" fill="#252525"/>
<path d="M246 132.61C245.85 132.83 244.21 135.38 241.86 139.23C239.498 141.415 236.6 142.936 233.46 143.64C233.92 142.09 232.53 136.84 230.99 135.22C234.62 135.43 239.62 134.81 246 132.61Z" fill="#FAFAFA"/>
<path d="M231 135.24C229.337 135.969 227.84 137.027 226.597 138.351C225.355 139.674 224.393 141.235 223.77 142.94C223.129 142.66 222.553 142.248 222.081 141.731C221.609 141.214 221.251 140.604 221.03 139.94C221.57 136.85 222.58 134.44 224.1 132.94C224.91 134 227.2 135 231 135.24Z" fill="#FAFAFA"/>
<path d="M267.66 142.31C268.4 143.92 269.02 145.31 269.66 146.88C270.3 148.45 270.86 149.88 271.44 151.44C272.56 154.5 273.61 157.6 274.53 160.8C275.499 164.055 276.293 167.36 276.91 170.7C277.23 172.42 277.5 174.2 277.68 176.08C277.871 178.138 277.895 180.208 277.75 182.27C277.311 186.422 276.021 190.439 273.96 194.07C272.247 197.189 270.237 200.136 267.96 202.87C265.817 205.459 263.516 207.914 261.07 210.22C258.648 212.512 256.075 214.64 253.37 216.59C252.498 217.212 251.435 217.508 250.366 217.426C249.298 217.344 248.293 216.89 247.525 216.142C246.758 215.394 246.278 214.4 246.17 213.334C246.061 212.268 246.33 211.198 246.93 210.31L247.08 210.1L249.59 206.41C250.44 205.17 251.25 203.9 252.06 202.64C253.65 200.13 255.2 197.64 256.53 195.08C257.853 192.693 258.993 190.209 259.94 187.65C260.355 186.529 260.69 185.379 260.94 184.21C261.146 183.315 261.23 182.397 261.19 181.48C261.116 180.414 260.966 179.355 260.74 178.31C260.5 177.09 260.21 175.79 259.85 174.46C259.11 171.8 258.23 169.04 257.27 166.27C256.31 163.5 255.27 160.71 254.2 157.92L250.96 149.63L250.88 149.44C250.025 147.229 250.064 144.773 250.987 142.59C251.911 140.407 253.647 138.669 255.829 137.743C258.011 136.817 260.467 136.776 262.679 137.628C264.89 138.48 266.684 140.159 267.68 142.31H267.66Z" fill="#252525"/>
<path d="M214.05 189.43C210.034 192.551 207.329 197.061 206.467 202.074C205.605 207.087 206.648 212.242 209.391 216.525C212.134 220.809 216.379 223.913 221.293 225.227C226.207 226.542 231.435 225.972 235.95 223.63L238.45 226.83L237.99 228.83L243.3 235.66L246.2 235.72L245.41 239.09L255.83 252.49L261.43 252.59L263.31 255.02L262.38 259.02L269.29 267.9L275.15 268.01L276.15 261.72L242.46 218.41C245.618 214.521 247.233 209.607 246.999 204.603C246.764 199.599 244.696 194.857 241.189 191.281C237.682 187.704 232.981 185.544 227.983 185.212C222.985 184.88 218.04 186.399 214.09 189.48L214.05 189.43ZM222.67 200.51C221.861 201.142 220.882 201.52 219.858 201.595C218.834 201.671 217.811 201.441 216.918 200.935C216.024 200.429 215.301 199.669 214.84 198.752C214.378 197.835 214.199 196.802 214.325 195.783C214.451 194.764 214.876 193.805 215.547 193.028C216.218 192.251 217.105 191.69 218.094 191.417C219.084 191.143 220.133 191.17 221.107 191.493C222.082 191.815 222.939 192.42 223.57 193.23C224.415 194.315 224.795 195.691 224.627 197.056C224.458 198.421 223.754 199.663 222.67 200.51Z" fill="#DC4D01"/>
<path d="M254.62 214.62C254.488 214.137 254.186 213.718 253.77 213.44L250.24 211C249.901 210.765 249.503 210.63 249.091 210.611C248.679 210.591 248.27 210.688 247.91 210.89L244.74 212.7C241.658 214.445 238.988 216.832 236.91 219.7L236.22 220.7C235.94 221.09 235.741 221.533 235.634 222.001C235.527 222.469 235.515 222.954 235.598 223.427C235.68 223.9 235.857 224.352 236.117 224.756C236.376 225.16 236.714 225.508 237.11 225.78L240.77 228.3C241.476 228.784 242.331 229.002 243.183 228.914C244.035 228.826 244.828 228.439 245.42 227.82L249 224C249 224 255.8 219 254.62 214.62Z" fill="#AD6359"/>
<path d="M248.11 209C246.544 209.663 245.087 210.56 243.79 211.66C244.25 214.47 252.08 219.15 254.72 219.21C255.79 218.21 257.2 214.1 257.2 214.1C254.24 212.82 250.25 210 248.11 209Z" fill="#E0E0E0"/>
<path d="M168 139C168.035 137.31 167.813 135.624 167.34 134C164.59 133.26 157.12 138.5 155.99 140.9C156.48 142.29 159.63 145.24 159.63 145.24C162 143 166.2 140.5 168 139Z" fill="#E0E0E0"/>
<path d="M244.94 410.51L257.22 410.86L258.5 403.88L244.13 404.74L244.94 410.51Z" fill="#DC4D01"/>
<path d="M187.72 409.26L200.85 411.29L203.07 405.49L188.52 402.2L187.72 409.26Z" fill="#DC4D01"/>
<path d="M229.32 112C228.846 112.02 228.37 111.997 227.9 111.93C227.869 111.925 227.839 111.914 227.812 111.897C227.785 111.88 227.762 111.858 227.744 111.832C227.726 111.805 227.714 111.776 227.708 111.744C227.702 111.713 227.703 111.681 227.71 111.65C227.725 111.583 227.763 111.524 227.818 111.483C227.874 111.442 227.942 111.424 228.01 111.43C229.069 111.587 230.151 111.502 231.172 111.182C232.194 110.862 233.13 110.314 233.91 109.58C233.959 109.534 234.023 109.508 234.09 109.508C234.157 109.508 234.222 109.534 234.27 109.58C234.316 109.627 234.342 109.69 234.342 109.755C234.342 109.82 234.316 109.883 234.27 109.93C232.933 111.209 231.17 111.947 229.32 112Z" fill="#252525"/>
<path d="M194.91 75.45L164.66 73.02L138.97 60.27L110.81 68.69L106.75 119.24L190.85 126L194.91 75.45Z" fill="#DC4D01"/>
<path d="M98.04 124.15L84.73 123.08L86.4 102.32L87.99 102.45L86.45 121.62L98.17 122.56L98.04 124.15Z" fill="#DC4D01"/>
<path d="M104.319 122.653L104.191 124.253L114.591 125.085L114.719 123.485L104.319 122.653Z" fill="#DC4D01"/>
<path d="M111.343 100.931L92.2349 99.3932L90.7416 117.953L109.85 119.491L111.343 100.931Z" fill="#DC4D01"/>
<path opacity="0.2" d="M109.86 119.49L126.62 120.84L128.65 95.56L111.35 100.92L109.86 119.49Z" fill="black"/>
<path opacity="0.2" d="M194.911 75.4739L164.659 73.0399L160.592 123.587L190.844 126.021L194.911 75.4739Z" fill="black"/>
<path d="M169.22 62.7L138.97 60.27L164.66 73.02L194.91 75.45L169.22 62.7Z" fill="#252525"/>
<path d="M194.91 77.05H194.78L164.53 74.62C164.328 74.5986 164.132 74.5411 163.95 74.45L138.26 61.7C137.927 61.5346 137.662 61.2585 137.511 60.9191C137.36 60.5797 137.331 60.1982 137.43 59.84C137.532 59.4832 137.754 59.1723 138.058 58.9593C138.362 58.7463 138.73 58.6442 139.1 58.67L169.35 61.1C169.555 61.1212 169.755 61.1788 169.94 61.27L195.62 74C195.926 74.1688 196.169 74.4331 196.31 74.7527C196.452 75.0723 196.485 75.4295 196.405 75.7697C196.324 76.1099 196.135 76.4144 195.865 76.6365C195.595 76.8587 195.259 76.9864 194.91 77V77.05ZM165.09 71.45L186.77 73.2L168.77 64.27L147.09 62.52L165.09 71.45Z" fill="#252525"/>
<path d="M109.55 94.03L128.65 95.56L111.35 100.92L92.25 99.39L109.55 94.03Z" fill="#252525"/>
<path d="M111.35 101.94H111.27L92.1602 100.4C91.9254 100.382 91.7044 100.282 91.5361 100.118C91.3679 99.953 91.263 99.7343 91.2402 99.5C91.2165 99.26 91.2804 99.0195 91.4201 98.8229C91.5597 98.6262 91.7658 98.4867 92.0002 98.43L109.3 93.06C109.426 93.0357 109.555 93.0357 109.68 93.06L128.78 94.6C129.015 94.6151 129.237 94.7127 129.407 94.8755C129.578 95.0383 129.685 95.2559 129.71 95.49C129.739 95.7249 129.683 95.9624 129.553 96.1601C129.423 96.3579 129.227 96.5031 129 96.57L111.7 101.93C111.585 101.954 111.467 101.957 111.35 101.94ZM97.5502 98.8L111.24 99.9L123.35 96.15L109.66 95.05L97.5502 98.8Z" fill="#252525"/>
<path d="M111.58 70.35C111.201 70.3454 110.836 70.2066 110.55 69.9582C110.264 69.7098 110.075 69.3679 110.018 68.9934C109.96 68.6189 110.037 68.2362 110.235 67.9133C110.433 67.5903 110.74 67.3482 111.1 67.23L138.5 58.74C138.707 58.6289 138.937 58.5651 139.172 58.5529C139.407 58.5407 139.642 58.5806 139.86 58.6696C140.078 58.7587 140.273 58.8947 140.433 59.068C140.592 59.2414 140.711 59.4477 140.781 59.6724C140.852 59.897 140.872 60.1344 140.84 60.3676C140.808 60.6009 140.725 60.8242 140.597 61.0217C140.469 61.2192 140.299 61.3859 140.099 61.5101C139.899 61.6343 139.674 61.7128 139.44 61.74L112.05 70.23C111.9 70.294 111.742 70.3344 111.58 70.35Z" fill="#252525"/>
<path opacity="0.6" d="M149.402 103L138.482 102.127L136.893 121.997L147.813 122.87L149.402 103Z" fill="white"/>
<path d="M150.421 78.0698L124.824 76.0103L123.585 91.4005L149.183 93.46L150.421 78.0698Z" fill="white"/>
<path d="M136.466 77.9734L125.69 77.1064L124.616 90.4633L135.391 91.3302L136.466 77.9734Z" fill="#DC4D01"/>
<path d="M149.391 79.017L138.616 78.1501L137.541 91.5069L148.316 92.3738L149.391 79.017Z" fill="#DC4D01"/>
<path d="M186.803 81.0049L172.499 79.854L171.261 95.2443L185.565 96.3952L186.803 81.0049Z" fill="white"/>
<path d="M178.96 81.3994L172.939 80.915L171.864 94.2718L177.885 94.7562L178.96 81.3994Z" fill="#DC4D01"/>
<path d="M186.18 81.9766L180.159 81.4922L179.085 94.849L185.105 95.3334L186.18 81.9766Z" fill="#DC4D01"/>
<path d="M184.817 105.597L170.514 104.446L169.275 119.836L183.579 120.987L184.817 105.597Z" fill="white"/>
<path d="M176.974 105.991L170.953 105.507L169.878 118.864L175.899 119.348L176.974 105.991Z" fill="#DC4D01"/>
<path d="M184.817 106.875L178.777 106.392L177.705 119.792L183.745 120.275L184.817 106.875Z" fill="#DC4D01"/>
</svg>
