<svg width="24" height="24" viewBox="0 0 24 24" fill="none" xmlns="http://www.w3.org/2000/svg">
<g clip-path="url(#clip0_305_3950)">
<path d="M9 0H0V9H9V0ZM7.5 7.5H1.5V1.5H7.5V7.5Z" fill="black"/>
<path d="M3 3H6V6H3V3ZM0 24H9V15H0V24ZM1.5 16.5H7.5V22.5H1.5V16.5Z" fill="black"/>
<path d="M3 18H6V21H3V18ZM15 0V9H24V0H15ZM22.5 7.5H16.5V1.5H22.5V7.5Z" fill="black"/>
<path d="M18 3H21V6H18V3ZM3 10.5H0V13.5H4.5V12H3V10.5ZM10.5 13.5H13.5V16.5H10.5V13.5ZM4.5 10.5H7.5V12H4.5V10.5ZM13.5 18H10.5V19.5H12V21H13.5V19.5V18ZM9 10.5V12H7.5V13.5H10.5V10.5H9ZM12 6H13.5V9H12V6ZM13.5 12V13.5H16.5V10.5H12V12H13.5ZM10.5 9H12V10.5H10.5V9ZM13.5 21H16.5V24H13.5V21ZM10.5 21H12V24H10.5V21ZM13.5 16.5H15V18H13.5V16.5ZM13.5 4.5V1.5H12V0H10.5V6H12V4.5H13.5ZM18 21H19.5V24H18V21ZM18 18H21V19.5H18V18ZM16.5 19.5H18V21H16.5V19.5ZM15 18H16.5V19.5H15V18ZM21 15V16.5H22.5V18H24V15H22.5H21ZM22.5 19.5H21V24H24V21H22.5V19.5ZM15 15V16.5H19.5V13.5H16.5V15H15ZM18 10.5V12H21V13.5H24V10.5H21H18Z" fill="black"/>
</g>
<defs>
<clipPath id="clip0_305_3950">
<rect width="24" height="24" fill="white"/>
</clipPath>
</defs>
</svg>
