<svg width="75" height="24" viewBox="0 0 75 24" fill="none" xmlns="http://www.w3.org/2000/svg">
<path d="M39.2593 7.64188C39.2171 10.9718 42.2269 12.8299 44.4942 13.9348C46.8236 15.0683 47.6061 15.7952 47.5968 16.809C47.5795 18.3603 45.7387 19.0451 44.0162 19.0717C41.011 19.1182 39.2636 18.2603 37.8745 17.6114L36.7919 22.6772C38.1857 23.3194 40.7664 23.8795 43.4425 23.9041C49.7245 23.9041 53.8342 20.8031 53.8565 15.9953C53.8811 9.89355 45.4166 9.55581 45.4744 6.82849C45.4944 6.0015 46.2835 5.11899 48.0126 4.89461C48.8686 4.78126 51.2312 4.69451 53.91 5.92805L54.9614 1.02685C53.5208 0.502319 51.6693 5.34058e-05 49.3642 5.34058e-05C43.4515 5.34058e-05 39.2928 3.14319 39.2593 7.64188ZM65.0639 0.422222C63.9168 0.422222 62.9502 1.09133 62.5188 2.11813L53.5454 23.5441H59.8227L61.0718 20.0918H68.7426L69.4672 23.5441H74.9999L70.1719 0.422222H65.0639ZM65.9421 6.66829L67.7537 15.3508H62.7923L65.9421 6.66829ZM31.6484 0.422512L26.7004 23.5438H32.6821L37.6279 0.421934H31.6484M22.7993 0.421934L16.5732 16.1599L14.0547 2.77856C13.7592 1.28478 12.5921 0.422222 11.2961 0.422222H1.11838L0.97583 1.09364C3.06528 1.54704 5.43925 2.27832 6.87752 3.06078C7.75771 3.53875 8.0087 3.95658 8.29785 5.09239L13.0681 23.5441H19.3893L29.0807 0.422222L22.7993 0.421934Z" fill="url(#paint0_linear_305_3991)"/>
<defs>
<linearGradient id="paint0_linear_305_3991" x1="3404.16" y1="71.8555" x2="3473.35" y2="-2383.12" gradientUnits="userSpaceOnUse">
<stop stop-color="#222357"/>
<stop offset="1" stop-color="#254AA5"/>
</linearGradient>
</defs>
</svg>
